<svg width="828" height="1033" viewBox="0 0 828 1033" fill="none" xmlns="http://www.w3.org/2000/svg">
<rect x="2" width="826" height="1033" fill="#7E95FF"/>
<rect y="153.336" width="746" height="720.275" fill="#7E95FF"/>
<g clip-path="url(#clip0_498_5459)">
<path d="M224.169 344.071C225.895 329.486 223.018 309.962 216.403 301.464H228.759C235.375 309.962 238.251 329.486 236.525 344.071H224.169Z" fill="#FE8205"/>
<path d="M271.202 344.071C272.928 329.486 270.052 309.962 263.436 301.464H275.793C282.408 309.962 285.284 329.486 283.559 344.071H271.202Z" fill="#FE8205"/>
<path d="M318.224 344.071C319.95 329.486 317.073 309.962 310.458 301.464H322.815C329.43 309.962 332.306 329.486 330.581 344.071H318.224Z" fill="#FE8205"/>
<path d="M365.257 344.071C366.983 329.486 364.107 309.962 357.491 301.464H369.848C376.463 309.962 379.34 329.486 377.614 344.071H365.257Z" fill="#FE8205"/>
<path d="M412.279 344.071C414.004 329.486 411.128 309.962 404.513 301.464H416.869C423.485 309.962 426.361 329.486 424.635 344.071H412.279Z" fill="#FE8205"/>
<path d="M244.671 755.966H487.143L438.166 324.211H195.694L244.671 755.966Z" fill="#D0DEF5"/>
<path d="M385.472 755.966H143L191.978 324.211H434.449L385.472 755.966Z" fill="white"/>
<path d="M236.606 436.115H199.076L203.368 398.296H240.898L236.606 436.115ZM204.207 431.477H232.533L235.766 402.933H207.44L204.207 431.477Z" fill="#BFC6DE"/>
<path d="M403.04 406.273H258.075L258.604 401.635H403.569L403.04 406.273Z" fill="#212A45"/>
<path d="M401.533 419.524H256.567L257.097 414.887H402.062L401.533 419.524Z" fill="#212A45"/>
<path d="M350.174 432.788H255.072L255.59 428.15H350.703L350.174 432.788Z" fill="#212A45"/>
<path d="M229.634 497.551H192.104L196.395 459.732H233.925L229.634 497.551ZM197.235 492.913H225.561L228.794 464.369H200.468L197.235 492.913Z" fill="#BFC6DE"/>
<path d="M396.068 467.708H251.103L251.632 463.071H396.597L396.068 467.708Z" fill="#212A45"/>
<path d="M394.561 480.972H249.595L250.124 476.334H395.09L394.561 480.972Z" fill="#212A45"/>
<path d="M343.201 494.223H248.1L248.617 489.586H343.731L343.201 494.223Z" fill="#212A45"/>
<path d="M222.673 558.998H185.144L189.435 521.179H226.965L222.673 558.998ZM190.275 554.361H218.601L221.834 525.816H193.508L190.275 554.361Z" fill="#BFC6DE"/>
<path d="M389.096 529.144H244.142L244.66 524.506H389.625L389.096 529.144Z" fill="#212A45"/>
<path d="M387.601 542.407H242.635L243.153 537.77H388.118L387.601 542.407Z" fill="#212A45"/>
<path d="M336.241 555.67H241.128L241.657 551.033H336.759L336.241 555.67Z" fill="#212A45"/>
<path d="M215.701 620.434H178.171L182.463 582.615H219.993L215.701 620.434ZM183.303 615.796H211.628L214.861 587.252H186.536L183.303 615.796Z" fill="#BFC6DE"/>
<path d="M382.135 590.591H237.17L237.688 585.954H382.653L382.135 590.591Z" fill="#212A45"/>
<path d="M380.628 603.843H235.663L236.192 599.205H381.146L380.628 603.843Z" fill="#212A45"/>
<path d="M329.269 617.106H234.156L234.685 612.469H329.798L329.269 617.106Z" fill="#212A45"/>
<path d="M208.729 681.881H171.199L175.491 644.062H213.021L208.729 681.881ZM176.331 677.244H204.656L207.889 648.7H179.563L176.331 677.244Z" fill="#BFC6DE"/>
<path d="M375.163 652.027H230.198L230.727 647.389H375.681L375.163 652.027Z" fill="#212A45"/>
<path d="M373.656 665.29H228.69L229.22 660.653H374.185L373.656 665.29Z" fill="#212A45"/>
<path d="M322.297 678.542H227.195L227.713 673.905H322.826L322.297 678.542Z" fill="#212A45"/>
<path d="M218.083 426.121L209.546 416.405L213.17 413.124L218.831 419.559L241.484 399.084L244.361 402.354L218.083 426.121Z" fill="#2A3BB7"/>
<path d="M211.156 487.163L202.62 477.447L206.244 474.166L211.904 480.6L234.558 460.126L237.434 463.407L211.156 487.163Z" fill="#2A3BB7"/>
<path d="M204.242 548.216L195.694 538.5L199.329 535.219L204.979 541.654L227.632 521.167L230.509 524.448L204.242 548.216Z" fill="#2A3BB7"/>
<path d="M197.316 609.257L188.779 599.542L192.403 596.261L198.052 602.695L220.706 582.22L223.582 585.501L197.316 609.257Z" fill="#2A3BB7"/>
<path d="M190.39 670.299L181.853 660.583L185.477 657.314L191.138 663.748L213.78 643.262L216.668 646.543L190.39 670.299Z" fill="#2A3BB7"/>
<path d="M218.094 334.82H211.594C208.982 334.82 206.865 336.953 206.865 339.585V346.147C206.865 348.778 208.982 350.912 211.594 350.912H218.094C220.706 350.912 222.823 348.778 222.823 346.147V339.585C222.823 336.953 220.706 334.82 218.094 334.82Z" fill="#B6C2D6"/>
<path d="M221.028 344.071C219.302 329.486 222.178 309.962 228.794 301.464H216.437C209.822 309.962 206.946 329.486 208.671 344.071H221.028Z" fill="#FED905"/>
<path d="M265.116 334.82H258.615C256.004 334.82 253.887 336.953 253.887 339.585V346.147C253.887 348.778 256.004 350.912 258.615 350.912H265.116C267.727 350.912 269.844 348.778 269.844 346.147V339.585C269.844 336.953 267.727 334.82 265.116 334.82Z" fill="#B6C2D6"/>
<path d="M268.049 344.071C266.324 329.486 269.2 309.962 275.815 301.464H263.459C256.843 309.962 253.967 329.486 255.693 344.071H268.049Z" fill="#FED905"/>
<path d="M312.149 334.82H305.649C303.037 334.82 300.92 336.953 300.92 339.585V346.147C300.92 348.778 303.037 350.912 305.649 350.912H312.149C314.761 350.912 316.878 348.778 316.878 346.147V339.585C316.878 336.953 314.761 334.82 312.149 334.82Z" fill="#B6C2D6"/>
<path d="M315.083 344.071C313.357 329.486 316.233 309.962 322.849 301.464H310.492C303.877 309.962 301 329.486 302.726 344.071H315.083Z" fill="#FED905"/>
<path d="M359.171 334.82H352.671C350.059 334.82 347.942 336.953 347.942 339.585V346.147C347.942 348.778 350.059 350.912 352.671 350.912H359.171C361.782 350.912 363.9 348.778 363.9 346.147V339.585C363.9 336.953 361.782 334.82 359.171 334.82Z" fill="#B6C2D6"/>
<path d="M362.105 344.071C360.379 329.486 363.255 309.962 369.871 301.464H357.514C350.899 309.962 348.022 329.486 349.748 344.071H362.105Z" fill="#FED905"/>
<path d="M406.204 334.82H399.704C397.092 334.82 394.975 336.953 394.975 339.585V346.147C394.975 348.778 397.092 350.912 399.704 350.912H406.204C408.816 350.912 410.933 348.778 410.933 346.147V339.585C410.933 336.953 408.816 334.82 406.204 334.82Z" fill="#B6C2D6"/>
<path d="M409.138 344.071C407.412 329.486 410.288 309.962 416.904 301.464H404.547C397.932 309.962 395.055 329.486 396.781 344.071H409.138Z" fill="#FED905"/>
<g style="mix-blend-mode:multiply">
<path d="M626.816 432.88C625.942 430.063 619.579 421.194 617.923 418.991C616.266 416.788 608.983 404.696 605.865 399.131C602.747 393.566 594.452 378.783 593.635 377.485C592.922 376.337 591.38 374.552 589.781 374.169C589.793 374.134 589.827 374.099 589.816 374.053C589.816 373.902 589.666 373.798 589.528 373.81C589.493 373.81 589.459 373.833 589.424 373.833C588.803 373.288 587.94 372.731 587.054 372.418C585.639 371.908 567.944 365.694 563.526 363.572C563.273 363.445 563.008 363.317 562.767 363.19C562.56 363.085 562.364 362.969 562.157 362.853C558.418 360.732 555.542 357.868 553.735 357.625C553.31 356.848 552.573 354.413 552.194 353.868C551.814 353.323 549.375 352.187 549.363 352.176C549.363 351.863 549.352 351.549 549.34 351.248C552.746 342.796 558.13 332.454 559.591 325.208C560.305 326.043 561.881 327.144 561.881 327.144C562.502 321.081 561.754 309.093 558.015 302.16C554.276 295.238 546.614 291.122 533.118 291.702C519.611 292.282 508.716 300.455 508.29 301.603C508.048 302.276 508.014 303.47 508.025 304.351C506.414 306.786 500.662 316.664 504.93 328.826C504.93 328.826 505.931 326.286 506.311 324.745C506.426 326.02 507.162 327.249 507.956 328.223C507.91 328.246 507.83 328.281 507.795 328.304C507.519 328.431 507.369 328.513 507.369 328.513L507.312 328.547L507.266 328.594C507.266 328.594 507.231 328.617 507.174 328.663C507.105 328.733 507.059 328.721 506.875 328.976C506.84 329.023 506.794 329.092 506.76 329.15C506.76 329.15 505.759 329.834 505.586 330.02C505.414 330.205 505.287 330.472 505.333 330.704C505.379 330.936 505.471 331.411 505.517 331.608C505.552 331.747 506 331.852 506.265 331.898C506.265 332.118 506.276 332.327 506.311 332.57C506.426 333.289 506.541 334.089 506.714 334.993C506.817 335.446 506.886 335.909 507.07 336.396L507.197 336.767C507.231 336.86 507.197 336.837 507.3 337.011L507.404 337.162C507.519 337.359 507.715 337.579 507.933 337.788C508.785 338.564 509.774 339.04 510.936 339.341C511.005 339.364 511.074 339.364 511.143 339.376C511.741 342.738 512.167 345.069 513.456 347.515C515.435 351.271 520.612 356.083 521.981 357.729C522.257 358.054 522.487 358.332 522.706 358.575L522.039 363.595L522.211 362.297C522.211 362.297 520.244 363.549 519.945 364.048C519.645 364.546 519.093 367.062 518.679 367.885C517.356 368.082 515.262 370.54 513.755 372.14C513.628 372.268 513.513 372.395 513.398 372.511C513.398 372.511 513.387 372.523 513.375 372.534C513.26 372.65 513.145 372.766 513.03 372.871C512.972 372.929 512.903 372.986 512.846 373.044C511.385 374.343 499.707 383.247 497.947 384.835C497.107 385.589 496.819 386.331 496.75 387.085C496.75 387.085 495.208 388.858 495.485 390.783C495.761 392.708 495.749 430.979 495.83 433.008C495.91 435.025 495.116 435.605 494.679 436.567C494.242 437.529 493.851 439.454 493.851 439.454C493.851 439.454 491.906 440.764 491.642 441.066C491.366 441.367 491.354 442.921 491.354 442.921C491.354 442.921 484.497 451.106 483.991 451.859C483.485 452.613 483.542 453.482 484.267 454.074C478.71 461.065 460.428 484.055 459.393 485.041C458.185 486.2 456.988 486.966 455.424 487.545C455.228 487.615 454.986 487.684 454.71 487.765C454.641 487.789 454.561 487.8 454.48 487.823C454.423 487.835 454.365 487.847 454.308 487.87C454.215 487.893 454.135 487.905 454.043 487.928C453.985 487.939 453.928 487.951 453.87 487.963C453.778 487.986 453.686 487.997 453.594 488.021C453.525 488.032 453.468 488.044 453.399 488.055C453.307 488.079 453.203 488.09 453.099 488.113C453.042 488.113 452.973 488.137 452.915 488.148C452.812 488.171 452.72 488.183 452.616 488.206C452.559 488.206 452.49 488.229 452.432 488.241C452.329 488.264 452.225 488.276 452.122 488.299C452.076 488.299 452.03 488.31 451.983 488.322C451.868 488.345 451.753 488.357 451.65 488.38C451.65 488.38 451.65 488.38 451.627 488.38C451.374 488.426 451.121 488.461 450.879 488.496C450.844 488.496 450.81 488.496 450.764 488.507C450.672 488.519 450.58 488.531 450.488 488.554C450.442 488.554 450.396 488.565 450.361 488.577C450.281 488.577 450.212 488.6 450.131 488.612C450.074 488.612 450.028 488.623 449.97 488.635C449.901 488.635 449.844 488.658 449.786 488.658C449.751 488.658 449.717 488.658 449.682 488.67C449.613 488.67 449.544 488.693 449.498 488.693C449.498 488.693 449.475 488.693 449.464 488.693C449.257 488.716 449.142 488.739 449.142 488.739L437.671 434.341C437.257 432.393 435.335 431.234 433.368 431.756L432.379 432.022L425.901 401.31C425.556 399.664 424.118 398.597 422.496 398.62C422.208 397.276 421.817 395.397 421.598 394.342C421.23 392.58 418.308 389.635 416.686 388.661C415.075 387.687 406.826 378.552 405.687 373.195C404.559 367.839 404.087 365.636 403.926 364.824C403.754 364.013 403.086 361.961 402.051 362.239C401.947 362.262 401.798 362.309 401.602 362.355L397.656 343.642C397.38 342.356 396.39 342.112 395.447 343.109L386.83 352.222C385.886 353.219 385.334 355.097 385.61 356.384L387.647 366.053C387.405 366.123 387.198 366.169 387.083 366.204C386.047 366.482 386.266 368.65 386.438 369.462C386.611 370.274 387.071 372.476 388.199 377.833C389.326 383.189 385.599 395.49 384.54 397.171C383.482 398.841 382.043 402.945 382.412 404.707C382.63 405.762 383.033 407.652 383.309 408.985C381.848 409.785 380.997 411.455 381.342 413.101L387.819 443.813L386.83 444.08C384.862 444.602 383.597 446.596 383.999 448.544L444.425 735.213C444.839 737.161 446.76 738.32 448.739 737.798L449.728 737.532L453.192 753.972C453.606 755.919 455.527 757.079 457.494 756.557L459.37 756.059H497.141C497.141 756.059 500.834 752.963 501.375 752.963C501.686 752.963 502.629 753.995 503.366 754.876C503.458 755.259 503.699 755.885 504.298 756.024C504.321 756.047 504.332 756.059 504.332 756.059H545.302C545.302 756.059 548.995 752.963 549.536 752.963C550.077 752.963 552.493 756.059 552.493 756.059H576.596C576.596 756.059 577.609 754.806 577.747 754.157C577.873 753.508 576.895 746.146 576.895 746.146C577.229 743.386 577.609 739.607 577.609 736.697C577.609 734.645 577.355 731.48 577.033 728.396C576.999 728.025 576.953 727.642 576.918 727.271C576.826 726.459 576.746 725.659 576.654 724.894C577.16 724.581 577.413 723.874 577.447 723.178C577.493 722.413 577.804 716.779 577.839 716.106C577.873 715.434 577.586 714.75 577.586 714.75C578.138 713.405 578.379 711.898 578.333 711.445C578.241 710.576 576.769 708.559 576.93 705.672C577.091 702.785 581.9 657.488 579.047 638.88C576.193 620.271 575.469 615.217 575.906 612.48C576.343 609.744 576.631 607.147 576.147 605.559C575.664 603.971 573.432 600.075 573.881 597.049C574.341 594.023 579.795 539.486 580.048 529.677C580.128 526.802 579.714 522.709 579.116 518.373C580.577 516.483 581.532 513.26 581.566 512.657C581.612 511.788 577.712 486.108 577.079 483.232C576.585 480.96 575.756 478.85 575.423 476.369C575.388 476.09 575.342 475.812 575.319 475.511C575.285 475.117 575.262 474.711 575.262 474.282C575.262 474.166 575.262 474.004 575.285 473.807C575.285 473.783 575.285 473.749 575.285 473.725C575.296 473.54 575.319 473.343 575.342 473.099C575.342 473.076 575.342 473.064 575.342 473.041C575.4 472.508 575.492 471.847 575.595 471.082C575.733 470.073 575.917 468.879 576.136 467.546C579.806 465.262 586.456 460.868 589.045 459.279C592.623 457.679 598.755 456.114 603.668 454.491C603.633 454.503 603.599 454.514 603.599 454.514C603.599 454.514 607.062 457.216 608.017 457.424C608.96 457.633 612.09 455.709 613.758 455.082C615.438 454.468 619.361 452.949 619.545 452.056C619.579 451.894 619.522 451.059 619.384 449.819C621.248 450.062 623.48 450.109 623.583 449.657C623.756 448.903 623.756 445.332 624.538 443.605C625.321 441.889 627.714 435.767 626.839 432.95L626.816 432.88ZM546.591 721.787C546.326 721.405 545.785 721.335 545.394 721.625C545.003 721.915 544.899 722.46 545.164 722.842L545.348 723.109C544.589 723.631 543.519 724.419 542.288 725.346L542.127 725.115C541.862 724.732 541.321 724.662 540.93 724.952C540.539 725.242 540.435 725.787 540.7 726.17L540.884 726.425C539.906 727.167 538.882 727.955 537.87 728.72L537.674 728.43C537.409 728.048 536.869 727.978 536.478 728.268C536.075 728.558 535.983 729.103 536.247 729.485L536.455 729.787C535.339 730.622 534.28 731.398 533.394 732.013L533.21 731.746C532.945 731.364 532.405 731.294 532.014 731.584C531.622 731.874 531.519 732.419 531.783 732.801L531.922 733.01C530.955 733.648 530.115 734.262 529.379 734.83C529.379 734.552 529.356 734.274 529.333 733.972C529.333 733.949 529.333 733.926 529.333 733.891C529.275 732.894 529.183 731.816 529.091 730.691C529.091 730.691 529.091 730.691 529.091 730.68C528.93 728.825 528.723 726.877 528.527 725.126C529.08 724.859 529.39 724.152 529.471 723.445C529.563 722.68 530.265 717.068 530.345 716.396C530.426 715.724 530.196 715.016 530.196 715.016C530.196 715.016 530.161 715.016 530.104 715.016C530.805 713.683 531.208 712.095 531.197 711.631C531.174 710.761 529.885 708.605 530.288 705.73C530.69 702.854 539.273 657.905 538.008 639.042C536.742 620.167 536.443 615.054 537.11 612.341C537.778 609.64 538.284 607.055 537.927 605.431C537.766 604.655 537.248 603.31 536.834 601.802C536.788 601.663 536.754 601.513 536.719 601.362C536.65 601.072 536.581 600.782 536.512 600.492C536.489 600.4 536.478 600.307 536.455 600.214C536.397 599.878 536.339 599.53 536.305 599.194C536.305 599.136 536.305 599.09 536.293 599.032C536.259 598.661 536.247 598.29 536.259 597.93C536.259 597.907 536.259 597.884 536.259 597.849C536.27 597.466 536.316 597.095 536.397 596.736C536.42 596.666 536.443 596.562 536.466 596.435C536.466 596.411 536.466 596.4 536.466 596.377C536.489 596.249 536.524 596.087 536.558 595.901C536.558 595.878 536.558 595.855 536.57 595.832C536.65 595.437 536.742 594.951 536.857 594.359C536.857 594.313 536.869 594.278 536.88 594.232C536.938 593.93 537.007 593.606 537.064 593.258C537.087 593.154 537.11 593.038 537.133 592.922C538.79 603.959 540.297 613.304 541.206 617.466C544.071 630.59 547.661 656.699 548.247 680.072C548.823 703.446 548.892 707.341 548.523 708.779C548.155 710.216 546.165 712.385 546.924 714.263C547.085 714.645 547.258 714.982 547.454 715.283C547.454 715.283 547.085 716.002 547.039 716.721C547.005 717.439 546.786 721.289 546.763 721.671C546.763 721.741 546.775 721.833 546.809 721.961C546.786 721.984 546.763 722.007 546.752 722.019L546.591 721.799V721.787ZM549.501 356.036C549.444 354.749 549.398 353.497 549.363 352.303L549.501 356.036ZM507.807 329.904C507.807 329.904 507.83 329.892 507.818 329.869C507.761 329.857 507.933 329.741 507.968 329.707C507.968 329.707 507.968 329.707 507.979 329.707C508.025 329.695 508.117 329.649 508.324 329.568C508.462 329.521 508.624 329.452 508.808 329.37C508.877 329.649 508.957 329.927 509.038 330.205L507.692 330.17C507.692 330.17 507.703 330.112 507.715 330.101C507.738 330.031 507.772 329.973 507.795 329.915L507.807 329.904ZM508.658 337.104L508.451 336.895C508.382 336.814 508.324 336.686 508.255 336.593L508.163 336.443C508.209 336.512 508.152 336.373 508.14 336.338L508.048 336.025C507.91 335.62 507.853 335.156 507.784 334.738C507.657 333.88 507.577 333.057 507.507 332.35C507.507 332.257 507.507 332.176 507.507 332.083L509.728 332.408L509.659 332.153C509.728 332.385 509.797 332.605 509.878 332.837C510.361 334.993 510.694 336.825 510.971 338.414C510.073 338.135 509.222 337.648 508.669 337.092L508.658 337.104ZM458.806 504.843C461.153 503.069 462.614 501.864 463.627 499.985C464.639 498.107 465.191 495.951 466.123 494.745C466.917 493.725 490.135 475.291 496.98 469.865C496.98 469.865 497.832 470.131 498.568 469.865C498.89 469.749 500.547 468.149 502.296 466.398C502.618 471.372 502.813 474.606 502.779 475.07C502.641 477.528 499.385 484.45 498.844 486.467C498.637 487.221 498.119 490.351 497.509 494.27H497.44C497.44 494.27 497.44 494.478 497.417 494.826C496.405 501.284 495.174 509.585 494.645 513.005C493.759 518.628 495.715 519.66 496.14 519.66H496.9C496.865 523.498 496.877 526.79 496.957 528.622C497.291 535.486 500.558 601.072 502.296 614.463C504.033 627.842 505.402 654.288 503.998 677.742C502.606 701.185 502.342 705.092 501.858 706.506C501.375 707.921 499.212 709.915 499.811 711.863C500.029 712.558 500.294 713.127 500.662 713.579C500.512 713.556 500.351 713.544 500.202 713.521C500.202 713.521 499.788 714.205 499.695 714.924C499.603 715.642 499.132 719.48 499.086 719.863C499.063 720.048 499.143 720.477 499.511 720.976C499.212 721.335 498.902 721.683 498.579 721.996L498.418 721.776C498.338 721.66 498.234 721.59 498.119 721.532C498.119 721.335 498.096 721.149 498.062 720.964L453.433 509.226C453.744 508.913 454.066 508.588 454.388 508.24C455.354 507.232 456.448 506.605 458.795 504.82L458.806 504.843ZM582.878 445.599C582.084 445.865 581.037 445.923 579.875 445.877C580.853 440.497 581.601 436.498 581.624 436.324C581.958 434.585 582.303 432.845 582.625 431.118C582.648 430.967 582.682 430.828 582.705 430.677C583.027 428.95 583.35 427.222 583.66 425.53C583.798 424.776 583.936 424.023 584.074 423.257C584.074 423.246 584.074 423.234 584.074 423.223C585.766 424.973 589.896 429.089 593.003 430.909C591.668 431.501 591.564 433.912 592.266 435.187C589.528 438.955 585.248 444.81 582.866 445.599H582.878ZM606.556 453.378C606.556 453.378 606.671 453.332 606.717 453.309C606.717 453.309 606.648 453.343 606.556 453.378Z" fill="#4d52ad2e"/>
</g>
<path d="M378.603 365.578C379.892 365.23 380.663 363.885 380.318 362.587L374.784 341.683C374.439 340.384 373.438 340.141 372.54 341.138L364.417 350.286C363.532 351.283 363.083 353.172 363.428 354.471L366.557 366.274C366.903 367.572 368.237 368.349 369.526 368.001L378.603 365.555V365.578Z" fill="#2A3BB7"/>
<path d="M396.298 386.922C394.63 385.948 385.875 376.766 384.448 371.386C383.021 366.007 382.435 363.792 382.216 362.981C381.997 362.169 381.215 360.106 380.191 360.384C379.167 360.662 372.816 362.366 372.816 362.366C372.816 362.366 366.465 364.071 365.441 364.349C364.418 364.627 364.763 366.807 364.981 367.618C365.2 368.43 365.787 370.644 367.213 376.024C368.64 381.403 365.591 393.762 364.625 395.444C363.658 397.125 362.45 401.24 362.922 403.014C363.394 404.788 364.475 408.869 364.475 408.869L383.781 403.675L403.086 398.481C403.086 398.481 402.005 394.4 401.533 392.626C401.062 390.852 397.978 387.896 396.31 386.922H396.298Z" fill="#C6D5F2"/>
<path d="M415.132 433.274C415.65 435.234 414.499 437.239 412.555 437.761L375.669 447.686C373.725 448.207 371.735 447.048 371.217 445.089L362.312 411.455C361.794 409.495 362.945 407.49 364.889 406.968L401.775 397.044C403.719 396.522 405.71 397.681 406.227 399.641L415.132 433.274Z" fill="#D0DEF5"/>
<path d="M496.923 742.053C497.441 744.012 496.29 746.018 494.346 746.54L457.46 756.464C455.516 756.986 453.525 755.826 453.008 753.867L444.103 720.233C443.585 718.274 444.735 716.268 446.68 715.747L483.565 705.822C485.51 705.3 487.5 706.46 488.018 708.419L496.923 742.053Z" fill="#2C385E"/>
<path d="M496.094 720.79C496.612 722.749 495.461 724.755 493.517 725.277L447.646 737.613C445.702 738.134 443.711 736.975 443.193 735.016L366.914 447.036C366.396 445.077 367.547 443.071 369.491 442.549L415.362 430.214C417.307 429.692 419.297 430.851 419.815 432.811L496.094 720.79Z" fill="#546FFF"/>
<path d="M474.039 702.286C474.557 704.245 473.406 706.251 471.462 706.773L457.633 710.495C455.688 711.016 453.698 709.857 453.18 707.898L387.255 458.989C386.738 457.03 387.888 455.024 389.832 454.503L403.662 450.781C405.606 450.259 407.596 451.419 408.114 453.378L474.05 702.286H474.039Z" fill="#2A3BB7"/>
<path d="M437.015 497.759L437.395 499.174C437.395 499.174 436.44 502.13 435.669 503.243C434.898 504.356 433.173 506.188 432.988 508.843C432.793 511.498 433.23 512.414 433.759 512.808C434.289 513.191 435.531 513.005 436.014 512.611C436.498 512.228 437.36 509.956 438.12 509.515C438.891 509.075 439.754 508.113 440.662 507.104C441.571 506.095 442.63 505.458 444.885 503.672C447.14 501.887 448.532 500.681 449.441 498.791C450.35 496.901 450.787 494.733 451.65 493.528C452.513 492.322 482.944 467.024 482.944 467.024L469.011 450.654C469.011 450.654 445.518 482.606 444.367 483.766C443.217 484.925 442.066 485.702 440.536 486.281C439.006 486.861 434.312 487.464 434.312 487.464L437.038 497.748L437.015 497.759Z" fill="#FFD2BA"/>
<path d="M467.516 452.671C467.516 452.671 471.681 455.801 475.615 460.01C479.55 464.218 481.126 468.543 481.126 468.543C481.126 468.543 481.989 468.821 482.714 468.543C483.427 468.265 490.48 460.497 490.63 460.3C490.779 460.103 492.47 460.636 493.299 460.056C494.127 459.477 501.375 453.228 501.421 448.799C501.467 444.358 498.223 393.635 498.223 393.635L476.306 385.38C476.306 385.38 474.856 387.166 475.247 389.102C475.627 391.038 477.744 429.483 477.928 431.512C478.123 433.541 477.353 434.121 476.973 435.083C476.593 436.045 476.306 437.982 476.306 437.982C476.306 437.982 474.442 439.292 474.177 439.605C473.924 439.906 473.993 441.471 473.993 441.471C473.993 441.471 467.596 449.691 467.125 450.457C466.653 451.222 466.768 452.091 467.527 452.683L467.516 452.671Z" fill="#154747"/>
<path d="M434.289 487.464L437.015 497.748L437.395 499.162L439.811 486.49C437.89 487 434.289 487.453 434.289 487.453V487.464Z" fill="#FFB1A4"/>
<path d="M468.459 749.751H496.209L502.18 719.434C502.18 719.434 501.824 717.022 500.811 716.802C499.799 716.581 498.085 721.08 495.703 722.668C493.321 724.257 486.073 730.425 482.829 732.593C479.584 734.761 477.72 736.79 476.789 737.3C475.857 737.81 474.994 738.969 474.557 739.978C474.119 740.986 468.447 749.74 468.447 749.74L468.459 749.751Z" fill="#663733"/>
<path d="M502.227 718.842C500.305 718.842 498.775 721.544 497.245 723.19C495.715 724.836 482.438 734.494 480.344 735.746C478.261 736.998 477.974 738.262 478.445 740.001C478.929 741.74 480.608 745.891 480.344 749.763H527.826C527.826 749.763 528.596 741.74 528.309 736.523C528.021 731.306 525.674 718.842 525.674 718.842H502.238H502.227Z" fill="#854842"/>
<path d="M494.38 749.751H527.837C527.837 749.751 528.608 741.729 528.32 736.511C528.24 734.981 527.975 732.825 527.641 730.541C520.991 733.891 499.557 736.72 494.38 749.74V749.751Z" fill="#663733"/>
<path d="M527.101 727.051C522.947 727.851 509.578 731.816 507.553 749.751H508.715C510.717 732.453 523.361 728.871 527.273 728.175C527.216 727.793 527.158 727.422 527.089 727.051H527.101Z" fill="#663733"/>
<path d="M479.676 749.751C479.676 749.751 479.561 746.806 478.756 743.549C477.95 740.291 476.869 739.271 476.443 738.691C476.018 738.111 474.717 737.671 473.786 738.25C472.854 738.83 469.667 740.349 466.94 741.288C464.213 742.227 456.022 743.537 455.446 749.74H479.676V749.751Z" fill="#854842"/>
<path d="M501.743 728.094C501.743 728.894 501.111 729.532 500.317 729.532C499.523 729.532 498.89 728.894 498.89 728.094C498.89 727.294 499.523 726.656 500.317 726.656C501.111 726.656 501.743 727.294 501.743 728.094Z" fill="#4A2825"/>
<path d="M500.949 727.48C501.237 727.862 501.168 728.407 500.788 728.697C500.409 728.987 499.868 728.917 499.58 728.535L495.128 722.668C494.84 722.286 494.909 721.741 495.289 721.451C495.669 721.161 496.209 721.231 496.497 721.613L500.949 727.48Z" fill="#BD8255"/>
<path d="M497.072 730.923C497.072 731.723 496.439 732.361 495.645 732.361C494.852 732.361 494.219 731.723 494.219 730.923C494.219 730.123 494.852 729.486 495.645 729.486C496.439 729.486 497.072 730.123 497.072 730.923Z" fill="#4A2825"/>
<path d="M496.29 730.309C496.577 730.691 496.508 731.236 496.129 731.526C495.749 731.816 495.208 731.746 494.921 731.364L490.859 726.007C490.572 725.625 490.641 725.08 491.02 724.79C491.4 724.5 491.941 724.57 492.228 724.952L496.29 730.309Z" fill="#BD8255"/>
<path d="M492.401 733.764C492.401 734.564 491.768 735.201 490.974 735.201C490.18 735.201 489.547 734.564 489.547 733.764C489.547 732.964 490.18 732.326 490.974 732.326C491.768 732.326 492.401 732.964 492.401 733.764Z" fill="#4A2825"/>
<path d="M491.619 733.149C491.906 733.532 491.837 734.077 491.457 734.366C491.078 734.656 490.537 734.587 490.249 734.204L486.568 729.346C486.28 728.964 486.349 728.419 486.729 728.129C487.108 727.839 487.649 727.909 487.937 728.291L491.619 733.149Z" fill="#BD8255"/>
<path d="M487.73 736.592C487.73 737.392 487.097 738.03 486.303 738.03C485.509 738.03 484.876 737.392 484.876 736.592C484.876 735.792 485.521 735.155 486.303 735.155C487.085 735.155 487.73 735.792 487.73 736.592Z" fill="#4A2825"/>
<path d="M486.948 735.99C487.235 736.372 487.166 736.917 486.786 737.207C486.407 737.497 485.866 737.427 485.578 737.045L482.288 732.685C482 732.303 482.069 731.758 482.449 731.468C482.829 731.178 483.369 731.248 483.657 731.63L486.948 735.99Z" fill="#BD8255"/>
<path d="M483.07 739.433C483.07 740.233 482.437 740.871 481.643 740.871C480.85 740.871 480.217 740.233 480.217 739.433C480.217 738.633 480.861 737.995 481.643 737.995C482.426 737.995 483.07 738.633 483.07 739.433Z" fill="#4A2825"/>
<path d="M482.276 738.818C482.564 739.201 482.495 739.746 482.115 740.036C481.736 740.326 481.195 740.256 480.907 739.874L477.996 736.013C477.709 735.63 477.778 735.085 478.158 734.795C478.537 734.506 479.078 734.575 479.366 734.958L482.276 738.818Z" fill="#BD8255"/>
<path d="M455.435 749.752L455.009 754.482C455.009 754.482 455.228 755.954 456.298 755.954H497.072C497.072 755.954 500.581 752.847 501.134 752.847C501.686 752.847 504.263 755.954 504.263 755.954H528.366C528.366 755.954 529.31 754.69 529.402 754.041C529.494 753.392 528.113 745.995 528.113 745.995C528.113 745.995 513.467 746.656 510.522 747.085C507.576 747.514 502.687 749.74 499.741 749.74H455.446L455.435 749.752Z" fill="#BD8255"/>
<path d="M516.608 749.751H544.359L550.33 719.434C550.33 719.434 549.973 717.022 548.961 716.802C547.948 716.581 546.234 721.08 543.852 722.668C541.471 724.257 534.223 730.425 530.978 732.593C527.734 734.761 525.87 736.79 524.938 737.3C524.006 737.81 523.143 738.969 522.706 739.978C522.269 740.986 516.597 749.74 516.597 749.74L516.608 749.751Z" fill="#663733"/>
<path d="M550.387 718.842C548.466 718.842 546.936 721.544 545.405 723.19C543.875 724.836 530.598 734.494 528.504 735.746C526.422 736.998 526.134 738.262 526.606 740.001C527.089 741.74 528.769 745.891 528.504 749.763H575.986C575.986 749.763 576.757 741.74 576.469 736.523C576.182 731.306 573.835 718.842 573.835 718.842H550.399H550.387Z" fill="#854842"/>
<path d="M575.25 727.051C571.097 727.851 557.728 731.816 555.703 749.751H556.865C558.867 732.453 571.499 728.871 575.423 728.175C575.365 727.793 575.307 727.422 575.25 727.051Z" fill="#663733"/>
<path d="M527.826 749.751C527.826 749.751 527.711 746.806 526.905 743.549C526.1 740.291 525.018 739.271 524.593 738.691C524.167 738.111 522.867 737.671 521.935 738.25C521.003 738.83 517.816 740.349 515.089 741.288C512.363 742.227 504.171 743.537 503.596 749.74H527.826V749.751Z" fill="#854842"/>
<path d="M549.904 728.094C549.904 728.894 549.271 729.532 548.477 729.532C547.684 729.532 547.051 728.894 547.051 728.094C547.051 727.294 547.695 726.656 548.477 726.656C549.26 726.656 549.904 727.294 549.904 728.094Z" fill="#4A2825"/>
<path d="M549.11 727.48C549.398 727.862 549.329 728.407 548.949 728.697C548.569 728.987 548.029 728.917 547.741 728.535L543.288 722.668C543.001 722.286 543.07 721.741 543.45 721.451C543.829 721.161 544.37 721.231 544.658 721.613L549.11 727.48Z" fill="#BD8255"/>
<path d="M545.233 730.923C545.233 731.723 544.6 732.361 543.806 732.361C543.012 732.361 542.379 731.723 542.379 730.923C542.379 730.123 543.024 729.486 543.806 729.486C544.588 729.486 545.233 730.123 545.233 730.923Z" fill="#4A2825"/>
<path d="M544.439 730.309C544.726 730.691 544.657 731.236 544.278 731.526C543.898 731.816 543.357 731.746 543.069 731.364L539.008 726.007C538.721 725.625 538.79 725.08 539.169 724.79C539.549 724.5 540.09 724.57 540.377 724.952L544.439 730.309Z" fill="#BD8255"/>
<path d="M540.561 733.764C540.561 734.564 539.928 735.201 539.135 735.201C538.341 735.201 537.708 734.564 537.708 733.764C537.708 732.964 538.341 732.326 539.135 732.326C539.928 732.326 540.561 732.964 540.561 733.764Z" fill="#4A2825"/>
<path d="M539.779 733.149C540.067 733.532 539.998 734.077 539.618 734.366C539.238 734.656 538.698 734.587 538.41 734.204L534.728 729.346C534.441 728.964 534.51 728.419 534.889 728.129C535.269 727.839 535.81 727.909 536.098 728.291L539.779 733.149Z" fill="#BD8255"/>
<path d="M535.89 736.592C535.89 737.392 535.258 738.03 534.464 738.03C533.67 738.03 533.037 737.392 533.037 736.592C533.037 735.792 533.67 735.155 534.464 735.155C535.258 735.155 535.89 735.792 535.89 736.592Z" fill="#4A2825"/>
<path d="M535.108 735.99C535.396 736.372 535.327 736.917 534.947 737.207C534.567 737.497 534.027 737.427 533.739 737.045L530.449 732.685C530.161 732.303 530.23 731.758 530.61 731.468C530.989 731.178 531.53 731.248 531.818 731.63L535.108 735.99Z" fill="#BD8255"/>
<path d="M531.219 739.433C531.219 740.233 530.587 740.871 529.793 740.871C528.999 740.871 528.366 740.233 528.366 739.433C528.366 738.633 528.999 737.995 529.793 737.995C530.587 737.995 531.219 738.633 531.219 739.433Z" fill="#4A2825"/>
<path d="M530.437 738.818C530.725 739.201 530.656 739.746 530.276 740.036C529.896 740.326 529.356 740.256 529.068 739.874L526.157 736.013C525.869 735.63 525.939 735.085 526.318 734.795C526.698 734.506 527.239 734.575 527.526 734.958L530.437 738.818Z" fill="#BD8255"/>
<path d="M503.596 749.752L503.17 754.482C503.17 754.482 503.389 755.954 504.459 755.954H545.233C545.233 755.954 548.753 752.847 549.294 752.847C549.835 752.847 552.424 755.954 552.424 755.954H576.527C576.527 755.954 577.47 754.69 577.562 754.041C577.654 753.392 576.274 745.995 576.274 745.995C576.274 745.995 561.628 746.656 558.682 747.085C555.737 747.514 550.847 749.74 547.902 749.74H503.607L503.596 749.752Z" fill="#BD8255"/>
<path d="M482.921 493.064C482.921 493.064 483.623 520.692 484.348 527.59C485.072 534.489 491.952 600.376 494.438 613.825C496.923 627.274 499.741 653.836 499.649 677.394C499.546 700.941 499.511 704.872 499.097 706.286C498.694 707.701 496.647 709.718 497.348 711.666C498.05 713.613 499.12 714.576 501.421 714.773C503.711 714.97 523.35 716.639 525.502 716.825C527.653 717.01 528.769 712.303 528.7 711.422C528.631 710.541 527.216 708.385 527.469 705.498C527.711 702.611 533.808 657.464 531.496 638.497C529.195 619.541 528.608 614.393 529.126 611.68C529.643 608.967 530 606.37 529.563 604.736C529.126 603.101 527.02 598.985 527.549 595.982C528.09 592.968 535.108 538.593 535.649 528.75C536.19 518.906 531.611 494.409 531.611 494.409L482.944 493.052L482.921 493.064Z" fill="#3F4E7A"/>
<path d="M534.798 537.77H517.402C517.402 537.77 516.458 578.499 528.251 601.083C527.699 599.414 527.262 597.547 527.538 595.982C527.987 593.513 532.796 556.412 534.798 537.77Z" fill="#2C385E"/>
<path d="M526.905 545.7C526.422 555.937 523.247 575.45 523.062 578.824C522.878 582.197 524.34 598.035 524.34 598.035C524.34 598.035 524.259 591.194 524.19 589.548C524.109 587.902 523.707 579.832 523.764 578.754C523.822 577.664 526.031 559.346 526.353 556.865C526.675 554.384 526.917 545.7 526.917 545.7H526.905Z" fill="#2C385E"/>
<path d="M526.514 602.22C526.514 602.22 523.822 604.249 523.028 604.179C522.234 604.11 516.781 601.176 511.626 597.316C516.286 603.681 523.822 607.657 524.501 607.356C525.18 607.055 526.514 602.22 526.514 602.22Z" fill="#2C385E"/>
<path d="M523.431 601.084L520.796 595.472C520.796 595.472 519.197 598.243 523.431 601.084Z" fill="#2C385E"/>
<path d="M524.132 715.515L523.58 715.364C524.259 712.825 524.063 710.019 523.937 708.35C523.914 708.083 523.902 707.84 523.891 707.631C523.856 707.04 524.374 701.625 525.283 692.084C526.571 678.588 528.355 660.119 528.769 651.946C529.448 638.81 525.329 611.843 525.283 611.564C525.283 611.564 526.617 616.515 527.434 623.158C528.539 632.178 529.735 644.375 529.344 651.969C528.918 660.154 527.147 678.635 525.858 692.13C525.064 700.443 524.431 707.017 524.466 707.585C524.466 707.793 524.5 708.025 524.512 708.292C524.639 710.008 524.846 712.871 524.132 715.503V715.515Z" fill="#2C385E"/>
<path d="M497.82 713.323C497.82 713.323 497.441 714.019 497.395 714.738C497.349 715.457 497.084 719.318 497.061 719.7C497.038 720.083 497.464 721.567 500.328 722.494C503.193 723.422 513.065 725.219 516.792 725.485C520.52 725.74 525.985 725.254 526.629 725.056C527.262 724.859 527.561 724.059 527.619 723.283C527.665 722.517 528.056 716.871 528.102 716.199C528.148 715.526 527.872 714.819 527.872 714.819C527.872 714.819 514.514 715.352 497.832 713.323H497.82Z" fill="#6077BA"/>
<path d="M513.122 725.045C514.583 725.254 515.872 725.416 516.792 725.486C517.483 725.532 518.23 725.555 519.001 725.555L519.738 714.842C517.989 714.808 516.01 714.75 513.835 714.645L513.122 725.045Z" fill="#9CB1F0"/>
<path d="M514.928 725.288C515.642 725.381 516.274 725.439 516.792 725.485C517.022 725.497 517.264 725.52 517.505 725.52L518.242 714.807C517.425 714.784 516.562 714.761 515.653 714.726L514.928 725.288Z" fill="#D94F4F"/>
<path d="M511.948 497.469C511.948 497.469 514.963 524.935 516.251 531.752C517.54 538.57 529.919 603.634 533.509 616.828C537.099 630.022 542.138 656.247 544.002 679.725C545.866 703.202 546.165 707.109 545.866 708.57C545.566 710.031 543.703 712.187 544.577 714.077C545.451 715.967 546.59 716.836 548.891 716.836H573.052C575.215 716.836 575.929 712.06 575.791 711.179C575.653 710.297 574.065 708.28 574.065 705.382C574.065 702.483 576.366 656.977 572.477 638.277C568.588 619.576 567.587 614.509 567.875 611.75C568.163 608.991 568.312 606.393 567.737 604.794C567.162 603.194 564.723 599.286 564.999 596.237C565.275 593.188 567.737 538.407 567.438 528.552C567.139 518.698 560.535 494.675 560.535 494.675L511.925 497.458L511.948 497.469Z" fill="#3F4E7A"/>
<path d="M560.178 546.187C560.546 556.424 559.016 576.134 559.108 579.519C559.2 582.904 561.984 598.556 561.984 598.556C561.984 598.556 561.34 591.739 561.121 590.116C560.903 588.481 559.833 580.481 559.787 579.392C559.752 578.302 560.431 559.867 560.535 557.363C560.65 554.859 560.166 546.187 560.166 546.187H560.178Z" fill="#2C385E"/>
<path d="M564.504 602.533C564.504 602.533 561.984 604.782 561.202 604.782C560.42 604.782 554.736 602.324 549.271 598.916C554.448 604.852 562.283 608.191 562.928 607.831C563.572 607.472 564.504 602.544 564.504 602.544V602.533Z" fill="#2C385E"/>
<path d="M561.34 601.663L558.245 596.307C558.245 596.307 556.876 599.205 561.34 601.663Z" fill="#2C385E"/>
<path d="M571.603 715.631L571.039 715.526C571.51 712.941 571.073 710.158 570.809 708.5C570.763 708.234 570.728 708.002 570.705 707.793C570.625 707.213 570.682 701.764 570.797 692.188C570.958 678.635 571.188 660.073 570.924 651.899C570.498 638.752 564.136 612.225 564.078 611.958C564.078 611.958 565.827 616.782 567.185 623.332C569.037 632.225 571.257 644.271 571.499 651.876C571.764 660.061 571.545 678.635 571.372 692.199C571.269 700.559 571.2 707.156 571.269 707.712C571.303 707.909 571.338 708.153 571.372 708.408C571.637 710.1 572.086 712.941 571.603 715.631Z" fill="#2C385E"/>
<path d="M545.152 715.074C545.152 715.074 544.818 715.793 544.818 716.512V721.485C544.818 721.868 545.348 723.317 548.27 724.048C551.192 724.767 561.167 725.88 564.906 725.88C568.646 725.88 574.065 725.01 574.686 724.767C575.307 724.523 575.549 723.7 575.549 722.935V715.839C575.549 715.167 575.227 714.471 575.227 714.471C575.227 714.471 561.938 715.932 545.152 715.074Z" fill="#6077BA"/>
<path d="M561.225 725.717C562.698 725.833 563.998 725.903 564.918 725.903C565.609 725.903 566.356 725.868 567.127 725.821V715.074C565.378 715.167 563.4 715.236 561.237 715.294V725.717H561.225Z" fill="#9CB1F0"/>
<path d="M563.043 725.833C563.756 725.868 564.4 725.891 564.907 725.891C565.137 725.891 565.378 725.891 565.62 725.891V715.155C564.803 715.19 563.94 715.225 563.031 715.248V725.845L563.043 725.833Z" fill="#D94F4F"/>
<path d="M506.863 527.544L516.01 530.292L532.566 523.092L516.562 533.318L506.863 527.544Z" fill="#2C385E"/>
<path d="M516.286 532.251L516.079 532.065C515.906 531.903 511.902 528.181 511.131 523.927C510.372 519.764 508.658 500.403 508.635 500.206L509.21 500.159C509.233 500.356 510.947 519.683 511.695 523.822C512.339 527.347 515.446 530.628 516.263 531.439L517.586 530.071C517.448 528.46 516.125 512.449 515.25 499.058L515.826 499.023C516.734 513.063 518.15 529.99 518.173 530.152V530.28L516.286 532.239V532.251Z" fill="#2C385E"/>
<path d="M521.958 532.181C521.958 532.181 531.312 529.213 536.581 528.773C536.581 528.773 530.46 526.095 521.958 532.181Z" fill="#2C385E"/>
<path d="M513.018 533.086L504.827 530.663C504.827 530.663 507.668 530.558 508.635 530.663C509.601 530.767 513.018 533.086 513.018 533.086Z" fill="#2C385E"/>
<path d="M551.676 495.197C551.676 495.197 559.212 518.35 560.167 540.1C560.167 540.1 560.742 514.223 553.356 495.093L551.665 495.209L551.676 495.197Z" fill="#2C385E"/>
<path d="M552.309 525.121C552.309 525.121 560.558 524.495 564.723 522.396C564.723 522.396 560.811 527.637 552.309 525.121Z" fill="#2C385E"/>
<path d="M554.713 528.274C554.713 528.274 560.616 527.822 563.607 526.315C563.607 526.315 560.811 530.071 554.713 528.274Z" fill="#2C385E"/>
<path d="M560.949 493.238L518.794 495.255V492.843C518.794 491.928 518.058 491.186 517.149 491.186H503.043C502.134 491.186 501.398 491.928 501.398 492.843V496.078L486.786 496.774C486.786 496.774 486.453 498.177 486.016 499.997C486.073 500.02 486.131 500.055 486.188 500.066C486.625 500.171 492.309 500.878 501.398 501.214C501.456 502.084 502.157 502.768 503.032 502.768H517.137C517.989 502.768 518.679 502.119 518.759 501.284C523.2 501.156 527.964 500.924 532.957 500.519C559.051 498.397 561.283 496.217 561.49 495.788C561.605 495.545 561.743 495.301 561.835 495C561.524 494.304 561.225 493.69 560.937 493.226L560.949 493.238Z" fill="#2C385E"/>
<path d="M486.81 488.983C486.81 488.983 485.648 496.855 485.579 497.33C485.51 497.817 485.371 498.641 486.2 498.849C487.017 499.058 506.875 501.423 532.968 499.313C559.062 497.203 561.294 495.012 561.501 494.583C561.708 494.154 561.984 493.748 561.915 492.983C561.846 492.218 558.97 486.281 558.97 486.281L486.821 488.971L486.81 488.983Z" fill="#ED9258"/>
<path d="M503.044 490.223H517.149C518.058 490.223 518.794 490.965 518.794 491.881V500.171C518.794 501.087 518.058 501.829 517.149 501.829H503.044C502.135 501.829 501.398 501.087 501.398 500.171V491.881C501.398 490.965 502.135 490.223 503.044 490.223Z" fill="#404040"/>
<path d="M539.627 489.334L534.297 489.8L535.267 501.084L540.597 500.619L539.627 489.334Z" fill="#3F4E7A"/>
<path d="M491.086 489.65L490.116 500.935L495.435 501.399L496.405 490.115L491.086 489.65Z" fill="#3F4E7A"/>
<path d="M526.525 338.947C526.525 338.947 526.261 361.682 532.289 376.778H499.131L500.961 353.115L526.537 338.935L526.525 338.947Z" fill="#FFD2BA"/>
<path d="M526.525 338.947L500.949 353.126L500.225 362.575C501.766 364.14 503.285 365.566 503.964 365.833C505.609 366.471 509.164 365.949 511.454 364.361C520.06 358.367 524.639 350.309 526.687 345.741C526.491 341.625 526.514 338.959 526.514 338.959L526.525 338.947Z" fill="#FFB1A4"/>
<path d="M486.43 330.889C488.489 338.344 488.627 341.845 490.813 345.625C493.011 349.393 498.441 354.228 499.902 355.886C501.364 357.544 501.962 358.054 502.514 358.1C503.055 358.146 506.667 357.915 509.268 356.767C511.868 355.619 525.26 342.773 525.939 341.254C526.617 339.735 528.056 329.637 528.056 329.637C528.056 329.637 533.394 321.348 531.07 309.197C528.734 297.047 517.367 288.282 501.881 291.517C486.395 294.763 478.043 309.673 486.418 330.889H486.43Z" fill="#FFD2BA"/>
<path d="M518.656 309.046C518.656 309.046 519.254 316.119 519.358 316.919C519.461 317.707 521.958 320.269 522.337 321.579C522.717 322.889 523.292 327.944 523.292 327.944L526.203 325.881L533.221 324.292C533.221 324.292 535.626 317.069 534.027 308.328L518.667 309.046H518.656Z" fill="#2E2E2E"/>
<path d="M483.105 303.389C483.105 303.389 482.748 300.687 483.105 299.528C483.461 298.368 493.908 290.16 507.381 289.58C520.853 289.001 528.734 293.128 532.865 300.084C536.984 307.041 538.399 319.087 538.111 325.173C538.111 325.173 536.477 324.072 535.718 323.226C534.66 330.507 529.85 340.895 526.917 349.381L526.571 338.715L526.802 337.521L529.862 328.339L527.618 316.374L510.165 304.734L483.105 303.377V303.389Z" fill="#2E2E2E"/>
<path d="M525.904 326.518C525.904 326.518 525.939 322.959 526.111 321.962C526.284 320.965 526.698 320.061 527.86 319.098C529.022 318.136 530.161 317.58 530.84 317.962C531.519 318.345 533.072 321.035 533.302 322.727C533.544 324.42 531.45 333.185 530.806 334.669C530.15 336.153 526.56 337.811 526.388 337.602C526.215 337.393 525.904 326.518 525.904 326.518Z" fill="#FFD2BA"/>
<path d="M507.818 323.631C505.77 325.255 505.69 327.828 505.828 328.443C505.966 329.069 510.2 329.185 512.167 328.188C514.135 327.191 514.652 324.895 514.549 324.153C513.433 323.063 511.385 321.939 507.818 323.631Z" fill="white"/>
<path d="M513.847 325.394C513.847 327.028 512.443 328.35 510.717 328.35C508.991 328.35 507.588 327.028 507.588 325.394C507.588 323.759 508.991 322.437 510.717 322.437C512.443 322.437 513.847 323.759 513.847 325.394Z" fill="#2E2E2E"/>
<path d="M505.126 328.35C505.126 328.35 506.104 324.084 509.578 323.307C513.053 322.53 514.56 324.93 514.56 324.93L515.573 323.631C515.573 323.631 513.018 321.278 509.417 322.229C505.851 323.179 504.919 326.831 505.114 328.339L505.126 328.35Z" fill="#1C1C1C"/>
<path d="M499.523 321.452C499.523 321.452 501.03 322.889 502.975 322.449C504.919 322.008 509.187 318.391 515.239 319.087C515.239 319.087 511.661 317.452 508.152 318.032C502.998 318.878 499.523 321.452 499.523 321.452Z" fill="#1C1C1C"/>
<path d="M488.179 330.576C488.179 330.576 488.42 331.596 489.755 332.303C491.584 333.277 494.518 332.477 494.668 331.55C494.817 330.634 494.357 329.324 493.586 328.709C492.815 328.095 489.042 327.272 488.179 330.564V330.576Z" fill="white"/>
<path d="M494.311 329.707C494.633 330.947 493.966 332.199 492.827 332.501C491.688 332.802 490.491 332.049 490.169 330.808C489.847 329.567 490.514 328.315 491.653 328.014C492.804 327.712 493.989 328.466 494.311 329.707Z" fill="#2E2E2E"/>
<path d="M494.668 330.356C494.668 330.356 493.114 327.771 490.675 328.455C488.466 329.081 488.34 331.423 488.34 331.423L487.051 330.924C487.051 330.924 487.534 327.991 490.652 327.585C493.46 327.214 494.472 329.034 494.645 330.368L494.668 330.356Z" fill="#1C1C1C"/>
<path d="M493.183 323.573C493.183 323.573 492.459 324.698 490.997 324.791C489.536 324.884 486.925 324.617 484.716 325.881L484.52 325.185C484.52 325.185 486.269 323.736 488.432 323.4C491.239 322.959 493.183 323.585 493.183 323.585V323.573Z" fill="#1C1C1C"/>
<path d="M498.407 342.182C498.407 342.182 497.912 341.521 497.406 341.277C496.911 341.034 495.508 340.153 495.646 339.77C495.784 339.388 499.051 339.028 500.8 339.248C502.549 339.469 503.745 339.99 503.561 340.408C503.377 340.837 500.823 341.996 498.407 342.17V342.182Z" fill="#FFB8A3"/>
<path d="M495.519 328.35C495.519 328.35 496.163 331.446 496.163 335.063C496.163 338.68 495.634 338.993 495.841 339.758C496.048 340.512 497.371 340.698 497.901 341.347C498.43 341.996 498.626 342.726 498.626 342.726C498.626 342.726 497.533 341.648 496.658 341.3C495.795 340.953 494.944 340.651 494.898 339.805C494.852 338.958 496.014 335.538 495.519 328.35Z" fill="#DB8472"/>
<path d="M500.328 340.906C500.328 340.906 499.258 340.558 499.672 340.083C500.087 339.596 502.273 340.582 502.273 340.582L500.328 340.918V340.906Z" fill="#DB8472"/>
<path d="M497.026 347.781C497.026 347.781 496.739 347.862 496.762 348.106C496.785 348.349 497.417 348.628 497.935 348.558C498.453 348.489 500.949 347.665 503.826 346.541C506.702 345.416 509.797 344.164 511.005 343.329C512.201 342.506 512.524 341.845 512.374 341.671C512.225 341.497 511.5 341.59 511.362 341.671C511.224 341.753 510.798 342.518 510.579 342.715C510.361 342.912 506.472 345.184 501.628 346.958C499.143 347.874 497.809 348.071 497.705 348.013C497.601 347.967 497.176 347.596 497.026 347.77V347.781Z" fill="#D67061"/>
<path d="M504.378 350.958C504.378 350.958 502.94 349.95 502.043 350.112C501.157 350.274 500.765 350.808 500.927 350.958C501.088 351.121 501.858 352.083 504.378 350.958Z" fill="#FFB8A3"/>
<path d="M531.519 323.55C531.519 323.55 530.311 321.104 529.609 321.405C528.919 321.718 528.539 323.689 528.608 324.234C528.677 324.791 529.494 325.556 529.402 325.846C529.298 326.136 528.378 325.718 528.171 326.17C527.964 326.623 528.424 327.399 528.424 327.944C528.424 328.489 528.343 330.611 528.343 331.701C528.343 332.118 530.437 331.26 530.805 329.904C531.231 328.35 531.829 324.965 531.519 323.55Z" fill="#FFB1A4"/>
<path d="M487.833 311.319C487.833 311.319 491.458 322.043 498.625 324.988C499.005 322.669 498.625 314.356 498.625 314.356C498.625 314.356 501.858 318.113 505.333 318.994C505.333 318.994 504.896 317.788 504.585 317.139C510.073 318.762 515.572 320.223 515.572 320.223C515.572 320.223 514.583 316.965 513.456 314.403C513.456 314.403 519.139 318.994 520.474 319.759C520.474 319.759 520.853 319.029 520.669 317.823C520.669 317.823 528.723 322.31 528.723 321.997C528.723 321.684 526.951 316.907 526.951 316.907C526.951 316.907 522.268 293.232 512.409 292.27C502.549 291.308 483.369 301.684 483.369 301.684C483.369 301.684 475.557 312.745 481.264 326.854C481.264 326.854 482.127 324.304 482.415 322.75C482.829 325.672 486.487 328.327 486.487 328.327C486.487 328.327 485.901 321.116 486.154 317.892C486.154 317.892 487.396 319.597 488.547 320.2L487.833 311.296V311.319Z" fill="#2E2E2E"/>
<path d="M508.946 374.76H517.436L535.73 361.462C535.73 361.462 543.404 364.963 552.309 368.117C561.214 371.271 568.002 371.549 569.647 373.276C571.292 375.004 568.278 400.823 565.356 424.023C562.433 447.222 557.682 475.117 557.774 476.218C557.866 477.319 561.524 482.571 561.524 484.229C561.524 485.887 559.511 489.655 557.325 489.748C555.127 489.841 526.445 495.359 507.623 494.629C488.8 493.887 487.155 491.962 487.155 491.962C487.155 491.962 484.509 487.916 484.417 486.351C484.325 484.786 488.524 474.931 488.524 474.931C488.524 474.931 479.792 405.82 478.883 399.374C477.974 392.928 476.052 386.111 477.421 384.093C478.791 382.064 495.277 370.262 495.277 370.262L508.934 374.772L508.946 374.76Z" fill="white"/>
<path d="M510.672 383.108C510.672 383.943 509.993 384.627 509.164 384.627C508.336 384.627 507.657 383.943 507.657 383.108C507.657 382.273 508.336 381.589 509.164 381.589C509.993 381.589 510.672 382.273 510.672 383.108Z" fill="#B8C1E3"/>
<path d="M512.179 419.501C512.179 420.336 511.5 421.02 510.672 421.02C509.843 421.02 509.165 420.336 509.165 419.501C509.165 418.666 509.843 417.982 510.672 417.982C511.5 417.982 512.179 418.666 512.179 419.501Z" fill="#B8C1E3"/>
<path d="M513.686 457.193C513.686 458.027 513.007 458.711 512.179 458.711C511.35 458.711 510.671 458.027 510.671 457.193C510.671 456.358 511.35 455.674 512.179 455.674C513.007 455.674 513.686 456.358 513.686 457.193Z" fill="#B8C1E3"/>
<path d="M511.948 490.861C511.948 491.696 511.27 492.38 510.441 492.38C509.613 492.38 508.934 491.696 508.934 490.861C508.934 490.026 509.613 489.342 510.441 489.342C511.27 489.342 511.948 490.026 511.948 490.861Z" fill="#B8C1E3"/>
<path d="M526.986 350.321L527.342 354.274C527.342 354.274 508.98 374.621 508.934 374.76C508.888 374.899 523.684 387.78 524.236 387.745C524.788 387.699 525.329 387.282 525.559 386.69C525.789 386.088 536.984 362.343 537.064 361.787C537.156 361.23 537.156 359.99 536.524 359.804C535.879 359.619 532.129 356.581 531.657 355.804C531.185 355.016 530.311 352.581 529.897 352.025C529.482 351.468 526.974 350.332 526.974 350.332L526.986 350.321Z" fill="white"/>
<path d="M508.945 374.76C508.945 374.76 504.01 369.276 500.086 364.407L500.386 360.488C500.386 360.488 498.487 361.74 498.211 362.251C497.935 362.761 497.521 365.277 497.164 366.111C496.796 366.946 494.196 369.021 494.104 369.752C494.012 370.494 499.27 387.792 499.592 388.024C499.914 388.256 500.639 388.116 500.961 387.745C501.283 387.374 508.957 374.76 508.957 374.76H508.945Z" fill="white"/>
<path d="M500.006 388.395C499.776 388.395 499.569 388.348 499.419 388.232C499.339 388.174 499.086 388 496.417 379.143C495.818 377.16 494.633 373.172 494.093 371.062C493.908 370.343 494.07 369.879 494.093 369.74C494.093 369.74 494.461 370.285 494.622 370.899C495.611 374.737 499.258 386.806 499.776 387.815C499.995 387.919 500.524 387.815 500.743 387.56C501.007 387.235 505.655 379.641 508.704 374.621C508.75 374.552 508.831 374.505 508.911 374.494C509.003 374.494 509.084 374.517 509.141 374.586C509.878 375.352 523.166 386.922 524.271 387.467C524.708 387.409 525.134 387.05 525.306 386.586C525.387 386.377 526.606 383.769 528.746 379.189C531.266 373.81 534.809 366.216 536.213 363.108C536.57 362.32 537.053 361.879 537.076 361.775C537.076 361.775 537.11 362.448 536.662 363.433C535.557 365.879 533.13 371.108 529.241 379.421C527.446 383.259 525.904 386.574 525.824 386.783C525.559 387.467 524.938 387.966 524.259 388.012C523.523 388.012 510.994 376.975 509.003 375.178C507.68 377.346 501.467 387.56 501.157 387.919C500.892 388.221 500.42 388.395 500.006 388.395Z" fill="#C6D5F2"/>
<path d="M531.668 355.793C531.668 355.793 533.371 362.042 533.371 373.554C533.371 403.942 525.271 422.585 523.925 434.816C522.579 447.048 533.728 513.33 534.291 515.069C534.855 516.808 535.235 518.57 539.124 518.57H563.837C566.448 518.57 568.025 512.31 568.025 511.44C568.025 510.57 562.698 484.774 561.915 481.876C561.121 478.977 559.81 476.369 559.603 472.89C559.396 469.412 563.906 434.816 563.906 434.816C563.906 434.816 569.555 373.659 569.106 372.975C568.646 372.291 567.242 371.166 565.804 370.656C564.366 370.146 546.314 363.897 541.793 361.775C537.26 359.642 533.705 356.071 531.668 355.793Z" fill="#206A6A"/>
<path d="M545.601 518.582C543.518 507.823 532.094 446.619 533.21 435.141C533.59 431.234 534.671 426.596 535.914 421.228C538.548 409.913 542.149 394.412 541.896 373.728C541.827 368.511 541.425 364.372 540.999 361.393C540.78 361.277 540.573 361.172 540.366 361.056C540.803 364.036 541.252 368.291 541.31 373.74C541.563 394.354 537.973 409.808 535.35 421.101C534.096 426.492 533.014 431.153 532.623 435.095C531.507 446.549 542.828 507.313 545.014 518.593H545.589L545.601 518.582Z" fill="#154747"/>
<path d="M562.663 382.574C556.45 394.922 555.496 422.075 563.917 434.828C564.424 431.187 564.918 427.547 565.355 424.011C567.265 408.823 569.221 392.51 569.877 382.574H562.663Z" fill="#154747"/>
<path d="M508.025 424.405C506.564 403.467 506.702 385.577 506.84 378.273L506.276 379.166C506.138 386.98 506.081 404.313 507.473 424.44C509.371 451.755 509.406 467.21 509.118 472.044C508.969 474.688 508.313 480.287 507.783 484.786C507.3 488.867 507.036 491.186 507.07 491.557C507.139 492.403 507.714 494.652 507.737 494.745L508.267 494.606C508.267 494.606 507.68 492.299 507.611 491.51C507.588 491.174 507.945 488.102 508.324 484.844C508.853 480.334 509.509 474.734 509.659 472.079C509.946 467.233 509.912 451.743 508.014 424.405H508.025Z" fill="#C6D5F2"/>
<path d="M513.49 494.745C513.467 494.652 512.892 492.391 512.823 491.557C512.788 491.186 513.065 488.867 513.536 484.786C514.065 480.287 514.721 474.687 514.871 472.044C515.147 467.209 515.124 451.755 513.226 424.44C511.718 402.794 511.914 384.383 512.052 377.566C512.305 377.821 512.478 377.844 512.593 378.041C512.455 385.183 512.305 403.246 513.778 424.405C515.676 451.743 515.699 467.233 515.423 472.079C515.274 474.734 514.606 480.345 514.077 484.844C513.697 488.102 513.341 491.174 513.364 491.51C513.433 492.31 514.008 494.583 514.019 494.606L513.49 494.745Z" fill="#C6D5F2"/>
<path d="M554.345 466.537L559.925 475.29C559.764 474.537 559.649 473.748 559.603 472.902C559.569 472.404 559.649 471.267 559.776 469.691L554.345 466.537Z" fill="#154747"/>
<path d="M567.967 372.326C567.185 372.337 564.09 374.297 560.938 389.832C557.785 405.368 561.076 416.684 561.893 418.968C562.709 421.24 563.745 419.791 564.976 421.043C566.207 422.284 573.743 429.738 577.102 430.295H586.962C586.962 430.295 599.503 446.932 599.848 447.628C600.193 448.323 606.418 448.938 606.567 448.184C606.705 447.431 606.498 443.836 607.188 442.109C607.879 440.382 609.927 434.237 608.903 431.408C607.879 428.579 601.022 419.675 599.238 417.46C597.455 415.246 589.505 403.096 586.088 397.507C582.659 391.919 573.547 377.068 572.661 375.757C571.775 374.447 569.785 372.314 567.967 372.337V372.326Z" fill="#206A6A"/>
<path d="M561.352 419.825C561.237 419.825 561.133 419.756 561.099 419.64C560.65 418.388 557.325 406.319 560.684 389.774C562.997 378.378 565.574 372.407 568.358 372.059C568.496 372.036 568.646 372.152 568.669 372.302C568.692 372.453 568.577 372.592 568.427 372.615C567.012 372.801 564.194 375.282 561.225 389.902C557.843 406.585 561.444 418.968 561.616 419.466C561.674 419.605 561.593 419.768 561.455 419.825C561.421 419.825 561.386 419.837 561.363 419.837L561.352 419.825Z" fill="#154747"/>
<path d="M570.763 398.69C570.763 398.69 570.958 398.713 571.28 398.783C571.603 398.852 572.074 398.933 572.627 399.061C573.179 399.177 573.8 399.362 574.49 399.525C575.169 399.687 575.883 399.896 576.607 400.104C577.321 400.336 578.034 400.545 578.701 400.742C579.035 400.835 579.357 400.951 579.668 401.043C579.978 401.136 580.266 401.241 580.531 401.333C581.589 401.704 582.291 402.041 582.291 402.041L582.256 402.191C582.256 402.191 581.497 402.156 580.381 401.983C580.105 401.936 579.794 401.901 579.472 401.832C579.15 401.774 578.816 401.716 578.471 401.646C578.126 401.577 577.769 401.507 577.401 401.414C577.045 401.31 576.688 401.206 576.32 401.101C575.595 400.881 574.882 400.661 574.214 400.417C573.881 400.313 573.559 400.174 573.259 400.046C572.96 399.919 572.673 399.791 572.419 399.675C571.384 399.212 570.74 398.783 570.74 398.783L570.774 398.69H570.763Z" fill="#154747"/>
<path d="M572.949 402.493C572.949 402.493 573.053 402.493 573.237 402.493C573.409 402.504 573.662 402.516 573.95 402.551C574.238 402.574 574.571 402.655 574.916 402.713C575.273 402.783 575.63 402.875 575.998 402.991C576.723 403.223 577.448 403.455 577.965 403.71C578.495 403.953 578.84 404.185 578.84 404.185L578.805 404.336C578.805 404.336 578.402 404.394 577.816 404.348C577.517 404.336 577.183 404.29 576.815 404.243C576.458 404.197 576.078 404.104 575.71 403.988C575.342 403.872 574.974 403.745 574.629 403.617C574.295 403.478 573.985 403.316 573.731 403.165C573.214 402.875 572.915 402.585 572.915 402.585L572.949 402.493Z" fill="#154747"/>
<path d="M573.961 405.507C573.961 405.507 574.191 405.414 574.491 405.403C574.64 405.391 574.813 405.403 574.985 405.403C575.158 405.414 575.342 405.449 575.515 405.496C575.86 405.588 576.193 405.762 576.423 405.948C576.665 406.122 576.815 406.319 576.815 406.319L576.78 406.469C576.78 406.469 576.561 406.562 576.262 406.597C575.963 406.632 575.572 406.609 575.192 406.504C575.008 406.458 574.824 406.388 574.663 406.307C574.502 406.226 574.364 406.122 574.249 406.017C574.019 405.82 573.904 405.6 573.904 405.6L573.938 405.507H573.961Z" fill="#154747"/>
<path d="M580.335 426.283C580.335 426.283 583.914 419.246 596.075 418.759C596.075 418.759 587.239 420.394 584.719 426.283H580.335Z" fill="#154747"/>
<path d="M576.642 430.631C575.342 432.08 568.934 443.06 565.678 444.161C562.422 445.274 554.575 442.92 552.654 442.851C550.733 442.781 547.672 443.929 546.211 444.068C544.75 444.207 543.519 444.799 542.783 444.984C542.058 445.17 539.952 446.086 539.308 446.039C538.664 445.993 538.307 446.317 538.434 447.094C538.572 447.883 539.573 448.706 540.309 448.706C540.309 448.706 539.078 448.938 537.755 449.216C536.432 449.494 531.68 450.596 530.403 451.338C529.126 452.068 528.021 452.996 527.987 454.004C527.941 455.013 528.712 455.662 529.218 455.616C529.724 455.569 532.6 455.245 534.924 455.152C537.26 455.059 539.446 455.569 541.275 455.337C541.275 455.337 542.23 456.995 542.46 457.366C542.69 457.737 544.29 458.653 544.29 458.653C544.29 458.653 545.889 461.784 546.395 462.108C546.901 462.433 548.086 462.978 548.086 462.978C548.086 462.978 548.949 464.404 549.225 464.775C549.502 465.146 550.295 465.691 550.802 465.83C551.308 465.969 554.541 466.978 555.346 467.186C556.152 467.395 556.853 467.766 557.728 467.557C558.591 467.349 569.187 459.987 572.569 457.819C577.965 455.337 589.471 452.938 593.129 450.271C591.346 437.332 584.995 430.156 583.672 429.286L576.642 430.619V430.631Z" fill="#FFD2BA"/>
<path d="M534.936 455.152C534.936 455.152 535.212 455.14 535.684 455.117C535.925 455.106 536.213 455.094 536.535 455.071C536.869 455.059 537.249 455.071 537.651 455.071C538.065 455.071 538.503 455.082 538.974 455.094C539.435 455.106 539.929 455.129 540.436 455.117C540.689 455.117 540.942 455.117 541.195 455.117C541.436 455.117 541.713 455.071 541.977 455.059C542.506 455.024 543.047 454.978 543.588 454.943C544.669 454.862 545.751 454.793 546.775 454.723C547.281 454.688 547.776 454.653 548.236 454.619C548.731 454.619 549.145 454.642 549.559 454.653C549.973 454.688 550.353 454.735 550.687 454.781C551.02 454.816 551.308 454.885 551.538 454.92C552.01 455.001 552.274 455.082 552.274 455.082V455.152C552.274 455.152 551.987 455.14 551.515 455.117C551.273 455.117 550.986 455.082 550.664 455.082C550.33 455.082 549.973 455.071 549.571 455.059C549.168 455.071 548.731 455.094 548.271 455.106C547.81 455.152 547.316 455.198 546.809 455.245C546.303 455.291 545.774 455.349 545.245 455.395C544.715 455.43 544.175 455.453 543.634 455.488C543.093 455.523 542.552 455.546 542.012 455.581C541.747 455.581 541.482 455.604 541.206 455.604C540.942 455.604 540.677 455.593 540.424 455.581C539.4 455.558 538.445 455.43 537.64 455.372C536.834 455.291 536.156 455.256 535.684 455.233C535.212 455.21 534.936 455.198 534.936 455.198V455.152Z" fill="#ED8879"/>
<path d="M544.301 458.665C544.301 458.665 544.761 458.677 545.452 458.793C545.797 458.851 546.188 458.932 546.602 459.036C547.028 459.14 547.465 459.268 547.902 459.43C548.121 459.511 548.34 459.581 548.558 459.697C548.662 459.743 548.765 459.801 548.869 459.848C549.007 459.917 549.064 459.975 549.156 460.033C549.329 460.161 549.502 460.277 549.663 460.393C549.824 460.52 549.962 460.659 550.088 460.787C550.353 461.03 550.526 461.262 550.664 461.413C550.79 461.575 550.859 461.679 550.859 461.679L550.721 461.795C550.721 461.795 550.641 461.726 550.48 461.598C550.411 461.54 550.307 461.459 550.203 461.378C550.1 461.285 549.962 461.216 549.835 461.111C549.697 461.019 549.571 460.903 549.41 460.798C549.237 460.694 549.064 460.59 548.88 460.485C548.8 460.439 548.685 460.358 548.616 460.335C548.524 460.288 548.42 460.253 548.328 460.207C548.144 460.114 547.925 460.045 547.718 459.964C547.293 459.813 546.867 459.662 546.464 459.523C546.062 459.384 545.693 459.245 545.371 459.129C544.727 458.885 544.301 458.688 544.301 458.688V458.665Z" fill="#ED8879"/>
<path d="M548.109 462.966C548.109 462.966 548.477 462.932 548.961 463.001C549.455 463.071 550.065 463.256 550.64 463.523C551.216 463.79 551.745 464.137 552.125 464.462C552.504 464.775 552.711 465.077 552.711 465.077L552.677 465.158C552.677 465.158 552.32 465.192 551.825 465.1C551.342 465.019 550.721 464.845 550.146 464.578C549.57 464.311 549.041 463.963 548.661 463.639C548.282 463.326 548.075 463.013 548.075 463.013L548.098 462.955L548.109 462.966Z" fill="#ED8879"/>
<path d="M540.32 448.683C540.32 448.683 541.068 448.601 542.184 448.497C542.736 448.451 543.392 448.381 544.094 448.323C544.439 448.288 544.796 448.254 545.164 448.219C545.532 448.196 545.877 448.115 546.234 448.057C546.579 447.975 546.924 447.894 547.246 447.79C547.615 447.686 547.96 447.604 548.293 447.512C548.65 447.442 548.995 447.384 549.317 447.326C549.64 447.257 549.95 447.245 550.226 447.21C550.502 447.187 550.767 447.141 550.997 447.141C551.227 447.141 551.434 447.141 551.595 447.152C551.918 447.152 552.113 447.152 552.113 447.152V447.245C552.113 447.245 551.929 447.268 551.607 447.315C551.446 447.338 551.25 447.361 551.032 447.396C550.813 447.43 550.56 447.5 550.295 447.57C550.031 447.639 549.732 447.686 549.432 447.79C549.133 447.883 548.811 447.975 548.489 448.068C548.167 448.196 547.822 448.312 547.488 448.439C547.304 448.509 547.12 448.578 546.924 448.613L546.349 448.706C545.958 448.741 545.567 448.775 545.198 448.775C544.83 448.775 544.462 448.775 544.117 448.775C543.415 448.775 542.759 448.775 542.207 448.775C541.091 448.775 540.343 448.752 540.343 448.752V448.659L540.32 448.683Z" fill="#ED8879"/>
<path d="M584.558 422.968C584.558 422.968 592.427 423.988 596.373 425.31C599.25 426.272 599.94 430.492 600.826 434.353C601.321 436.509 603.357 446.921 602.264 447.535C601.171 448.161 599.526 447.535 599.526 447.535L584.558 422.956V422.968Z" fill="#154747"/>
<path d="M574.502 433.715C574.502 433.715 576.573 431.466 578.69 431.188C580.818 430.909 585.685 433.124 587.526 439.616C589.378 446.109 590.011 451.906 589.931 451.929C589.861 451.964 586.847 453.053 586.847 453.053C586.847 453.053 590.46 455.766 591.426 455.975C592.381 456.184 595.396 454.248 597.041 453.633C598.686 453.007 602.517 451.488 602.655 450.596C602.793 449.703 598.962 428.359 596.765 426.77C594.579 425.182 586.18 423.733 584.385 423.733C582.59 423.733 576.285 428.822 574.985 429.425C573.685 430.017 573.72 432.44 574.491 433.715H574.502Z" fill="#206A6A"/>
<path d="M497.164 366.1C494.023 379.293 492.194 389.89 494.023 408.707C494.84 417.112 499.109 428.822 499.132 436.521C499.155 444.219 495.703 513.353 495.703 514.651C495.703 515.95 494.415 518.593 492.252 518.593H483.047C482.61 518.593 480.608 517.55 481.184 511.904C481.759 506.258 483.485 487.267 483.922 485.238C484.359 483.209 487.235 476.253 487.235 473.783C487.235 471.314 476.823 389.879 476.628 388.047C476.432 386.215 475.719 384.708 477.398 383.119C479.078 381.519 490.261 372.581 491.653 371.27C493.045 369.972 495.588 366.343 497.199 366.1H497.164Z" fill="#206A6A"/>
<path d="M491.883 421.46C491.205 417.055 490.503 412.487 490.284 408.684C489.26 391.247 490.192 381.276 492.528 370.308C492.252 370.621 491.999 370.888 491.768 371.12C489.559 381.775 488.708 391.711 489.709 408.719C489.939 412.556 490.641 417.136 491.32 421.553C492.137 426.851 492.976 432.324 492.988 436.509C492.999 442.005 491.412 481.227 490.468 504.658C490.204 511.104 490.008 516.031 489.916 518.582H490.491C490.595 515.985 490.79 510.942 491.044 504.681C491.987 481.25 493.586 442.016 493.563 436.509C493.563 432.277 492.7 426.782 491.883 421.46Z" fill="#154747"/>
<path d="M496.152 439.883C497.289 439.883 498.211 438.954 498.211 437.807C498.211 436.661 497.289 435.732 496.152 435.732C495.014 435.732 494.092 436.661 494.092 437.807C494.092 438.954 495.014 439.883 496.152 439.883Z" fill="#154747"/>
<path d="M495.91 439.593C497.047 439.593 497.969 438.664 497.969 437.518C497.969 436.372 497.047 435.442 495.91 435.442C494.773 435.442 493.851 436.372 493.851 437.518C493.851 438.664 494.773 439.593 495.91 439.593Z" fill="#ED9258"/>
<path d="M495.565 437.518C495.565 437.773 495.358 437.981 495.116 437.981C494.874 437.981 494.656 437.773 494.656 437.518C494.656 437.263 494.863 437.054 495.116 437.054C495.369 437.054 495.565 437.263 495.565 437.518Z" fill="#154747"/>
<path d="M497.176 437.518C497.176 437.773 496.968 437.981 496.715 437.981C496.462 437.981 496.267 437.773 496.267 437.518C496.267 437.263 496.474 437.054 496.715 437.054C496.957 437.054 497.176 437.263 497.176 437.518Z" fill="#154747"/>
<path d="M494.771 469.853C495.909 469.853 496.831 468.924 496.831 467.778C496.831 466.632 495.909 465.702 494.771 465.702C493.634 465.702 492.712 466.632 492.712 467.778C492.712 468.924 493.634 469.853 494.771 469.853Z" fill="#154747"/>
<path d="M496.601 467.488C496.601 468.636 495.68 469.563 494.541 469.563C493.402 469.563 492.482 468.636 492.482 467.488C492.482 466.34 493.402 465.413 494.541 465.413C495.68 465.413 496.601 466.34 496.601 467.488Z" fill="#ED9258"/>
<path d="M494.185 467.488C494.185 467.743 493.978 467.952 493.736 467.952C493.494 467.952 493.276 467.743 493.276 467.488C493.276 467.233 493.483 467.024 493.736 467.024C493.989 467.024 494.185 467.233 494.185 467.488Z" fill="#154747"/>
<path d="M495.796 467.488C495.796 467.743 495.589 467.952 495.335 467.952C495.082 467.952 494.887 467.743 494.887 467.488C494.887 467.233 495.094 467.024 495.335 467.024C495.577 467.024 495.796 467.233 495.796 467.488Z" fill="#154747"/>
<path d="M493.39 499.835C494.528 499.835 495.45 498.906 495.45 497.759C495.45 496.613 494.528 495.684 493.39 495.684C492.253 495.684 491.331 496.613 491.331 497.759C491.331 498.906 492.253 499.835 493.39 499.835Z" fill="#154747"/>
<path d="M495.22 497.47C495.22 498.617 494.3 499.545 493.161 499.545C492.021 499.545 491.101 498.617 491.101 497.47C491.101 496.322 492.021 495.394 493.161 495.394C494.3 495.394 495.22 496.322 495.22 497.47Z" fill="#ED9258"/>
<path d="M492.815 497.47C492.815 497.725 492.608 497.933 492.366 497.933C492.125 497.933 491.906 497.725 491.906 497.47C491.906 497.215 492.113 497.006 492.366 497.006C492.62 497.006 492.815 497.215 492.815 497.47Z" fill="#154747"/>
<path d="M494.426 497.47C494.426 497.725 494.219 497.933 493.966 497.933C493.713 497.933 493.517 497.725 493.517 497.47C493.517 497.215 493.724 497.006 493.966 497.006C494.207 497.006 494.426 497.215 494.426 497.47Z" fill="#154747"/>
<path d="M502.629 323.4C502.629 323.4 502.399 323.504 502.181 323.678C502.089 323.759 501.778 324.13 501.64 324.687C501.548 324.965 501.525 325.301 501.525 325.66C501.525 325.846 501.56 326.008 501.583 326.217C501.629 326.449 501.675 326.681 501.721 326.924C501.905 327.886 502.089 328.976 502.583 329.915C502.641 329.997 502.745 330.182 502.756 330.194L502.917 330.356C502.917 330.356 502.998 330.414 503.044 330.437C503.205 330.553 503.504 330.715 503.769 330.831C504.321 331.075 504.942 331.26 505.586 331.399C506.886 331.666 508.313 331.794 509.763 331.666C511.224 331.538 512.697 331.214 514.123 330.576C514.871 330.298 515.55 329.95 516.24 329.591L517.207 328.953C517.506 328.721 517.782 328.466 518.069 328.211C518.553 327.655 518.932 327.04 519.059 326.368C519.105 326.02 519.128 325.695 519.105 325.278C519.105 324.872 519.105 324.478 519.059 324.118C519.047 323.747 518.978 323.4 518.898 323.063C518.875 322.889 518.806 322.75 518.76 322.6C518.714 322.461 518.656 322.298 518.564 322.113C518.242 321.359 517.943 320.837 517.575 320.594C517.483 320.536 517.379 320.513 517.287 320.455C517.184 320.455 517.011 320.432 516.988 320.408C516.631 320.432 516.24 320.42 515.906 320.466C515.239 320.524 514.572 320.594 513.893 320.698C512.547 320.884 511.27 321.081 510.119 321.324C508.946 321.533 507.899 321.823 506.955 322.032C506.035 322.287 505.23 322.518 504.562 322.704C503.274 323.156 502.526 323.423 502.526 323.423L502.606 323.376L502.629 323.4ZM502.008 322.171C502.008 322.171 502.768 321.858 504.102 321.324C505.46 320.861 507.404 320.223 509.797 319.724C510.994 319.458 512.282 319.214 513.674 319.017C514.353 318.913 515.09 318.832 515.872 318.762C516.263 318.727 516.608 318.739 516.976 318.727C517.322 318.762 517.506 318.808 517.77 318.855C518.012 318.959 518.277 319.052 518.484 319.214C519.393 319.84 519.726 320.826 519.991 321.487C520.106 321.811 520.324 322.368 520.359 322.774C520.416 323.214 520.451 323.655 520.428 324.084C520.428 324.524 520.393 324.93 520.347 325.324C520.324 325.695 520.255 326.182 520.14 326.623C519.887 327.527 519.323 328.281 518.702 328.883C517.425 330.043 515.86 330.727 514.411 331.318C512.95 331.944 511.362 332.373 509.832 332.536C508.29 332.698 506.783 332.617 505.379 332.373C504.677 332.234 503.999 332.06 503.354 331.805C503.021 331.666 502.733 331.55 502.388 331.307C502.307 331.249 502.204 331.179 502.135 331.121L501.974 330.959C501.79 330.739 501.755 330.646 501.64 330.483C500.973 329.289 500.777 328.141 500.547 327.179C500.49 326.936 500.443 326.704 500.386 326.484C500.351 326.24 500.282 325.962 500.282 325.73C500.259 325.243 500.282 324.779 500.397 324.385C500.593 323.574 500.938 322.982 501.421 322.576C501.79 322.287 501.928 322.24 501.939 322.229L502.02 322.182L502.008 322.171Z" fill="#3F4E7A"/>
<path d="M485.487 328.234L482.173 328.153L482.944 329.973L486.258 330.449L485.487 328.234Z" fill="#2F3B5C"/>
<path d="M484.44 327.678C484.44 327.678 484.417 327.701 484.359 327.747C484.325 327.782 484.152 327.898 484.209 327.909C484.209 327.921 484.209 327.933 484.198 327.944C484.175 328.002 484.152 328.06 484.129 328.13C484.071 328.257 484.037 328.466 484.002 328.686C483.933 329.138 483.933 329.741 484.037 330.391C484.152 331.109 484.279 331.933 484.451 332.79C484.555 333.208 484.624 333.672 484.785 334.077L484.888 334.402C484.888 334.402 484.957 334.576 484.911 334.506L485.015 334.657C485.084 334.75 485.153 334.877 485.222 334.959L485.441 335.167C486.073 335.77 487.028 336.303 488.029 336.57C489.042 336.883 490.135 336.767 491.159 336.373C491.722 336.153 492.206 335.909 492.654 335.596C493.08 335.26 493.494 334.877 493.747 334.414C494.311 333.486 494.219 332.396 494.184 331.179C494.15 330.622 494.104 330.066 494.035 329.533C494.012 329.266 493.931 329.034 493.885 328.779C493.816 328.501 493.759 328.223 493.69 327.944C493.563 327.423 493.402 326.959 493.218 326.669C493.172 326.599 493.126 326.518 493.091 326.507C493.057 326.46 493.022 326.425 492.988 326.425C492.976 326.425 492.953 326.414 492.942 326.391C492.942 326.391 493.08 326.414 493.011 326.391H492.965H492.873L492.493 326.321C491.699 326.275 490.675 326.298 489.847 326.379C488.996 326.472 488.202 326.576 487.523 326.727C486.833 326.843 486.269 327.052 485.786 327.179C485.314 327.318 484.98 327.504 484.727 327.596C484.486 327.701 484.359 327.747 484.359 327.747L484.463 327.678H484.44ZM483.623 326.576L483.68 326.541C483.68 326.541 483.818 326.472 484.094 326.333C484.359 326.217 484.75 325.973 485.268 325.788C485.786 325.602 486.407 325.359 487.155 325.197C487.891 324.988 488.731 324.86 489.651 324.733C490.595 324.628 491.515 324.536 492.769 324.617L493.149 324.675H493.241L493.287 324.698L493.391 324.721H493.437C493.54 324.779 493.644 324.826 493.747 324.872C493.966 324.965 494.127 325.104 494.277 325.255C494.449 325.405 494.541 325.556 494.645 325.718C495.036 326.356 495.162 326.97 495.3 327.55C495.358 327.828 495.427 328.118 495.462 328.385C495.508 328.698 495.577 329.034 495.588 329.336C495.634 329.962 495.6 330.588 495.554 331.214C495.416 332.327 495.358 333.788 494.53 334.889C493.793 336.014 492.539 336.663 491.469 337.092C490.319 337.532 488.996 337.729 487.845 337.393C486.672 337.092 485.659 336.616 484.762 335.84C484.52 335.631 484.313 335.411 484.186 335.214L484.071 335.063C483.968 334.889 484.002 334.912 483.956 334.819L483.807 334.448C483.588 333.95 483.496 333.486 483.37 333.034C483.151 332.13 482.99 331.33 482.84 330.599C482.691 329.811 482.656 329.115 482.714 328.524C482.748 328.223 482.783 327.956 482.863 327.712C482.909 327.585 482.944 327.469 482.978 327.365C483.047 327.225 483.128 327.098 483.209 326.994C483.381 326.739 483.427 326.75 483.485 326.681C483.542 326.634 483.565 326.611 483.565 326.611L483.611 326.565L483.623 326.576Z" fill="#3F4E7A"/>
<path d="M517.529 318.82C517.529 318.82 519.485 318.809 519.91 318.82C520.336 318.832 520.739 319.342 520.865 319.782C520.992 320.223 521.118 321.081 521.13 321.232C521.153 321.371 520.842 321.8 520.647 322.02C520.451 322.229 520.348 322.646 520.348 322.646L517.529 318.832V318.82Z" fill="#3F4E7A"/>
<path d="M519.853 319.017L524.294 319.121L525.904 320.675L520.957 321.382L519.853 319.017Z" fill="#3F4E7A"/>
<path d="M483.105 327.168C483.105 327.168 482.139 327.875 481.978 328.06C481.817 328.246 481.713 328.513 481.759 328.744C481.817 328.976 481.943 329.452 481.989 329.649C482.035 329.846 482.933 329.973 482.933 329.973L483.094 327.168H483.105Z" fill="#3F4E7A"/>
<path d="M494.392 326.715C494.392 326.715 497.441 325.278 500.777 325.185L501.065 327.168C501.065 327.168 496.555 327.423 494.887 328.93L494.38 326.715H494.392Z" fill="#3F4E7A"/>
</g>
<defs>
<clipPath id="clip0_498_5459">
<rect width="484" height="467.069" fill="white" transform="translate(143 289.522)"/>
</clipPath>
</defs>
</svg>
