<svg width="24" height="25" viewBox="0 0 24 25" fill="none" xmlns="http://www.w3.org/2000/svg">
<path d="M21.2699 9.68005C20.9799 9.22005 20.6699 8.79005 20.3499 8.39005C19.9799 7.92005 19.2799 7.88005 18.8599 8.30005L15.8599 11.3001C16.0799 11.9601 16.1199 12.7201 15.9199 13.5101C15.5699 14.9201 14.4299 16.0601 13.0199 16.4101C12.2299 16.6101 11.4699 16.5701 10.8099 16.3501C10.8099 16.3501 9.37995 17.7801 8.34995 18.8101C7.84995 19.3101 8.00995 20.1901 8.67995 20.4501C9.74995 20.8601 10.8599 21.0701 11.9999 21.0701C13.7799 21.0701 15.5099 20.5501 17.0899 19.5801C18.6999 18.5801 20.1499 17.1101 21.3199 15.24C22.2699 13.7301 22.2199 11.1901 21.2699 9.68005Z" fill="#292D32"/>
<path d="M14.0201 10.4799L9.98014 14.5199C9.47014 13.9999 9.14014 13.2799 9.14014 12.4999C9.14014 10.9299 10.4201 9.63989 12.0001 9.63989C12.7801 9.63989 13.5001 9.96989 14.0201 10.4799Z" fill="#292D32"/>
<path d="M18.25 6.24993L14.86 9.63993C14.13 8.89993 13.12 8.45993 12 8.45993C9.76 8.45993 7.96 10.2699 7.96 12.4999C7.96 13.6199 8.41 14.6299 9.14 15.3599L5.76 18.7499H5.75C4.64 17.8499 3.62 16.6999 2.75 15.3399C1.75 13.7699 1.75 11.2199 2.75 9.64993C3.91 7.82993 5.33 6.39993 6.91 5.41993C8.49 4.45993 10.22 3.92993 12 3.92993C14.23 3.92993 16.39 4.74993 18.25 6.24993Z" fill="#292D32"/>
<path d="M14.8601 12.5001C14.8601 14.0701 13.5801 15.3601 12.0001 15.3601C11.9401 15.3601 11.8901 15.3601 11.8301 15.3401L14.8401 12.3301C14.8601 12.3901 14.8601 12.4401 14.8601 12.5001Z" fill="#292D32"/>
<path d="M21.7699 2.72988C21.4699 2.42988 20.9799 2.42988 20.6799 2.72988L2.22988 21.1899C1.92988 21.4899 1.92988 21.9799 2.22988 22.2799C2.37988 22.4199 2.56988 22.4999 2.76988 22.4999C2.96988 22.4999 3.15988 22.4199 3.30988 22.2699L21.7699 3.80988C22.0799 3.50988 22.0799 3.02988 21.7699 2.72988Z" fill="#292D32"/>
</svg>
