<svg width="32" height="32" viewBox="0 0 32 32" fill="none" xmlns="http://www.w3.org/2000/svg">
<path d="M25.2207 16.2555C25.2207 15.6188 25.1591 14.9614 25.0564 14.3452H16.1621V17.981H21.2563C21.0509 19.1518 20.373 20.1789 19.3665 20.8362L22.4066 23.1984C24.1936 21.5346 25.2207 19.1107 25.2207 16.2555Z" fill="#4280EF"/>
<path d="M16.1635 25.4576C18.7106 25.4576 20.8469 24.6154 22.408 23.1775L19.3679 20.8359C18.5257 21.411 17.4371 21.7397 16.1635 21.7397C13.6986 21.7397 11.6239 20.0758 10.8639 17.8574L7.7417 20.2607C9.3439 23.4446 12.5894 25.4576 16.1635 25.4576Z" fill="#34A353"/>
<path d="M10.8634 17.8372C10.4731 16.6663 10.4731 15.3928 10.8634 14.2219L7.74112 11.7981C6.40595 14.4684 6.40595 17.6112 7.74112 20.261L10.8634 17.8372Z" fill="#F6B704"/>
<path d="M16.1635 10.3397C17.4987 10.3191 18.8133 10.8326 19.7787 11.757L22.4696 9.04557C20.7647 7.44337 18.5052 6.58065 16.1635 6.60119C12.5894 6.60119 9.3439 8.61421 7.7417 11.7981L10.8639 14.2219C11.6239 11.9829 13.6986 10.3397 16.1635 10.3397Z" fill="#E54335"/>
</svg>
