<svg width="48" height="48" viewBox="0 0 48 48" fill="none" xmlns="http://www.w3.org/2000/svg">
<path d="M26.9163 19.0109C26.6042 19.0109 26.3506 18.7576 26.3506 18.4452V17.4839C26.3506 17.1719 26.6038 16.9182 26.9163 16.9182C27.2283 16.9182 27.4819 17.1715 27.4819 17.4839V18.4452C27.4819 18.7576 27.2283 19.0109 26.9163 19.0109Z" fill="#103E13"/>
<path d="M24.5383 19.0109C24.2263 19.0109 23.9727 18.7576 23.9727 18.4452V17.4839C23.9727 17.1719 24.2259 16.9182 24.5383 16.9182C24.8504 16.9182 25.104 17.1715 25.104 17.4839V18.4452C25.1036 18.7576 24.8508 19.0109 24.5383 19.0109Z" fill="#103E13"/>
<path d="M22.1604 19.0109C21.8484 19.0109 21.5947 18.7576 21.5947 18.4452V17.4839C21.5947 17.1719 21.848 16.9182 22.1604 16.9182C22.4724 16.9182 22.7261 17.1715 22.7261 17.4839V18.4452C22.7261 18.7576 22.4728 19.0109 22.1604 19.0109Z" fill="#103E13"/>
<path d="M26.9163 22.9421C26.6042 22.9421 26.3506 22.6889 26.3506 22.3765V21.4155C26.3506 21.1035 26.6038 20.8499 26.9163 20.8499C27.2283 20.8499 27.4819 21.1031 27.4819 21.4155V22.3765C27.4819 22.6889 27.2283 22.9421 26.9163 22.9421Z" fill="#103E13"/>
<path d="M24.5383 22.9421C24.2263 22.9421 23.9727 22.6889 23.9727 22.3765V21.4155C23.9727 21.1035 24.2259 20.8499 24.5383 20.8499C24.8504 20.8499 25.104 21.1031 25.104 21.4155V22.3765C25.1036 22.6889 24.8508 22.9421 24.5383 22.9421Z" fill="#103E13"/>
<path d="M22.1604 22.9421C21.8484 22.9421 21.5947 22.6889 21.5947 22.3765V21.4155C21.5947 21.1035 21.848 20.8499 22.1604 20.8499C22.4724 20.8499 22.7261 21.1031 22.7261 21.4155V22.3765C22.7261 22.6889 22.4728 22.9421 22.1604 22.9421Z" fill="#103E13"/>
<path d="M26.9163 26.8734C26.6042 26.8734 26.3506 26.6202 26.3506 26.3078V25.3464C26.3506 25.0344 26.6038 24.7808 26.9163 24.7808C27.2283 24.7808 27.4819 25.034 27.4819 25.3464V26.3078C27.4819 26.6202 27.2283 26.8734 26.9163 26.8734Z" fill="#103E13"/>
<path d="M24.5383 26.8734C24.2263 26.8734 23.9727 26.6202 23.9727 26.3078V25.3464C23.9727 25.0344 24.2259 24.7808 24.5383 24.7808C24.8504 24.7808 25.104 25.034 25.104 25.3464V26.3078C25.1036 26.6202 24.8508 26.8734 24.5383 26.8734Z" fill="#103E13"/>
<path d="M22.1604 26.8734C21.8484 26.8734 21.5947 26.6202 21.5947 26.3078V25.3464C21.5947 25.0344 21.848 24.7808 22.1604 24.7808C22.4724 24.7808 22.7261 25.034 22.7261 25.3464V26.3078C22.7261 26.6202 22.4728 26.8734 22.1604 26.8734Z" fill="#103E13"/>
<path d="M26.9163 30.8039C26.6042 30.8039 26.3506 30.5506 26.3506 30.2382V29.2769C26.3506 28.9648 26.6038 28.7112 26.9163 28.7112C27.2283 28.7112 27.4819 28.9644 27.4819 29.2769V30.2382C27.4819 30.5506 27.2283 30.8039 26.9163 30.8039Z" fill="#103E13"/>
<path d="M24.5383 30.8039C24.2263 30.8039 23.9727 30.5506 23.9727 30.2382V29.2769C23.9727 28.9648 24.2259 28.7112 24.5383 28.7112C24.8504 28.7112 25.104 28.9644 25.104 29.2769V30.2382C25.1036 30.5506 24.8508 30.8039 24.5383 30.8039Z" fill="#103E13"/>
<path d="M22.1604 30.8039C21.8484 30.8039 21.5947 30.5506 21.5947 30.2382V29.2769C21.5947 28.9648 21.848 28.7112 22.1604 28.7112C22.4724 28.7112 22.7261 28.9644 22.7261 29.2769V30.2382C22.7261 30.5506 22.4728 30.8039 22.1604 30.8039Z" fill="#103E13"/>
<path d="M26.9163 34.7349C26.6042 34.7349 26.3506 34.4816 26.3506 34.1692V33.2083C26.3506 32.8962 26.6038 32.6426 26.9163 32.6426C27.2283 32.6426 27.4819 32.8958 27.4819 33.2083V34.1692C27.4819 34.4812 27.2283 34.7349 26.9163 34.7349Z" fill="#103E13"/>
<path d="M24.5383 34.7349C24.2263 34.7349 23.9727 34.4816 23.9727 34.1692V33.2083C23.9727 32.8962 24.2259 32.6426 24.5383 32.6426C24.8504 32.6426 25.104 32.8958 25.104 33.2083V34.1692C25.1036 34.4812 24.8508 34.7349 24.5383 34.7349Z" fill="#103E13"/>
<path d="M22.1604 34.7349C21.8484 34.7349 21.5947 34.4816 21.5947 34.1692L21.5951 33.2083C21.5951 32.8962 21.8484 32.6426 22.1608 32.6426C22.4728 32.6426 22.7265 32.8958 22.7265 33.2083V34.1692C22.7261 34.4812 22.4728 34.7349 22.1604 34.7349Z" fill="#103E13"/>
<path d="M6.00047 38.6471C6.00047 38.9592 6.25372 39.2128 6.56615 39.2128H41.0139C41.3259 39.2128 41.5796 38.9596 41.5796 38.6471C41.5796 38.3351 41.3263 38.0815 41.0139 38.0815H39.9682V21.8402C39.9682 21.5281 39.715 21.2745 39.4025 21.2745L30.1668 21.2749V9.56576C30.1668 9.36774 30.0635 9.18471 29.8946 9.08214C29.7262 8.97919 29.5156 8.97287 29.3404 9.06399L18.8401 14.531C18.6527 14.6284 18.5359 14.8217 18.5359 15.0327V25.2604H8.37388C8.06186 25.2604 7.8082 25.5137 7.8082 25.8261V38.0816H6.56489C6.25287 38.0812 6 38.3344 6 38.6468L6.00047 38.6471ZM30.167 29.8422H38.8374V38.0819L30.167 38.0815V29.8422ZM30.167 25.9113H38.8374V28.7113L30.167 28.7109V25.9113ZM30.167 22.4056H38.8374V24.7808H30.167V22.4056ZM19.6667 15.3762L29.0353 10.4982V38.081H19.6667V15.3762ZM11.7359 33.5635C11.7359 32.3895 12.666 31.4341 13.8096 31.4341C14.9531 31.4341 15.8837 32.3891 15.8837 33.5635V38.0817H11.7359V33.5635ZM8.93952 26.3916H18.5358V38.0815H17.015V33.5633C17.015 31.7657 15.5776 30.303 13.8096 30.303C12.0424 30.303 10.605 31.7653 10.605 33.5633V38.0815H8.93952V26.3916Z" fill="#103E13"/>
</svg>
