<svg width="33" height="30" viewBox="0 0 33 30" fill="none" xmlns="http://www.w3.org/2000/svg">
<path d="M20.8117 14.6446C20.5709 14.6446 20.3473 14.5784 20.1487 14.4719V14.4748C20.1487 14.8536 20.0014 15.2094 19.7343 15.4758C19.4671 15.743 19.1116 15.8903 18.7332 15.8903C18.4889 15.8903 18.2625 15.8224 18.0617 15.7131C18.0415 16.0597 17.9029 16.3836 17.6558 16.631C17.3886 16.8982 17.0331 17.0454 16.6545 17.0454C15.9022 17.0454 15.2913 16.4541 15.2473 15.7129C15.0145 15.8387 14.7513 15.9046 14.4799 15.8872C13.7398 15.8387 13.1603 15.1993 13.1603 14.4312V8.06453L12.4353 9.32049C12.1592 9.80087 11.6423 10.0991 11.0858 10.0991C10.8147 10.0991 10.5468 10.028 10.3095 9.89204C10.0141 9.72076 9.80278 9.44582 9.71489 9.1169C9.62655 8.78777 9.67225 8.44356 9.84306 8.14857C9.84329 8.14857 12.215 4.04137 12.3597 3.78908C12.3769 3.75115 12.4259 3.64113 12.4676 3.54736C12.5075 3.45783 12.5416 3.36595 12.5744 3.27359C13.2896 1.25431 15.0607 -1.90735e-05 17.1966 -1.90735e-05C19.9703 -1.90735e-05 22.2268 2.44688 22.2268 5.45457L22.227 13.2289C22.227 13.6073 22.08 13.9628 21.8131 14.2302C21.5459 14.4974 21.1904 14.6447 20.8116 14.6447L20.8117 14.6446ZM17.1966 0.752123C15.3613 0.752123 13.8984 1.78878 13.2833 3.52514C13.244 3.6354 13.203 3.74565 13.1552 3.85309C13.0164 4.16432 13.0164 4.16432 12.9773 4.20907L12.9721 4.2046C12.7784 4.57001 12.2031 5.56635 10.4943 8.525C10.4241 8.64633 10.4055 8.78723 10.4413 8.92198C10.4776 9.05675 10.5645 9.1703 10.6849 9.2398C11.0586 9.45443 11.5703 9.3159 11.7833 8.94484L13.2108 6.47339C13.2961 6.32614 13.4685 6.25381 13.6339 6.29858C13.7983 6.34263 13.9126 6.49177 13.9126 6.66187V14.4314C13.9126 14.798 14.1892 15.1144 14.5292 15.1368C14.7252 15.1471 14.908 15.0814 15.0454 14.9443C15.1702 14.8194 15.239 14.6531 15.239 14.4752V9.39383C15.239 9.18603 15.4075 9.01757 15.6153 9.01757C15.8231 9.01757 15.9915 9.18579 15.9915 9.39383L15.9913 15.6302C15.9913 15.9958 16.2889 16.2934 16.6545 16.2934C16.8321 16.2934 16.999 16.2246 17.1241 16.0997C17.2489 15.9746 17.3177 15.8078 17.3177 15.6302V9.39382C17.3177 9.18602 17.4859 9.01757 17.694 9.01757C17.9018 9.01757 18.0702 9.18579 18.0702 9.39382L18.07 14.4168V14.4752C18.07 14.8406 18.3675 15.1381 18.7334 15.1381C18.9108 15.1381 19.0772 15.0691 19.203 14.9438C19.3278 14.8191 19.3966 14.6528 19.3966 14.4749V9.39356C19.3966 9.18576 19.5649 9.01731 19.7729 9.01731C19.9807 9.01731 20.1491 9.18552 20.1491 9.39356L20.1487 13.2291C20.1487 13.595 20.4462 13.8925 20.8116 13.8925C20.9895 13.8925 21.1558 13.8235 21.2807 13.6989C21.406 13.5736 21.4746 13.4067 21.4746 13.2291L21.4748 5.45475C21.4748 2.86201 19.5557 0.752201 17.1966 0.752201L17.1966 0.752123Z" fill="#103E13"/>
<path d="M6.02873 20.048L11.4885 16.7727C12.1467 16.3774 12.9937 16.5454 13.4159 17.1553C13.57 17.3775 13.6486 17.6364 13.6609 17.9001C13.8645 17.7938 14.0859 17.7361 14.3114 17.7361C14.4268 17.7361 14.5427 17.7505 14.6572 17.779C15.0241 17.8706 15.3332 18.0999 15.5276 18.424C15.7222 18.7487 15.7789 19.1291 15.6873 19.4955C15.6027 19.8346 15.3966 20.1199 15.1098 20.3157C15.3103 20.4339 15.4833 20.5953 15.6062 20.8008C15.8008 21.1254 15.8576 21.5057 15.7662 21.8725C15.6746 22.2389 15.4453 22.548 15.1207 22.7429L15.1188 22.744C15.3158 22.8621 15.4856 23.0218 15.6072 23.2242C15.802 23.5488 15.8588 23.9293 15.7672 24.2961C15.6753 24.6627 15.446 24.9718 15.1219 25.1664L8.45547 29.1657C7.21127 29.9119 5.77292 30.1694 4.40599 29.8902C3.02681 29.6084 1.8846 28.8157 1.1901 27.6579C0.0910131 25.8261 0.255728 23.6619 1.61912 22.0101C1.68156 21.9347 1.74305 21.8579 1.79889 21.7783C1.85802 21.6942 1.92705 21.5952 1.95061 21.5613C2.09173 21.3092 4.39449 17.1603 4.39425 17.1608C4.62679 16.7412 5.06264 16.5037 5.51216 16.5039C5.72184 16.5039 5.93458 16.5555 6.13085 16.6644C6.36786 16.7968 6.56694 16.9898 6.70618 17.2223C6.99243 17.6994 7.00256 18.2964 6.73304 18.7796L6.02873 20.048ZM6.06148 17.6091C5.98845 17.4873 5.88808 17.3902 5.76533 17.3214C5.5116 17.181 5.19212 17.2724 5.05243 17.5252C3.40468 20.4937 2.84298 21.5054 2.62622 21.8654L2.63117 21.8666C2.61303 21.9269 2.61303 21.9269 2.41466 22.2103C2.34727 22.3062 2.274 22.3983 2.19932 22.489C1.02695 23.9094 0.890827 25.6969 1.83485 27.2709C2.4196 28.2458 3.38604 28.9142 4.55623 29.1531C5.73915 29.3937 6.98594 29.1699 8.06808 28.5206L14.7351 24.5211C14.8873 24.4299 14.9947 24.285 15.0376 24.1133C15.0805 23.9417 15.0538 23.7634 14.9624 23.6112C14.7744 23.2979 14.3661 23.1949 14.0528 23.3836L10.7639 25.3568C10.5858 25.4637 10.3544 25.4062 10.2477 25.2279C10.1407 25.0498 10.1984 24.8187 10.3765 24.7117L13.6657 22.7386L14.7339 22.0977C14.8861 22.0063 14.9938 21.8614 15.0367 21.6901C15.0795 21.5184 15.0529 21.3398 14.9615 21.1878C14.7733 20.8743 14.365 20.7723 14.0519 20.9603L9.69448 23.5742C9.5159 23.6814 9.28525 23.6235 9.17829 23.4454C9.07133 23.2673 9.12928 23.0361 9.30716 22.9292L14.655 19.7211C14.8072 19.6296 14.9146 19.485 14.9575 19.3132C15.0004 19.1417 14.9738 18.9634 14.8826 18.8112C14.7914 18.6592 14.6465 18.5518 14.4748 18.5089C14.3021 18.466 14.1244 18.4927 13.9727 18.5836L12.9827 19.1775C12.9825 19.1775 12.9825 19.1778 12.9823 19.1778H12.982L8.62488 21.7917C8.4463 21.8992 8.21541 21.8412 8.10869 21.6629C8.00173 21.4848 8.05968 21.2536 8.23756 21.1467L12.5949 18.5327C12.7471 18.4413 12.8548 18.2964 12.8977 18.1251C12.9448 17.9371 12.909 17.7449 12.7973 17.5837C12.6037 17.3036 12.1895 17.2291 11.8754 17.4179L5.21325 21.4146C5.06741 21.5017 4.88058 21.4805 4.7583 21.3625C4.6358 21.2442 4.60823 21.0583 4.69069 20.9097L6.07602 18.4137C6.21502 18.1642 6.2096 17.8561 6.06141 17.6092L6.06148 17.6091Z" fill="#103E13"/>
<path d="M32.1174 27.6576C31.423 28.8156 30.2811 29.6081 28.9017 29.8899C27.5345 30.1686 26.0967 29.9116 24.8522 29.1655L18.1852 25.166C17.8608 24.9714 17.6313 24.6623 17.5395 24.2952C17.4483 23.9288 17.5053 23.5483 17.6997 23.2241C17.821 23.0215 17.9911 22.8618 18.1883 22.7437L18.1864 22.7426C17.862 22.548 17.6325 22.2389 17.5411 21.8723C17.4492 21.5057 17.5063 21.1249 17.7009 20.8003C17.8262 20.5918 17.9979 20.4288 18.194 20.3131C17.9094 20.1173 17.7044 19.8329 17.6201 19.4956C17.5282 19.1287 17.5852 18.7482 17.7798 18.424C17.9742 18.0996 18.2835 17.8704 18.6501 17.7787C18.7646 17.75 18.8808 17.7359 18.9957 17.7359C19.2214 17.7361 19.4429 17.7933 19.6464 17.8998C19.6589 17.6362 19.7374 17.3773 19.8915 17.1551C20.3139 16.5456 21.1602 16.3769 21.8194 16.7725L27.2789 20.0473L26.5752 18.7798C26.3052 18.2958 26.3151 17.6988 26.6013 17.2215C26.7408 16.9892 26.9401 16.7963 27.1783 16.6627C27.3741 16.5543 27.5861 16.5029 27.7953 16.5029C28.2446 16.5032 28.6809 16.7402 28.9132 17.1598C29.7227 18.6184 31.2503 21.3692 31.3578 21.5613C31.3806 21.5945 31.4496 21.6934 31.5088 21.7776C31.5651 21.8574 31.6259 21.9338 31.6888 22.0096C33.052 23.6621 33.2164 25.8261 32.1173 27.6576L32.1174 27.6576ZM31.1083 22.4891C31.0334 22.3984 30.9599 22.3058 30.893 22.2104C30.6894 21.9215 30.6843 21.914 30.6689 21.8384C30.431 21.4447 29.8505 20.3996 28.2548 17.5248C28.1149 17.2725 27.7968 17.1803 27.5435 17.3203C27.4189 17.39 27.3188 17.4873 27.2457 17.6091C27.0978 17.8558 27.0921 18.164 27.2318 18.4142L28.6167 20.9094C28.6994 21.0583 28.6718 21.244 28.5495 21.3622C28.4275 21.4807 28.2409 21.5015 28.0944 21.4143L21.4322 17.4176C21.1181 17.2293 20.7042 17.3031 20.51 17.5834C20.3984 17.7446 20.3628 17.9368 20.4094 18.1246C20.4523 18.2961 20.56 18.4408 20.7124 18.5322C20.7129 18.5324 20.7131 18.5329 20.7136 18.5331L25.0696 21.1464C25.2477 21.2533 25.3054 21.4842 25.1985 21.6626C25.0915 21.8405 24.8608 21.8986 24.6823 21.7914L19.3344 18.5833C19.1827 18.4924 19.0041 18.4655 18.8326 18.5087C18.6606 18.5515 18.516 18.659 18.4248 18.8114C18.3334 18.9634 18.307 19.1417 18.3494 19.3132C18.3923 19.4847 18.4999 19.6296 18.6521 19.721L19.6928 20.3452L23.9997 22.9292C24.1778 23.0362 24.2356 23.2671 24.1286 23.4454C24.0216 23.6233 23.791 23.6812 23.6124 23.5743L19.2555 20.9603C18.9422 20.7718 18.5341 20.8741 18.3456 21.1879C18.2542 21.3401 18.2278 21.5184 18.2702 21.6899C18.3131 21.8615 18.4208 22.0061 18.5732 22.0978L19.6414 22.7386L22.9301 24.7117C23.1082 24.8187 23.1659 25.0496 23.059 25.2279C22.952 25.4058 22.7214 25.4642 22.5428 25.3568L19.2541 23.3837C19.1024 23.2927 18.9245 23.2659 18.752 23.309C18.5805 23.3519 18.4354 23.4593 18.3442 23.6112C18.253 23.7634 18.2264 23.942 18.2688 24.1133C18.3117 24.2848 18.4194 24.4295 18.5718 24.5211L25.2388 28.5206C26.3207 29.1697 27.5684 29.3944 28.7507 29.1532C29.9206 28.9143 30.8871 28.2459 31.4718 27.271C32.4168 25.6967 32.2808 23.909 31.1087 22.4891L31.1083 22.4891Z" fill="#103E13"/>
</svg>
