<svg width="484" height="463" viewBox="0 0 484 463" fill="none" xmlns="http://www.w3.org/2000/svg">
<path d="M81.1688 54.0735C82.8946 39.6156 80.0183 20.2616 73.4028 11.8374H85.7594C92.3749 20.2616 95.2512 39.6156 93.5254 54.0735H81.1688Z" fill="#FE8205"/>
<path d="M128.202 54.0735C129.928 39.6156 127.052 20.2616 120.436 11.8374H132.793C139.408 20.2616 142.284 39.6156 140.559 54.0735H128.202Z" fill="#FE8205"/>
<path d="M175.224 54.0735C176.95 39.6156 174.073 20.2616 167.458 11.8374H179.815C186.43 20.2616 189.306 39.6156 187.581 54.0735H175.224Z" fill="#FE8205"/>
<path d="M222.257 54.0735C223.983 39.6156 221.107 20.2616 214.491 11.8374H226.848C233.463 20.2616 236.34 39.6156 234.614 54.0735H222.257Z" fill="#FE8205"/>
<path d="M269.279 54.0735C271.004 39.6156 268.128 20.2616 261.513 11.8374H273.869C280.485 20.2616 283.361 39.6156 281.635 54.0735H269.279Z" fill="#FE8205"/>
<path d="M101.671 462.379H344.143L295.166 34.3862H52.6938L101.671 462.379Z" fill="#D0DEF5"/>
<path d="M242.472 462.379H0L48.9776 34.3862H291.449L242.472 462.379Z" fill="white"/>
<path d="M93.6061 145.315H56.0762L60.3676 107.825H97.8975L93.6061 145.315ZM61.2075 140.718H89.5332L92.7662 112.423H64.4404L61.2075 140.718Z" fill="#BFC6DE"/>
<path d="M260.04 115.733H115.075L115.604 111.135H260.569L260.04 115.733Z" fill="#212A45"/>
<path d="M258.533 128.869H113.567L114.097 124.272H259.062L258.533 128.869Z" fill="#212A45"/>
<path d="M207.174 142.017H112.072L112.59 137.42H207.703L207.174 142.017Z" fill="#212A45"/>
<path d="M86.6339 206.216H49.104L53.3954 168.726H90.9253L86.6339 206.216ZM54.2353 201.619H82.5611L85.794 173.323H57.4683L54.2353 201.619Z" fill="#BFC6DE"/>
<path d="M253.068 176.633H108.103L108.632 172.036H253.597L253.068 176.633Z" fill="#212A45"/>
<path d="M251.561 189.781H106.595L107.124 185.184H252.09L251.561 189.781Z" fill="#212A45"/>
<path d="M200.201 202.917H105.1L105.617 198.32H200.731L200.201 202.917Z" fill="#212A45"/>
<path d="M79.6735 267.128H42.1436L46.435 229.638H83.9649L79.6735 267.128ZM47.2749 262.53H75.6006L78.8336 234.235H50.5078L47.2749 262.53Z" fill="#BFC6DE"/>
<path d="M246.096 237.533H101.142L101.66 232.936H246.625L246.096 237.533Z" fill="#212A45"/>
<path d="M244.601 250.681H99.6353L100.153 246.084H245.118L244.601 250.681Z" fill="#212A45"/>
<path d="M193.241 263.829H98.1279L98.6572 259.232H193.759L193.241 263.829Z" fill="#212A45"/>
<path d="M72.7013 328.028H35.1714L39.4628 290.539H76.9927L72.7013 328.028ZM40.3027 323.431H68.6285L71.8614 295.136H43.5357L40.3027 323.431Z" fill="#BFC6DE"/>
<path d="M239.135 298.446H94.1699L94.6877 293.848H239.653L239.135 298.446Z" fill="#212A45"/>
<path d="M237.628 311.582H92.6631L93.1923 306.985H238.146L237.628 311.582Z" fill="#212A45"/>
<path d="M186.269 324.73H91.1558L91.685 320.133H186.798L186.269 324.73Z" fill="#212A45"/>
<path d="M65.7291 388.94H28.1992L32.4907 351.45H70.0206L65.7291 388.94ZM33.3305 384.343H61.6563L64.8892 356.048H36.5635L33.3305 384.343Z" fill="#BFC6DE"/>
<path d="M232.163 359.346H87.1978L87.727 354.749H232.681L232.163 359.346Z" fill="#212A45"/>
<path d="M230.656 372.494H85.6904L86.2197 367.896H231.185L230.656 372.494Z" fill="#212A45"/>
<path d="M179.297 385.63H84.1948L84.7126 381.033H179.826L179.297 385.63Z" fill="#212A45"/>
<path d="M75.0827 135.408L66.5459 125.777L70.17 122.525L75.8306 128.903L98.4843 108.607L101.361 111.848L75.0827 135.408Z" fill="#2A3BB7"/>
<path d="M68.1565 195.918L59.6196 186.287L63.2438 183.035L68.9043 189.413L91.558 169.117L94.4343 172.369L68.1565 195.918Z" fill="#2A3BB7"/>
<path d="M61.2422 256.439L52.6938 246.808L56.3295 243.556L61.9785 249.934L84.6322 229.626L87.5085 232.879L61.2422 256.439Z" fill="#2A3BB7"/>
<path d="M54.3161 316.949L45.7793 307.318L49.4034 304.066L55.0525 310.444L77.7062 290.148L80.5825 293.4L54.3161 316.949Z" fill="#2A3BB7"/>
<path d="M47.3899 377.459L38.853 367.828L42.4772 364.587L48.1377 370.965L70.7799 350.657L73.6677 353.91L47.3899 377.459Z" fill="#2A3BB7"/>
<path d="M75.0943 44.9023H68.5939C65.9823 44.9023 63.8652 47.0172 63.8652 49.6259V56.1308C63.8652 58.7396 65.9823 60.8544 68.5939 60.8544H75.0943C77.7058 60.8544 79.8229 58.7396 79.8229 56.1308V49.6259C79.8229 47.0172 77.7058 44.9023 75.0943 44.9023Z" fill="#B6C2D6"/>
<path d="M78.028 54.0735C76.3022 39.6156 79.1785 20.2616 85.794 11.8374H73.4374C66.8219 20.2616 63.9456 39.6156 65.6714 54.0735H78.028Z" fill="#FED905"/>
<path d="M122.116 44.9023H115.615C113.004 44.9023 110.887 47.0172 110.887 49.6259V56.1308C110.887 58.7396 113.004 60.8544 115.615 60.8544H122.116C124.727 60.8544 126.844 58.7396 126.844 56.1308V49.6259C126.844 47.0172 124.727 44.9023 122.116 44.9023Z" fill="#B6C2D6"/>
<path d="M125.049 54.0735C123.324 39.6156 126.2 20.2616 132.815 11.8374H120.459C113.843 20.2616 110.967 39.6156 112.693 54.0735H125.049Z" fill="#FED905"/>
<path d="M169.149 44.9023H162.649C160.037 44.9023 157.92 47.0172 157.92 49.6259V56.1308C157.92 58.7396 160.037 60.8544 162.649 60.8544H169.149C171.761 60.8544 173.878 58.7396 173.878 56.1308V49.6259C173.878 47.0172 171.761 44.9023 169.149 44.9023Z" fill="#B6C2D6"/>
<path d="M172.083 54.0735C170.357 39.6156 173.233 20.2616 179.849 11.8374H167.492C160.877 20.2616 158 39.6156 159.726 54.0735H172.083Z" fill="#FED905"/>
<path d="M216.171 44.9023H209.671C207.059 44.9023 204.942 47.0172 204.942 49.6259V56.1308C204.942 58.7396 207.059 60.8544 209.671 60.8544H216.171C218.782 60.8544 220.9 58.7396 220.9 56.1308V49.6259C220.9 47.0172 218.782 44.9023 216.171 44.9023Z" fill="#B6C2D6"/>
<path d="M219.105 54.0735C217.379 39.6156 220.255 20.2616 226.871 11.8374H214.514C207.899 20.2616 205.022 39.6156 206.748 54.0735H219.105Z" fill="#FED905"/>
<path d="M263.204 44.9023H256.704C254.092 44.9023 251.975 47.0172 251.975 49.6259V56.1308C251.975 58.7396 254.092 60.8544 256.704 60.8544H263.204C265.816 60.8544 267.933 58.7396 267.933 56.1308V49.6259C267.933 47.0172 265.816 44.9023 263.204 44.9023Z" fill="#B6C2D6"/>
<path d="M266.138 54.0735C264.412 39.6156 267.288 20.2616 273.904 11.8374H261.547C254.932 20.2616 252.055 39.6156 253.781 54.0735H266.138Z" fill="#FED905"/>
<g style="mix-blend-mode:multiply">
<path d="M483.816 142.109C482.942 139.316 476.579 130.524 474.923 128.34C473.266 126.157 465.983 114.17 462.865 108.653C459.747 103.137 451.452 88.4832 450.635 87.196C449.922 86.0582 448.38 84.2883 446.781 83.9091C446.793 83.8746 446.827 83.8401 446.816 83.7942C446.816 83.6447 446.666 83.5413 446.528 83.5528C446.493 83.5528 446.459 83.5758 446.424 83.5758C445.803 83.0356 444.94 82.484 444.054 82.1737C442.639 81.668 424.944 75.5078 420.526 73.4046C420.273 73.2782 420.008 73.1518 419.767 73.0254C419.56 72.9219 419.364 72.807 419.157 72.6921C415.418 70.5889 412.542 67.7502 410.735 67.5088C410.31 66.7388 409.573 64.3253 409.194 63.7851C408.814 63.245 406.375 62.1187 406.363 62.1072C406.363 61.7969 406.352 61.4866 406.34 61.1878C409.746 52.8095 415.13 42.5579 416.591 35.3749C417.305 36.2023 418.881 37.2942 418.881 37.2942C419.502 31.2834 418.754 19.3998 415.015 12.5271C411.276 5.6659 403.614 1.58595 390.118 2.16059C376.611 2.73523 365.716 10.8377 365.29 11.9755C365.048 12.642 365.014 13.8258 365.025 14.6993C363.414 17.1128 357.662 26.9047 361.93 38.9606C361.93 38.9606 362.931 36.4437 363.311 34.9151C363.426 36.1794 364.162 37.3976 364.956 38.363C364.91 38.386 364.83 38.4205 364.795 38.4435C364.519 38.5699 364.369 38.6503 364.369 38.6503L364.312 38.6848L364.266 38.7308C364.266 38.7308 364.231 38.7538 364.174 38.7997C364.105 38.8687 364.059 38.8572 363.875 39.11C363.84 39.156 363.794 39.225 363.76 39.2824C363.76 39.2824 362.759 39.9605 362.586 40.1444C362.414 40.3283 362.287 40.5926 362.333 40.8225C362.379 41.0523 362.471 41.5235 362.517 41.7189C362.552 41.8568 363 41.9603 363.265 42.0062C363.265 42.2246 363.276 42.4315 363.311 42.6728C363.426 43.3854 363.541 44.1784 363.714 45.0748C363.817 45.523 363.886 45.9827 364.07 46.4654L364.197 46.8332C364.231 46.9252 364.197 46.9022 364.3 47.0746L364.404 47.224C364.519 47.4193 364.715 47.6377 364.933 47.8446C365.785 48.6146 366.774 49.0858 367.936 49.3846C368.005 49.4076 368.074 49.4076 368.143 49.4191C368.741 52.752 369.167 55.0621 370.456 57.4871C372.435 61.2107 377.612 65.9803 378.981 67.6123C379.257 67.934 379.487 68.2099 379.706 68.4512L379.039 73.4276L379.211 72.1404C379.211 72.1404 377.244 73.3816 376.945 73.8758C376.645 74.37 376.093 76.864 375.679 77.68C374.356 77.8753 372.262 80.3118 370.755 81.8978C370.628 82.0243 370.513 82.1507 370.398 82.2656C370.398 82.2656 370.387 82.2771 370.375 82.2886C370.26 82.4035 370.145 82.5184 370.03 82.6219C369.972 82.6793 369.903 82.7368 369.846 82.7943C368.385 84.0815 356.707 92.908 354.947 94.4825C354.107 95.2295 353.819 95.9651 353.75 96.7121C353.75 96.7121 352.208 98.4705 352.485 100.378C352.761 102.286 352.749 140.224 352.83 142.235C352.91 144.235 352.116 144.81 351.679 145.763C351.242 146.717 350.851 148.625 350.851 148.625C350.851 148.625 348.906 149.924 348.642 150.223C348.366 150.522 348.354 152.062 348.354 152.062C348.354 152.062 341.497 160.175 340.991 160.923C340.485 161.67 340.542 162.532 341.267 163.118C335.71 170.048 317.428 192.838 316.393 193.815C315.185 194.964 313.988 195.723 312.424 196.297C312.228 196.366 311.986 196.435 311.71 196.516C311.641 196.539 311.561 196.55 311.48 196.573C311.423 196.585 311.365 196.596 311.308 196.619C311.215 196.642 311.135 196.654 311.043 196.677C310.985 196.688 310.928 196.7 310.87 196.711C310.778 196.734 310.686 196.746 310.594 196.769C310.525 196.78 310.468 196.792 310.399 196.803C310.307 196.826 310.203 196.838 310.099 196.861C310.042 196.861 309.973 196.884 309.915 196.895C309.812 196.918 309.72 196.93 309.616 196.953C309.559 196.953 309.49 196.976 309.432 196.987C309.329 197.01 309.225 197.021 309.122 197.044C309.076 197.044 309.03 197.056 308.983 197.067C308.868 197.09 308.753 197.102 308.65 197.125C308.65 197.125 308.65 197.125 308.627 197.125C308.374 197.171 308.121 197.205 307.879 197.24C307.844 197.24 307.81 197.24 307.764 197.251C307.672 197.263 307.58 197.274 307.488 197.297C307.442 197.297 307.396 197.309 307.361 197.32C307.281 197.32 307.212 197.343 307.131 197.355C307.074 197.355 307.028 197.366 306.97 197.378C306.901 197.378 306.844 197.401 306.786 197.401C306.751 197.401 306.717 197.401 306.682 197.412C306.613 197.412 306.544 197.435 306.498 197.435C306.498 197.435 306.475 197.435 306.464 197.435C306.257 197.458 306.142 197.481 306.142 197.481L294.671 143.557C294.257 141.626 292.335 140.477 290.368 140.994L289.379 141.258L282.901 110.814C282.556 109.182 281.118 108.124 279.496 108.147C279.208 106.814 278.817 104.952 278.598 103.907C278.23 102.16 275.308 99.2405 273.686 98.2751C272.075 97.3097 263.826 88.2534 262.687 82.9437C261.559 77.634 261.087 75.4503 260.926 74.6459C260.754 73.8414 260.086 71.8071 259.051 72.083C258.947 72.1059 258.798 72.1519 258.602 72.1979L254.656 53.6485C254.38 52.3728 253.39 52.1314 252.447 53.1198L243.83 62.1532C242.886 63.1415 242.334 65.0034 242.61 66.2791L244.647 75.8641C244.405 75.9331 244.198 75.979 244.083 76.0135C243.047 76.2893 243.266 78.4385 243.438 79.243C243.611 80.0475 244.071 82.2311 245.199 87.5408C246.326 92.8505 242.599 105.044 241.54 106.711C240.482 108.366 239.043 112.434 239.412 114.181C239.63 115.227 240.033 117.1 240.309 118.422C238.848 119.215 237.997 120.87 238.342 122.502L244.819 152.947L243.83 153.211C241.862 153.728 240.597 155.705 240.999 157.636L301.425 441.807C301.839 443.738 303.76 444.887 305.739 444.37L306.728 444.106L310.192 460.403C310.606 462.333 312.527 463.483 314.494 462.966L316.37 462.471H354.141C354.141 462.471 357.834 459.403 358.375 459.403C358.686 459.403 359.629 460.426 360.366 461.299C360.458 461.678 360.699 462.299 361.298 462.437C361.321 462.46 361.332 462.471 361.332 462.471H402.302C402.302 462.471 405.995 459.403 406.536 459.403C407.077 459.403 409.493 462.471 409.493 462.471H433.596C433.596 462.471 434.609 461.23 434.747 460.587C434.873 459.943 433.895 452.645 433.895 452.645C434.229 449.91 434.609 446.163 434.609 443.278C434.609 441.244 434.355 438.107 434.033 435.049C433.999 434.682 433.953 434.302 433.918 433.935C433.826 433.13 433.746 432.337 433.654 431.579C434.16 431.268 434.413 430.567 434.447 429.878C434.493 429.119 434.804 423.534 434.839 422.867C434.873 422.2 434.586 421.522 434.586 421.522C435.138 420.189 435.379 418.695 435.333 418.247C435.241 417.385 433.769 415.385 433.93 412.524C434.091 409.662 438.9 364.759 436.047 346.313C433.193 327.867 432.469 322.856 432.906 320.144C433.343 317.432 433.631 314.857 433.147 313.283C432.664 311.708 430.432 307.847 430.881 304.847C431.341 301.848 436.795 247.785 437.048 238.062C437.128 235.212 436.714 231.155 436.116 226.857C437.577 224.984 438.532 221.789 438.566 221.191C438.612 220.329 434.712 194.872 434.079 192.022C433.585 189.77 432.756 187.678 432.423 185.218C432.388 184.943 432.342 184.667 432.319 184.368C432.285 183.977 432.262 183.575 432.262 183.15C432.262 183.035 432.262 182.874 432.285 182.678C432.285 182.655 432.285 182.621 432.285 182.598C432.296 182.414 432.319 182.219 432.342 181.977C432.342 181.954 432.342 181.943 432.342 181.92C432.4 181.391 432.492 180.736 432.595 179.978C432.733 178.978 432.917 177.794 433.136 176.472C436.806 174.208 443.456 169.852 446.045 168.278C449.623 166.692 455.755 165.14 460.668 163.531C460.633 163.543 460.599 163.554 460.599 163.554C460.599 163.554 464.062 166.232 465.017 166.439C465.96 166.646 469.09 164.738 470.758 164.118C472.438 163.508 476.361 162.003 476.545 161.118C476.579 160.957 476.522 160.13 476.384 158.9C478.248 159.141 480.48 159.187 480.583 158.739C480.756 157.992 480.756 154.452 481.538 152.74C482.321 151.039 484.714 144.97 483.839 142.178L483.816 142.109ZM403.591 428.499C403.326 428.119 402.785 428.05 402.394 428.338C402.003 428.625 401.899 429.165 402.164 429.544L402.348 429.809C401.589 430.326 400.519 431.107 399.288 432.027L399.127 431.797C398.862 431.418 398.321 431.349 397.93 431.636C397.539 431.923 397.435 432.464 397.7 432.843L397.884 433.096C396.906 433.831 395.882 434.613 394.87 435.371L394.674 435.084C394.409 434.705 393.869 434.636 393.478 434.923C393.075 435.21 392.983 435.751 393.247 436.13L393.455 436.429C392.339 437.256 391.28 438.026 390.394 438.635L390.21 438.371C389.945 437.992 389.405 437.923 389.014 438.21C388.622 438.497 388.519 439.037 388.783 439.417L388.922 439.624C387.955 440.256 387.115 440.865 386.379 441.428C386.379 441.152 386.356 440.876 386.333 440.578C386.333 440.555 386.333 440.532 386.333 440.497C386.275 439.509 386.183 438.44 386.091 437.325C386.091 437.325 386.091 437.325 386.091 437.314C385.93 435.475 385.723 433.544 385.527 431.808C386.08 431.544 386.39 430.843 386.471 430.142C386.563 429.383 387.265 423.821 387.345 423.154C387.426 422.488 387.196 421.787 387.196 421.787C387.196 421.787 387.161 421.787 387.104 421.787C387.805 420.465 388.208 418.891 388.197 418.431C388.174 417.569 386.885 415.431 387.288 412.581C387.69 409.731 396.273 365.173 395.008 346.474C393.742 327.764 393.443 322.696 394.11 320.006C394.778 317.328 395.284 314.766 394.927 313.157C394.766 312.387 394.248 311.053 393.834 309.559C393.788 309.421 393.754 309.272 393.719 309.123C393.65 308.835 393.581 308.548 393.512 308.261C393.489 308.169 393.478 308.077 393.455 307.985C393.397 307.651 393.339 307.307 393.305 306.973C393.305 306.916 393.305 306.87 393.293 306.812C393.259 306.445 393.247 306.077 393.259 305.721C393.259 305.698 393.259 305.675 393.259 305.64C393.27 305.261 393.316 304.893 393.397 304.537C393.42 304.468 393.443 304.365 393.466 304.238C393.466 304.215 393.466 304.204 393.466 304.181C393.489 304.054 393.524 303.893 393.558 303.709C393.558 303.686 393.558 303.663 393.57 303.64C393.65 303.25 393.742 302.767 393.857 302.181C393.857 302.135 393.869 302.1 393.88 302.054C393.938 301.756 394.007 301.434 394.064 301.089C394.087 300.986 394.11 300.871 394.133 300.756C395.79 311.697 397.297 320.96 398.206 325.086C401.071 338.096 404.661 363.978 405.247 387.147C405.823 410.317 405.892 414.178 405.523 415.604C405.155 417.029 403.165 419.178 403.924 421.04C404.085 421.419 404.258 421.752 404.454 422.051C404.454 422.051 404.085 422.764 404.039 423.476C404.005 424.189 403.786 428.004 403.763 428.384C403.763 428.453 403.775 428.544 403.809 428.671C403.786 428.694 403.763 428.717 403.752 428.728L403.591 428.51V428.499ZM406.501 65.9343C406.444 64.6586 406.398 63.4174 406.363 62.2336L406.501 65.9343ZM364.807 40.0295C364.807 40.0295 364.83 40.018 364.818 39.995C364.761 39.9835 364.933 39.8686 364.968 39.8341C364.968 39.8341 364.968 39.8341 364.979 39.8341C365.025 39.8226 365.117 39.7766 365.324 39.6962C365.462 39.6502 365.624 39.5812 365.808 39.5008C365.877 39.7766 365.957 40.0524 366.038 40.3283L364.692 40.2938C364.692 40.2938 364.703 40.2363 364.715 40.2248C364.738 40.1559 364.772 40.0984 364.795 40.041L364.807 40.0295ZM365.658 47.1665L365.451 46.9596C365.382 46.8792 365.324 46.7528 365.255 46.6608L365.163 46.5114C365.209 46.5804 365.152 46.4425 365.14 46.408L365.048 46.0977C364.91 45.6954 364.853 45.2357 364.784 44.822C364.657 43.9715 364.577 43.1555 364.507 42.4544C364.507 42.3625 364.507 42.2821 364.507 42.1901L366.728 42.5119L366.659 42.2591C366.728 42.4889 366.797 42.7073 366.878 42.9371C367.361 45.0748 367.694 46.8907 367.971 48.4652C367.073 48.1894 366.222 47.7067 365.669 47.155L365.658 47.1665ZM315.806 213.445C318.153 211.686 319.614 210.491 320.627 208.629C321.639 206.767 322.191 204.63 323.123 203.434C323.917 202.423 347.135 184.15 353.98 178.771C353.98 178.771 354.832 179.035 355.568 178.771C355.89 178.656 357.547 177.07 359.296 175.335C359.618 180.265 359.813 183.471 359.779 183.931C359.641 186.368 356.385 193.229 355.844 195.229C355.637 195.976 355.119 199.079 354.509 202.963H354.44C354.44 202.963 354.44 203.17 354.417 203.515C353.405 209.916 352.174 218.145 351.645 221.536C350.759 227.11 352.715 228.133 353.14 228.133H353.9C353.865 231.937 353.877 235.201 353.957 237.017C354.291 243.82 357.558 308.835 359.296 322.109C361.033 335.372 362.402 361.587 360.998 384.837C359.606 408.076 359.342 411.949 358.858 413.351C358.375 414.753 356.212 416.73 356.811 418.661C357.029 419.35 357.294 419.913 357.662 420.362C357.512 420.339 357.351 420.327 357.202 420.304C357.202 420.304 356.788 420.982 356.695 421.695C356.603 422.407 356.132 426.211 356.086 426.591C356.063 426.775 356.143 427.2 356.511 427.694C356.212 428.05 355.902 428.395 355.579 428.705L355.418 428.487C355.338 428.372 355.234 428.303 355.119 428.246C355.119 428.05 355.096 427.866 355.062 427.683L310.433 217.789C310.744 217.479 311.066 217.157 311.388 216.812C312.354 215.812 313.448 215.192 315.795 213.422L315.806 213.445ZM439.878 154.716C439.084 154.981 438.037 155.038 436.875 154.992C437.853 149.66 438.601 145.695 438.624 145.522C438.958 143.798 439.303 142.074 439.625 140.362C439.648 140.212 439.682 140.075 439.705 139.925C440.027 138.213 440.35 136.5 440.66 134.822C440.798 134.075 440.936 133.328 441.074 132.57C441.074 132.558 441.074 132.547 441.074 132.535C442.766 134.271 446.896 138.351 450.003 140.155C448.668 140.741 448.564 143.132 449.266 144.396C446.528 148.131 442.248 153.935 439.866 154.716H439.878ZM463.556 162.428C463.556 162.428 463.671 162.382 463.717 162.359C463.717 162.359 463.648 162.394 463.556 162.428Z" fill="#4d52ad2e"/>
</g>
<path d="M235.603 75.3928C236.892 75.048 237.663 73.7149 237.318 72.4277L231.784 51.7061C231.439 50.4189 230.438 50.1775 229.54 51.1659L221.417 60.2338C220.532 61.2221 220.083 63.0955 220.428 64.3827L223.557 76.0824C223.903 77.3696 225.237 78.1396 226.526 77.7948L235.603 75.3698V75.3928Z" fill="#2A3BB7"/>
<path d="M253.298 96.5512C251.63 95.5858 242.875 86.4835 241.448 81.1508C240.021 75.8182 239.435 73.623 239.216 72.8185C238.997 72.014 238.215 69.9683 237.191 70.2441C236.167 70.52 229.816 72.2094 229.816 72.2094C229.816 72.2094 223.465 73.8989 222.441 74.1747C221.418 74.4505 221.763 76.6112 221.981 77.4157C222.2 78.2202 222.787 80.4153 224.213 85.748C225.64 91.0806 222.591 103.332 221.625 104.998C220.658 106.665 219.45 110.745 219.922 112.503C220.394 114.262 221.475 118.307 221.475 118.307L240.781 113.158L260.086 108.01C260.086 108.01 259.005 103.964 258.533 102.206C258.062 100.447 254.978 97.5166 253.31 96.5512H253.298Z" fill="#C6D5F2"/>
<path d="M272.132 142.499C272.65 144.442 271.499 146.43 269.555 146.947L232.669 156.785C230.725 157.302 228.735 156.153 228.217 154.211L219.312 120.87C218.794 118.928 219.945 116.939 221.889 116.422L258.775 106.584C260.719 106.067 262.71 107.216 263.227 109.159L272.132 142.499Z" fill="#D0DEF5"/>
<path d="M353.923 448.588C354.441 450.53 353.29 452.519 351.346 453.036L314.46 462.874C312.516 463.391 310.525 462.241 310.008 460.299L301.103 426.959C300.585 425.016 301.735 423.028 303.68 422.511L340.565 412.673C342.51 412.156 344.5 413.305 345.018 415.247L353.923 448.588Z" fill="#2C385E"/>
<path d="M353.094 427.51C353.612 429.452 352.461 431.441 350.517 431.958L304.646 444.186C302.702 444.703 300.711 443.554 300.193 441.612L223.914 156.142C223.396 154.199 224.547 152.211 226.491 151.694L272.362 139.465C274.307 138.948 276.297 140.098 276.815 142.04L353.094 427.51Z" fill="#546FFF"/>
<path d="M331.039 409.168C331.557 411.11 330.406 413.098 328.462 413.615L314.633 417.304C312.688 417.822 310.698 416.672 310.18 414.73L244.255 167.991C243.738 166.048 244.888 164.06 246.832 163.543L260.662 159.854C262.606 159.336 264.596 160.486 265.114 162.428L331.05 409.168H331.039Z" fill="#2A3BB7"/>
<path d="M294.015 206.423L294.395 207.825C294.395 207.825 293.44 210.755 292.669 211.859C291.898 212.962 290.173 214.778 289.988 217.41C289.793 220.042 290.23 220.95 290.759 221.34C291.289 221.72 292.531 221.536 293.014 221.145C293.498 220.766 294.36 218.513 295.12 218.076C295.891 217.64 296.754 216.686 297.662 215.686C298.571 214.686 299.63 214.054 301.885 212.284C304.14 210.514 305.532 209.319 306.441 207.446C307.35 205.572 307.787 203.423 308.65 202.228C309.513 201.033 339.944 175.955 339.944 175.955L326.011 159.727C326.011 159.727 302.518 191.402 301.367 192.551C300.217 193.7 299.066 194.47 297.536 195.045C296.006 195.619 291.312 196.217 291.312 196.217L294.038 206.411L294.015 206.423Z" fill="#FFD2BA"/>
<path d="M324.516 161.727C324.516 161.727 328.681 164.83 332.615 169.002C336.55 173.174 338.126 177.461 338.126 177.461C338.126 177.461 338.989 177.737 339.714 177.461C340.427 177.185 347.48 169.485 347.63 169.289C347.779 169.094 349.47 169.623 350.299 169.048C351.127 168.473 358.375 162.279 358.421 157.888C358.467 153.487 355.223 103.206 355.223 103.206L333.306 95.0227C333.306 95.0227 331.856 96.7926 332.247 98.7119C332.627 100.631 334.744 138.741 334.928 140.753C335.123 142.764 334.353 143.339 333.973 144.292C333.593 145.246 333.306 147.166 333.306 147.166C333.306 147.166 331.442 148.464 331.177 148.775C330.924 149.073 330.993 150.625 330.993 150.625C330.993 150.625 324.596 158.773 324.125 159.532C323.653 160.29 323.768 161.152 324.527 161.739L324.516 161.727Z" fill="#154747"/>
<path d="M291.289 196.217L294.015 206.411L294.395 207.813L296.811 195.252C294.89 195.757 291.289 196.206 291.289 196.206V196.217Z" fill="#FFB1A4"/>
<path d="M325.459 456.219H353.209L359.18 426.165C359.18 426.165 358.824 423.775 357.811 423.557C356.799 423.338 355.085 427.797 352.703 429.372C350.321 430.946 343.073 437.061 339.829 439.21C336.584 441.359 334.72 443.37 333.789 443.876C332.857 444.382 331.994 445.531 331.557 446.531C331.119 447.531 325.447 456.208 325.447 456.208L325.459 456.219Z" fill="#663733"/>
<path d="M359.227 425.579C357.305 425.579 355.775 428.257 354.245 429.889C352.715 431.521 339.438 441.095 337.344 442.336C335.261 443.577 334.974 444.83 335.445 446.554C335.929 448.278 337.608 452.392 337.344 456.231H384.826C384.826 456.231 385.596 448.278 385.309 443.106C385.021 437.934 382.674 425.579 382.674 425.579H359.238H359.227Z" fill="#854842"/>
<path d="M351.38 456.219H384.837C384.837 456.219 385.608 448.266 385.32 443.094C385.24 441.577 384.975 439.44 384.641 437.176C377.991 440.497 356.557 443.301 351.38 456.208V456.219Z" fill="#663733"/>
<path d="M384.101 433.716C379.947 434.509 366.578 438.44 364.553 456.219H365.715C367.717 439.072 380.361 435.521 384.273 434.831C384.216 434.452 384.158 434.084 384.089 433.716H384.101Z" fill="#663733"/>
<path d="M336.676 456.219C336.676 456.219 336.561 453.3 335.756 450.07C334.95 446.841 333.869 445.83 333.443 445.255C333.018 444.68 331.717 444.244 330.786 444.818C329.854 445.393 326.667 446.898 323.94 447.829C321.213 448.76 313.022 450.059 312.446 456.208H336.676V456.219Z" fill="#854842"/>
<path d="M358.743 434.751C358.743 435.544 358.111 436.176 357.317 436.176C356.523 436.176 355.89 435.544 355.89 434.751C355.89 433.958 356.523 433.325 357.317 433.325C358.111 433.325 358.743 433.958 358.743 434.751Z" fill="#4A2825"/>
<path d="M357.949 434.141C358.237 434.521 358.168 435.061 357.788 435.348C357.409 435.636 356.868 435.567 356.58 435.187L352.128 429.372C351.84 428.993 351.909 428.453 352.289 428.165C352.669 427.878 353.209 427.947 353.497 428.326L357.949 434.141Z" fill="#BD8255"/>
<path d="M354.072 437.555C354.072 438.348 353.439 438.98 352.645 438.98C351.852 438.98 351.219 438.348 351.219 437.555C351.219 436.762 351.852 436.13 352.645 436.13C353.439 436.13 354.072 436.762 354.072 437.555Z" fill="#4A2825"/>
<path d="M353.29 436.946C353.577 437.325 353.508 437.865 353.129 438.153C352.749 438.44 352.208 438.371 351.921 437.992L347.859 432.682C347.572 432.303 347.641 431.763 348.02 431.475C348.4 431.188 348.941 431.257 349.228 431.636L353.29 436.946Z" fill="#BD8255"/>
<path d="M349.401 440.371C349.401 441.164 348.768 441.796 347.974 441.796C347.18 441.796 346.547 441.164 346.547 440.371C346.547 439.578 347.18 438.946 347.974 438.946C348.768 438.946 349.401 439.578 349.401 440.371Z" fill="#4A2825"/>
<path d="M348.619 439.761C348.906 440.141 348.837 440.681 348.457 440.968C348.078 441.256 347.537 441.187 347.249 440.807L343.568 435.992C343.28 435.613 343.349 435.072 343.729 434.785C344.108 434.498 344.649 434.567 344.937 434.946L348.619 439.761Z" fill="#BD8255"/>
<path d="M344.73 443.175C344.73 443.968 344.097 444.6 343.303 444.6C342.509 444.6 341.876 443.968 341.876 443.175C341.876 442.382 342.521 441.75 343.303 441.75C344.085 441.75 344.73 442.382 344.73 443.175Z" fill="#4A2825"/>
<path d="M343.948 442.577C344.235 442.956 344.166 443.497 343.786 443.784C343.407 444.071 342.866 444.002 342.578 443.623L339.288 439.302C339 438.922 339.069 438.382 339.449 438.095C339.829 437.808 340.369 437.877 340.657 438.256L343.948 442.577Z" fill="#BD8255"/>
<path d="M340.07 445.991C340.07 446.784 339.437 447.416 338.643 447.416C337.85 447.416 337.217 446.784 337.217 445.991C337.217 445.198 337.861 444.565 338.643 444.565C339.426 444.565 340.07 445.198 340.07 445.991Z" fill="#4A2825"/>
<path d="M339.276 445.381C339.564 445.761 339.495 446.301 339.115 446.588C338.736 446.876 338.195 446.807 337.907 446.427L334.996 442.6C334.709 442.221 334.778 441.681 335.158 441.393C335.537 441.106 336.078 441.175 336.366 441.554L339.276 445.381Z" fill="#BD8255"/>
<path d="M312.435 456.219L312.009 460.908C312.009 460.908 312.228 462.368 313.298 462.368H354.072C354.072 462.368 357.581 459.288 358.134 459.288C358.686 459.288 361.263 462.368 361.263 462.368H385.366C385.366 462.368 386.31 461.115 386.402 460.472C386.494 459.828 385.113 452.496 385.113 452.496C385.113 452.496 370.467 453.151 367.522 453.576C364.576 454.001 359.687 456.208 356.741 456.208H312.446L312.435 456.219Z" fill="#BD8255"/>
<path d="M373.608 456.219H401.359L407.33 426.165C407.33 426.165 406.973 423.775 405.961 423.557C404.948 423.338 403.234 427.797 400.852 429.372C398.471 430.946 391.223 437.061 387.978 439.21C384.734 441.359 382.87 443.37 381.938 443.876C381.006 444.382 380.143 445.531 379.706 446.531C379.269 447.531 373.597 456.208 373.597 456.208L373.608 456.219Z" fill="#663733"/>
<path d="M407.387 425.579C405.466 425.579 403.936 428.257 402.405 429.889C400.875 431.521 387.598 441.095 385.504 442.336C383.422 443.577 383.134 444.83 383.606 446.554C384.089 448.278 385.769 452.392 385.504 456.231H432.986C432.986 456.231 433.757 448.278 433.469 443.106C433.182 437.934 430.835 425.579 430.835 425.579H407.399H407.387Z" fill="#854842"/>
<path d="M432.25 433.716C428.097 434.509 414.728 438.44 412.703 456.219H413.865C415.867 439.072 428.499 435.521 432.423 434.831C432.365 434.452 432.307 434.084 432.25 433.716Z" fill="#663733"/>
<path d="M384.826 456.219C384.826 456.219 384.711 453.3 383.905 450.07C383.1 446.841 382.018 445.83 381.593 445.255C381.167 444.68 379.867 444.244 378.935 444.818C378.003 445.393 374.816 446.898 372.089 447.829C369.363 448.76 361.171 450.059 360.596 456.208H384.826V456.219Z" fill="#854842"/>
<path d="M406.904 434.751C406.904 435.544 406.271 436.176 405.477 436.176C404.684 436.176 404.051 435.544 404.051 434.751C404.051 433.958 404.695 433.325 405.477 433.325C406.26 433.325 406.904 433.958 406.904 434.751Z" fill="#4A2825"/>
<path d="M406.11 434.141C406.398 434.521 406.329 435.061 405.949 435.348C405.569 435.636 405.029 435.567 404.741 435.187L400.288 429.372C400.001 428.993 400.07 428.453 400.45 428.165C400.829 427.878 401.37 427.947 401.658 428.326L406.11 434.141Z" fill="#BD8255"/>
<path d="M402.233 437.555C402.233 438.348 401.6 438.98 400.806 438.98C400.012 438.98 399.379 438.348 399.379 437.555C399.379 436.762 400.024 436.13 400.806 436.13C401.588 436.13 402.233 436.762 402.233 437.555Z" fill="#4A2825"/>
<path d="M401.439 436.946C401.726 437.325 401.657 437.865 401.278 438.153C400.898 438.44 400.357 438.371 400.069 437.992L396.008 432.682C395.721 432.303 395.79 431.763 396.169 431.475C396.549 431.188 397.09 431.257 397.377 431.636L401.439 436.946Z" fill="#BD8255"/>
<path d="M397.561 440.371C397.561 441.164 396.928 441.796 396.135 441.796C395.341 441.796 394.708 441.164 394.708 440.371C394.708 439.578 395.341 438.946 396.135 438.946C396.928 438.946 397.561 439.578 397.561 440.371Z" fill="#4A2825"/>
<path d="M396.779 439.761C397.067 440.141 396.998 440.681 396.618 440.968C396.238 441.256 395.698 441.187 395.41 440.807L391.728 435.992C391.441 435.613 391.51 435.072 391.889 434.785C392.269 434.498 392.81 434.567 393.098 434.946L396.779 439.761Z" fill="#BD8255"/>
<path d="M392.89 443.175C392.89 443.968 392.258 444.6 391.464 444.6C390.67 444.6 390.037 443.968 390.037 443.175C390.037 442.382 390.67 441.75 391.464 441.75C392.258 441.75 392.89 442.382 392.89 443.175Z" fill="#4A2825"/>
<path d="M392.108 442.577C392.396 442.956 392.327 443.497 391.947 443.784C391.567 444.071 391.027 444.002 390.739 443.623L387.449 439.302C387.161 438.922 387.23 438.382 387.61 438.095C387.989 437.808 388.53 437.877 388.818 438.256L392.108 442.577Z" fill="#BD8255"/>
<path d="M388.219 445.991C388.219 446.784 387.587 447.416 386.793 447.416C385.999 447.416 385.366 446.784 385.366 445.991C385.366 445.198 385.999 444.565 386.793 444.565C387.587 444.565 388.219 445.198 388.219 445.991Z" fill="#4A2825"/>
<path d="M387.437 445.381C387.725 445.761 387.656 446.301 387.276 446.588C386.896 446.876 386.356 446.807 386.068 446.427L383.157 442.6C382.869 442.221 382.939 441.681 383.318 441.393C383.698 441.106 384.239 441.175 384.526 441.554L387.437 445.381Z" fill="#BD8255"/>
<path d="M360.596 456.219L360.17 460.908C360.17 460.908 360.389 462.368 361.459 462.368H402.233C402.233 462.368 405.753 459.288 406.294 459.288C406.835 459.288 409.424 462.368 409.424 462.368H433.527C433.527 462.368 434.47 461.115 434.562 460.472C434.654 459.828 433.274 452.496 433.274 452.496C433.274 452.496 418.628 453.151 415.682 453.576C412.737 454.001 407.847 456.208 404.902 456.208H360.607L360.596 456.219Z" fill="#BD8255"/>
<path d="M339.921 201.768C339.921 201.768 340.623 229.155 341.348 235.994C342.072 242.832 348.952 308.146 351.438 321.477C353.923 334.809 356.741 361.139 356.649 384.493C356.546 407.834 356.511 411.731 356.097 413.133C355.694 414.535 353.647 416.535 354.348 418.465C355.05 420.396 356.12 421.35 358.421 421.545C360.711 421.741 380.35 423.396 382.502 423.58C384.653 423.764 385.769 419.097 385.7 418.224C385.631 417.351 384.216 415.213 384.469 412.351C384.711 409.489 390.808 364.736 388.496 345.934C386.195 327.143 385.608 322.041 386.126 319.351C386.643 316.662 387 314.087 386.563 312.467C386.126 310.847 384.02 306.767 384.549 303.79C385.09 300.802 392.108 246.9 392.649 237.143C393.19 227.386 388.611 203.101 388.611 203.101L339.944 201.757L339.921 201.768Z" fill="#3F4E7A"/>
<path d="M391.798 246.084H374.402C374.402 246.084 373.458 286.459 385.251 308.847C384.699 307.192 384.262 305.341 384.538 303.79C384.987 301.342 389.796 264.565 391.798 246.084Z" fill="#2C385E"/>
<path d="M383.905 253.946C383.422 264.094 380.247 283.436 380.062 286.781C379.878 290.125 381.34 305.824 381.34 305.824C381.34 305.824 381.259 299.043 381.19 297.411C381.109 295.779 380.707 287.78 380.764 286.712C380.822 285.631 383.031 267.473 383.353 265.013C383.675 262.554 383.917 253.946 383.917 253.946H383.905Z" fill="#2C385E"/>
<path d="M383.514 309.973C383.514 309.973 380.822 311.984 380.028 311.915C379.234 311.846 373.781 308.939 368.626 305.112C373.286 311.421 380.822 315.363 381.501 315.064C382.18 314.766 383.514 309.973 383.514 309.973Z" fill="#2C385E"/>
<path d="M380.431 308.847L377.796 303.284C377.796 303.284 376.197 306.031 380.431 308.847Z" fill="#2C385E"/>
<path d="M381.132 422.281L380.58 422.132C381.259 419.615 381.063 416.833 380.937 415.178C380.914 414.914 380.902 414.673 380.891 414.466C380.856 413.88 381.374 408.513 382.283 399.054C383.571 385.676 385.355 367.368 385.769 359.266C386.448 346.244 382.329 319.512 382.283 319.236C382.283 319.236 383.617 324.144 384.434 330.729C385.539 339.671 386.735 351.761 386.344 359.289C385.918 367.403 384.147 385.722 382.858 399.1C382.064 407.34 381.431 413.857 381.466 414.42C381.466 414.627 381.5 414.857 381.512 415.121C381.639 416.822 381.846 419.661 381.132 422.27V422.281Z" fill="#2C385E"/>
<path d="M354.82 420.109C354.82 420.109 354.441 420.798 354.395 421.511C354.349 422.224 354.084 426.051 354.061 426.43C354.038 426.809 354.464 428.28 357.328 429.2C360.193 430.119 370.065 431.901 373.792 432.165C377.52 432.418 382.985 431.935 383.629 431.74C384.262 431.544 384.561 430.751 384.619 429.981C384.665 429.223 385.056 423.626 385.102 422.959C385.148 422.293 384.872 421.591 384.872 421.591C384.872 421.591 371.514 422.12 354.832 420.109H354.82Z" fill="#6077BA"/>
<path d="M370.122 431.728C371.583 431.935 372.872 432.096 373.792 432.165C374.483 432.211 375.23 432.234 376.001 432.234L376.738 421.614C374.989 421.58 373.01 421.522 370.835 421.419L370.122 431.728Z" fill="#9CB1F0"/>
<path d="M371.928 431.969C372.642 432.061 373.274 432.119 373.792 432.165C374.022 432.176 374.264 432.199 374.505 432.199L375.242 421.58C374.425 421.557 373.562 421.534 372.653 421.5L371.928 431.969Z" fill="#D94F4F"/>
<path d="M368.948 206.135C368.948 206.135 371.963 233.362 373.251 240.12C374.54 246.877 386.919 311.375 390.509 324.454C394.099 337.533 399.138 363.529 401.002 386.802C402.866 410.075 403.165 413.949 402.866 415.397C402.566 416.845 400.703 418.982 401.577 420.856C402.451 422.729 403.59 423.591 405.891 423.591H430.052C432.215 423.591 432.929 418.856 432.791 417.983C432.653 417.109 431.065 415.109 431.065 412.236C431.065 409.363 433.366 364.254 429.477 345.716C425.588 327.178 424.587 322.155 424.875 319.42C425.163 316.685 425.312 314.11 424.737 312.524C424.162 310.938 421.723 307.065 421.999 304.043C422.275 301.02 424.737 246.716 424.438 236.948C424.139 227.179 417.535 203.365 417.535 203.365L368.925 206.124L368.948 206.135Z" fill="#3F4E7A"/>
<path d="M417.178 254.428C417.546 264.576 416.016 284.114 416.108 287.47C416.2 290.826 418.984 306.341 418.984 306.341C418.984 306.341 418.34 299.584 418.121 297.975C417.903 296.354 416.833 288.424 416.787 287.344C416.752 286.263 417.431 267.99 417.535 265.507C417.65 263.025 417.166 254.428 417.166 254.428H417.178Z" fill="#2C385E"/>
<path d="M421.504 310.283C421.504 310.283 418.984 312.513 418.202 312.513C417.42 312.513 411.736 310.076 406.271 306.698C411.448 312.582 419.283 315.892 419.928 315.535C420.572 315.179 421.504 310.295 421.504 310.295V310.283Z" fill="#2C385E"/>
<path d="M418.34 309.421L415.245 304.112C415.245 304.112 413.876 306.985 418.34 309.421Z" fill="#2C385E"/>
<path d="M428.603 422.396L428.039 422.292C428.51 419.729 428.073 416.971 427.809 415.328C427.763 415.063 427.728 414.834 427.705 414.627C427.625 414.052 427.682 408.65 427.797 399.157C427.958 385.722 428.188 367.322 427.924 359.22C427.498 346.187 421.136 319.891 421.078 319.627C421.078 319.627 422.827 324.408 424.185 330.901C426.037 339.716 428.257 351.657 428.499 359.197C428.764 367.311 428.545 385.722 428.372 399.169C428.269 407.455 428.2 413.995 428.269 414.546C428.303 414.742 428.338 414.983 428.372 415.236C428.637 416.914 429.086 419.729 428.603 422.396Z" fill="#2C385E"/>
<path d="M402.152 421.844C402.152 421.844 401.818 422.557 401.818 423.269V428.2C401.818 428.579 402.348 430.016 405.27 430.74C408.192 431.452 418.167 432.556 421.906 432.556C425.646 432.556 431.065 431.694 431.686 431.452C432.307 431.211 432.549 430.395 432.549 429.636V422.603C432.549 421.936 432.227 421.247 432.227 421.247C432.227 421.247 418.938 422.695 402.152 421.844Z" fill="#6077BA"/>
<path d="M418.225 432.394C419.698 432.509 420.998 432.578 421.918 432.578C422.609 432.578 423.356 432.544 424.127 432.498V421.844C422.378 421.936 420.4 422.005 418.237 422.062V432.394H418.225Z" fill="#9CB1F0"/>
<path d="M420.043 432.509C420.756 432.544 421.4 432.567 421.907 432.567C422.137 432.567 422.378 432.567 422.62 432.567V421.925C421.803 421.959 420.94 421.994 420.031 422.017V432.521L420.043 432.509Z" fill="#D94F4F"/>
<path d="M363.863 235.948L373.01 238.671L389.566 231.534L373.562 241.671L363.863 235.948Z" fill="#2C385E"/>
<path d="M373.286 240.614L373.079 240.43C372.906 240.269 368.902 236.58 368.131 232.362C367.372 228.236 365.658 209.043 365.635 208.848L366.21 208.802C366.233 208.997 367.947 228.156 368.695 232.258C369.339 235.752 372.446 239.005 373.263 239.809L374.586 238.453C374.448 236.856 373.125 220.984 372.25 207.71L372.826 207.675C373.734 221.593 375.15 238.373 375.173 238.534V238.66L373.286 240.602V240.614Z" fill="#2C385E"/>
<path d="M378.958 240.545C378.958 240.545 388.312 237.603 393.581 237.166C393.581 237.166 387.46 234.511 378.958 240.545Z" fill="#2C385E"/>
<path d="M370.018 241.441L361.827 239.039C361.827 239.039 364.668 238.936 365.635 239.039C366.601 239.143 370.018 241.441 370.018 241.441Z" fill="#2C385E"/>
<path d="M408.676 203.883C408.676 203.883 416.212 226.834 417.167 248.394C417.167 248.394 417.742 222.742 410.356 203.779L408.665 203.894L408.676 203.883Z" fill="#2C385E"/>
<path d="M409.309 233.546C409.309 233.546 417.558 232.925 421.723 230.845C421.723 230.845 417.811 236.04 409.309 233.546Z" fill="#2C385E"/>
<path d="M411.713 236.672C411.713 236.672 417.616 236.224 420.607 234.729C420.607 234.729 417.811 238.453 411.713 236.672Z" fill="#2C385E"/>
<path d="M417.949 201.94L375.794 203.94V201.55C375.794 200.642 375.058 199.906 374.149 199.906H360.043C359.134 199.906 358.398 200.642 358.398 201.55V204.756L343.786 205.446C343.786 205.446 343.453 206.836 343.016 208.641C343.073 208.664 343.131 208.698 343.188 208.71C343.625 208.813 349.309 209.514 358.398 209.848C358.456 210.71 359.157 211.388 360.032 211.388H374.137C374.989 211.388 375.679 210.744 375.759 209.916C380.2 209.79 384.964 209.56 389.957 209.158C416.051 207.055 418.283 204.894 418.49 204.469C418.605 204.228 418.743 203.986 418.835 203.687C418.524 202.998 418.225 202.389 417.937 201.929L417.949 201.94Z" fill="#2C385E"/>
<path d="M343.81 197.722C343.81 197.722 342.648 205.526 342.579 205.997C342.51 206.48 342.371 207.296 343.2 207.503C344.017 207.71 363.875 210.054 389.968 207.963C416.062 205.871 418.294 203.699 418.501 203.274C418.708 202.848 418.984 202.446 418.915 201.688C418.846 200.929 415.97 195.045 415.97 195.045L343.821 197.711L343.81 197.722Z" fill="#ED9258"/>
<path d="M360.044 198.952H374.149C375.058 198.952 375.794 199.688 375.794 200.596V208.813C375.794 209.721 375.058 210.457 374.149 210.457H360.044C359.135 210.457 358.398 209.721 358.398 208.813V200.596C358.398 199.688 359.135 198.952 360.044 198.952Z" fill="#404040"/>
<path d="M396.627 198.071L391.297 198.532L392.267 209.719L397.597 209.257L396.627 198.071Z" fill="#3F4E7A"/>
<path d="M348.086 198.384L347.116 209.571L352.435 210.031L353.405 198.844L348.086 198.384Z" fill="#3F4E7A"/>
<path d="M383.525 48.9939C383.525 48.9939 383.261 71.5313 389.289 86.495H356.131L357.961 63.0381L383.537 48.9824L383.525 48.9939Z" fill="#FFD2BA"/>
<path d="M383.525 48.9939L357.949 63.0496L357.225 72.4163C358.766 73.9678 360.285 75.3814 360.964 75.6458C362.609 76.2779 366.164 75.7607 368.454 74.1862C377.06 68.2444 381.639 60.2569 383.687 55.7287C383.491 51.6487 383.514 49.0054 383.514 49.0054L383.525 48.9939Z" fill="#FFB1A4"/>
<path d="M343.43 41.0064C345.489 48.3963 345.627 51.8671 347.813 55.6138C350.011 59.349 355.441 64.1415 356.902 65.785C358.364 67.4284 358.962 67.9341 359.514 67.9801C360.055 68.026 363.667 67.7962 366.268 66.6584C368.868 65.5206 382.26 52.7866 382.939 51.281C383.617 49.7754 385.056 39.7652 385.056 39.7652C385.056 39.7652 390.394 31.5478 388.07 19.5033C385.734 7.45885 374.367 -1.22973 358.881 1.97677C343.395 5.19476 335.043 19.9745 343.418 41.0064H343.43Z" fill="#FFD2BA"/>
<path d="M375.656 19.3539C375.656 19.3539 376.254 26.3645 376.358 27.1575C376.461 27.9391 378.958 30.479 379.337 31.7777C379.717 33.0763 380.292 38.0872 380.292 38.0872L383.203 36.0415L390.221 34.467C390.221 34.467 392.626 27.3069 391.027 18.6414L375.667 19.3539H375.656Z" fill="#2E2E2E"/>
<path d="M340.105 13.7454C340.105 13.7454 339.748 11.0676 340.105 9.91827C340.461 8.76899 350.908 0.632067 364.381 0.0574256C377.853 -0.517216 385.734 3.57423 389.865 10.4699C393.984 17.3656 395.399 29.3067 395.111 35.3404C395.111 35.3404 393.477 34.2486 392.718 33.4096C391.66 40.6271 386.85 50.9247 383.917 59.3374L383.571 48.764L383.802 47.5803L386.862 38.4779L384.618 26.6173L367.165 15.0786L340.105 13.7339V13.7454Z" fill="#2E2E2E"/>
<path d="M382.904 36.6735C382.904 36.6735 382.939 33.1452 383.111 32.1569C383.284 31.1685 383.698 30.272 384.86 29.3181C386.022 28.3642 387.161 27.8126 387.84 28.1918C388.519 28.5711 390.072 31.2374 390.302 32.9154C390.544 34.5933 388.45 43.2819 387.806 44.753C387.15 46.2241 383.56 47.8676 383.388 47.6607C383.215 47.4538 382.904 36.6735 382.904 36.6735Z" fill="#FFD2BA"/>
<path d="M364.818 33.8119C362.77 35.4209 362.69 37.9723 362.828 38.5814C362.966 39.202 367.2 39.3169 369.167 38.3286C371.135 37.3402 371.652 35.0646 371.549 34.3291C370.433 33.2487 368.385 32.1339 364.818 33.8119Z" fill="white"/>
<path d="M370.847 35.5586C370.847 37.1791 369.443 38.4893 367.717 38.4893C365.991 38.4893 364.588 37.1791 364.588 35.5586C364.588 33.9381 365.991 32.6279 367.717 32.6279C369.443 32.6279 370.847 33.9381 370.847 35.5586Z" fill="#2E2E2E"/>
<path d="M362.126 38.4895C362.126 38.4895 363.104 34.2601 366.578 33.4901C370.053 32.7201 371.56 35.0991 371.56 35.0991L372.573 33.8119C372.573 33.8119 370.018 31.4788 366.417 32.4213C362.851 33.3637 361.919 36.9839 362.114 38.478L362.126 38.4895Z" fill="#1C1C1C"/>
<path d="M356.523 31.6511C356.523 31.6511 358.03 33.0762 359.975 32.6395C361.919 32.2028 366.187 28.617 372.239 29.3066C372.239 29.3066 368.661 27.6861 365.152 28.2607C359.998 29.0997 356.523 31.6511 356.523 31.6511Z" fill="#1C1C1C"/>
<path d="M345.179 40.6959C345.179 40.6959 345.42 41.7073 346.755 42.4084C348.584 43.3738 351.518 42.5808 351.668 41.6613C351.817 40.7534 351.357 39.4547 350.586 38.8456C349.815 38.2365 346.042 37.4205 345.179 40.6844V40.6959Z" fill="white"/>
<path d="M351.311 39.8341C351.633 41.0638 350.966 42.305 349.827 42.6038C348.688 42.9026 347.491 42.1556 347.169 40.9259C346.847 39.6961 347.514 38.4549 348.653 38.1561C349.804 37.8573 350.989 38.6043 351.311 39.8341Z" fill="#2E2E2E"/>
<path d="M351.668 40.4776C351.668 40.4776 350.114 37.9147 347.675 38.5928C345.466 39.2134 345.34 41.5349 345.34 41.5349L344.051 41.0408C344.051 41.0408 344.534 38.1331 347.652 37.7308C350.46 37.3631 351.472 39.1674 351.645 40.4891L351.668 40.4776Z" fill="#1C1C1C"/>
<path d="M350.183 33.7544C350.183 33.7544 349.459 34.8692 347.997 34.9611C346.536 35.0531 343.925 34.7887 341.716 36.0414L341.52 35.3519C341.52 35.3519 343.269 33.9153 345.432 33.582C348.239 33.1453 350.183 33.7659 350.183 33.7659V33.7544Z" fill="#1C1C1C"/>
<path d="M355.407 52.2004C355.407 52.2004 354.912 51.5453 354.406 51.304C353.911 51.0626 352.508 50.1892 352.646 49.8099C352.784 49.4306 356.051 49.0744 357.8 49.2927C359.549 49.5111 360.745 50.0283 360.561 50.442C360.377 50.8672 357.823 52.0165 355.407 52.1889V52.2004Z" fill="#FFB8A3"/>
<path d="M352.519 38.4895C352.519 38.4895 353.163 41.5581 353.163 45.1438C353.163 48.7296 352.634 49.0399 352.841 49.7984C353.048 50.5455 354.371 50.7294 354.901 51.373C355.43 52.0166 355.626 52.7406 355.626 52.7406C355.626 52.7406 354.533 51.6718 353.658 51.327C352.795 50.9822 351.944 50.6834 351.898 49.8444C351.852 49.0054 353.014 45.6151 352.519 38.4895Z" fill="#DB8472"/>
<path d="M357.328 50.936C357.328 50.936 356.258 50.5913 356.672 50.1201C357.087 49.6374 359.273 50.6142 359.273 50.6142L357.328 50.9475V50.936Z" fill="#DB8472"/>
<path d="M354.026 57.7514C354.026 57.7514 353.739 57.8319 353.762 58.0732C353.785 58.3146 354.417 58.5904 354.935 58.5214C355.453 58.4525 357.949 57.6365 360.826 56.5217C363.702 55.4069 366.797 54.1657 368.005 53.3382C369.201 52.5222 369.524 51.8671 369.374 51.6947C369.225 51.5223 368.5 51.6142 368.362 51.6947C368.224 51.7751 367.798 52.5337 367.579 52.729C367.361 52.9244 363.472 55.177 358.628 56.9354C356.143 57.8434 354.809 58.0387 354.705 57.9813C354.601 57.9353 354.176 57.5675 354.026 57.7399V57.7514Z" fill="#D67061"/>
<path d="M361.378 60.9005C361.378 60.9005 359.94 59.9006 359.043 60.0615C358.157 60.2224 357.765 60.751 357.927 60.9005C358.088 61.0614 358.858 62.0153 361.378 60.9005Z" fill="#FFB8A3"/>
<path d="M388.519 33.7315C388.519 33.7315 387.311 31.3065 386.609 31.6053C385.919 31.9156 385.539 33.8694 385.608 34.4096C385.677 34.9612 386.494 35.7198 386.402 36.0071C386.298 36.2944 385.378 35.8807 385.171 36.3289C384.964 36.7771 385.424 37.5471 385.424 38.0873C385.424 38.6275 385.343 40.7306 385.343 41.811C385.343 42.2247 387.437 41.3742 387.805 40.0296C388.231 38.4895 388.829 35.1336 388.519 33.7315Z" fill="#FFB1A4"/>
<path d="M344.833 21.6066C344.833 21.6066 348.458 32.2374 355.625 35.1566C356.005 32.858 355.625 24.6177 355.625 24.6177C355.625 24.6177 358.858 28.3414 362.333 29.2148C362.333 29.2148 361.896 28.0196 361.585 27.376C367.073 28.985 372.572 30.4331 372.572 30.4331C372.572 30.4331 371.583 27.2036 370.456 24.6637C370.456 24.6637 376.139 29.2148 377.474 29.9733C377.474 29.9733 377.853 29.2493 377.669 28.054C377.669 28.054 385.723 32.5018 385.723 32.1915C385.723 31.8811 383.951 27.1461 383.951 27.1461C383.951 27.1461 379.268 3.67775 369.409 2.72385C359.549 1.76994 340.369 12.056 340.369 12.056C340.369 12.056 332.557 23.0202 338.264 37.0069C338.264 37.0069 339.127 34.4785 339.415 32.9385C339.829 35.8347 343.487 38.4665 343.487 38.4665C343.487 38.4665 342.901 31.318 343.154 28.123C343.154 28.123 344.396 29.8124 345.547 30.4101L344.833 21.5836V21.6066Z" fill="#2E2E2E"/>
<path d="M365.946 84.4953H374.436L392.73 71.313C392.73 71.313 400.404 74.7838 409.309 77.9099C418.214 81.0359 425.002 81.3117 426.647 83.0242C428.292 84.7366 425.278 110.331 422.356 133.328C419.433 156.325 414.682 183.977 414.774 185.069C414.866 186.161 418.524 191.367 418.524 193.011C418.524 194.654 416.511 198.389 414.325 198.481C412.127 198.573 383.445 204.044 364.623 203.32C345.8 202.584 344.155 200.676 344.155 200.676C344.155 200.676 341.509 196.665 341.417 195.114C341.325 193.562 345.524 183.793 345.524 183.793C345.524 183.793 336.792 115.285 335.883 108.895C334.974 102.505 333.052 95.7467 334.421 93.747C335.791 91.7357 352.277 80.036 352.277 80.036L365.934 84.5068L365.946 84.4953Z" fill="white"/>
<path d="M367.672 92.77C367.672 93.5974 366.993 94.2755 366.164 94.2755C365.336 94.2755 364.657 93.5974 364.657 92.77C364.657 91.9425 365.336 91.2644 366.164 91.2644C366.993 91.2644 367.672 91.9425 367.672 92.77Z" fill="#B8C1E3"/>
<path d="M369.179 128.846C369.179 129.673 368.5 130.351 367.672 130.351C366.843 130.351 366.165 129.673 366.165 128.846C366.165 128.018 366.843 127.34 367.672 127.34C368.5 127.34 369.179 128.018 369.179 128.846Z" fill="#B8C1E3"/>
<path d="M370.686 166.209C370.686 167.037 370.007 167.715 369.179 167.715C368.35 167.715 367.671 167.037 367.671 166.209C367.671 165.382 368.35 164.704 369.179 164.704C370.007 164.704 370.686 165.382 370.686 166.209Z" fill="#B8C1E3"/>
<path d="M368.948 199.584C368.948 200.412 368.27 201.09 367.441 201.09C366.613 201.09 365.934 200.412 365.934 199.584C365.934 198.757 366.613 198.079 367.441 198.079C368.27 198.079 368.948 198.757 368.948 199.584Z" fill="#B8C1E3"/>
<path d="M383.986 60.2683L384.342 64.1874C384.342 64.1874 365.98 84.3573 365.934 84.4952C365.888 84.6331 380.684 97.4016 381.236 97.3672C381.788 97.3212 382.329 96.9074 382.559 96.3213C382.789 95.7237 393.984 72.1864 394.064 71.6347C394.156 71.0831 394.156 69.8533 393.524 69.6694C392.879 69.4856 389.129 66.4744 388.657 65.7044C388.185 64.9229 387.311 62.5094 386.897 61.9578C386.482 61.4061 383.974 60.2798 383.974 60.2798L383.986 60.2683Z" fill="white"/>
<path d="M365.945 84.4953C365.945 84.4953 361.01 79.0592 357.086 74.2322L357.386 70.3477C357.386 70.3477 355.487 71.5889 355.211 72.0946C354.935 72.6003 354.521 75.0942 354.164 75.9217C353.796 76.7492 351.196 78.8064 351.104 79.5304C351.012 80.266 356.27 97.4133 356.592 97.6431C356.914 97.873 357.639 97.7351 357.961 97.3673C358.283 96.9995 365.957 84.4953 365.957 84.4953H365.945Z" fill="white"/>
<path d="M357.006 98.0108C356.776 98.0108 356.569 97.9648 356.419 97.8499C356.339 97.7925 356.086 97.6201 353.417 88.8396C352.818 86.8743 351.633 82.9207 351.093 80.829C350.908 80.1165 351.07 79.6568 351.093 79.5189C351.093 79.5189 351.461 80.059 351.622 80.6681C352.611 84.4723 356.258 96.4363 356.776 97.4362C356.995 97.5396 357.524 97.4362 357.743 97.1833C358.007 96.8615 362.655 89.3337 365.704 84.3573C365.75 84.2884 365.831 84.2424 365.911 84.2309C366.003 84.2309 366.084 84.2539 366.141 84.3229C366.878 85.0814 380.166 96.5512 381.271 97.0914C381.708 97.0339 382.134 96.6777 382.306 96.2179C382.387 96.0111 383.606 93.4252 385.746 88.8855C388.266 83.5528 391.809 76.025 393.213 72.945C393.57 72.1635 394.053 71.7267 394.076 71.6233C394.076 71.6233 394.11 72.2899 393.662 73.2668C392.557 75.6918 390.13 80.875 386.241 89.1154C384.446 92.9195 382.904 96.2064 382.824 96.4133C382.559 97.0914 381.938 97.5856 381.259 97.6316C380.523 97.6316 367.994 86.6904 366.003 84.909C364.68 87.0582 358.467 97.1833 358.157 97.5396C357.892 97.8384 357.42 98.0108 357.006 98.0108Z" fill="#C6D5F2"/>
<path d="M388.668 65.6929C388.668 65.6929 390.371 71.8875 390.371 83.2999C390.371 113.423 382.271 131.903 380.925 144.028C379.579 156.153 390.728 221.857 391.291 223.581C391.855 225.305 392.235 227.052 396.124 227.052H420.837C423.448 227.052 425.025 220.846 425.025 219.984C425.025 219.122 419.698 193.551 418.915 190.677C418.121 187.804 416.81 185.218 416.603 181.77C416.396 178.323 420.906 144.028 420.906 144.028C420.906 144.028 426.555 83.4033 426.106 82.7252C425.646 82.0472 424.242 80.9324 422.804 80.4267C421.366 79.921 403.314 73.7264 398.793 71.6232C394.26 69.5085 390.705 65.9687 388.668 65.6929Z" fill="#206A6A"/>
<path d="M402.601 227.064C400.518 216.398 389.094 155.728 390.21 144.35C390.59 140.477 391.671 135.88 392.914 130.558C395.548 119.341 399.149 103.976 398.896 83.4723C398.827 78.3005 398.425 74.1976 397.999 71.2439C397.78 71.129 397.573 71.0256 397.366 70.9106C397.803 73.8643 398.252 78.0822 398.31 83.4838C398.563 103.918 394.973 119.238 392.35 130.432C391.096 135.776 390.014 140.396 389.623 144.304C388.507 155.659 399.828 215.893 402.014 227.075H402.589L402.601 227.064Z" fill="#154747"/>
<path d="M419.663 92.2415C413.45 104.481 412.496 131.398 420.917 144.04C421.424 140.431 421.918 136.822 422.355 133.317C424.265 118.261 426.221 102.091 426.877 92.2415H419.663Z" fill="#154747"/>
<path d="M365.025 133.707C363.564 112.951 363.702 95.218 363.84 87.9775L363.276 88.8625C363.138 96.6086 363.081 113.79 364.473 133.742C366.371 160.819 366.406 176.139 366.118 180.932C365.969 183.552 365.313 189.103 364.783 193.562C364.3 197.608 364.036 199.906 364.07 200.274C364.139 201.113 364.714 203.343 364.737 203.434L365.267 203.297C365.267 203.297 364.68 201.009 364.611 200.228C364.588 199.895 364.945 196.849 365.324 193.62C365.853 189.149 366.509 183.598 366.659 180.966C366.946 176.162 366.912 160.808 365.014 133.707H365.025Z" fill="#C6D5F2"/>
<path d="M370.49 203.434C370.467 203.342 369.892 201.101 369.823 200.274C369.788 199.906 370.065 197.607 370.536 193.562C371.065 189.103 371.721 183.552 371.871 180.931C372.147 176.139 372.124 160.819 370.226 133.742C368.718 112.285 368.914 94.0341 369.052 87.2764C369.305 87.5292 369.478 87.5522 369.593 87.7476C369.455 94.8271 369.305 112.733 370.778 133.707C372.676 160.807 372.699 176.162 372.423 180.966C372.274 183.598 371.606 189.16 371.077 193.619C370.697 196.849 370.341 199.895 370.364 200.228C370.433 201.021 371.008 203.273 371.019 203.296L370.49 203.434Z" fill="#C6D5F2"/>
<path d="M411.345 175.472L416.925 184.149C416.764 183.402 416.649 182.621 416.603 181.782C416.569 181.288 416.649 180.161 416.776 178.598L411.345 175.472Z" fill="#154747"/>
<path d="M424.967 82.0818C424.185 82.0933 421.09 84.0356 417.938 99.436C414.785 114.836 418.076 126.053 418.893 128.317C419.709 130.57 420.745 129.133 421.976 130.375C423.207 131.604 430.743 138.994 434.102 139.546H443.962C443.962 139.546 456.503 156.038 456.848 156.728C457.193 157.417 463.418 158.026 463.567 157.279C463.705 156.532 463.498 152.97 464.188 151.257C464.879 149.545 466.927 143.453 465.903 140.649C464.879 137.845 458.022 129.018 456.238 126.823C454.455 124.628 446.505 112.584 443.088 107.044C439.659 101.505 430.547 86.7824 429.661 85.4837C428.775 84.185 426.785 82.0703 424.967 82.0933V82.0818Z" fill="#206A6A"/>
<path d="M418.352 129.168C418.237 129.168 418.133 129.099 418.099 128.984C417.65 127.743 414.325 115.779 417.684 99.3784C419.997 88.081 422.574 82.1622 425.358 81.8174C425.496 81.7944 425.646 81.9093 425.669 82.0587C425.692 82.2081 425.577 82.3461 425.427 82.369C424.012 82.5529 421.194 85.0124 418.225 99.5048C414.843 116.043 418.444 128.317 418.616 128.812C418.674 128.949 418.593 129.11 418.455 129.168C418.421 129.168 418.386 129.179 418.363 129.179L418.352 129.168Z" fill="#154747"/>
<path d="M427.763 108.216C427.763 108.216 427.958 108.239 428.28 108.308C428.603 108.377 429.074 108.458 429.627 108.584C430.179 108.699 430.8 108.883 431.49 109.044C432.169 109.205 432.883 109.412 433.607 109.618C434.321 109.848 435.034 110.055 435.701 110.251C436.035 110.342 436.357 110.457 436.668 110.549C436.978 110.641 437.266 110.745 437.531 110.837C438.589 111.204 439.291 111.538 439.291 111.538L439.256 111.687C439.256 111.687 438.497 111.653 437.381 111.48C437.105 111.434 436.794 111.4 436.472 111.331C436.15 111.273 435.816 111.216 435.471 111.147C435.126 111.078 434.769 111.009 434.401 110.917C434.045 110.814 433.688 110.71 433.32 110.607C432.595 110.388 431.882 110.17 431.214 109.929C430.881 109.825 430.559 109.687 430.259 109.561C429.96 109.435 429.673 109.308 429.419 109.193C428.384 108.733 427.74 108.308 427.74 108.308L427.774 108.216H427.763Z" fill="#154747"/>
<path d="M429.949 111.986C429.949 111.986 430.053 111.986 430.237 111.986C430.409 111.998 430.662 112.009 430.95 112.044C431.238 112.067 431.571 112.147 431.916 112.204C432.273 112.273 432.63 112.365 432.998 112.48C433.723 112.71 434.448 112.94 434.965 113.193C435.495 113.434 435.84 113.664 435.84 113.664L435.805 113.813C435.805 113.813 435.402 113.871 434.816 113.825C434.517 113.813 434.183 113.767 433.815 113.721C433.458 113.676 433.078 113.584 432.71 113.469C432.342 113.354 431.974 113.227 431.629 113.101C431.295 112.963 430.985 112.802 430.731 112.653C430.214 112.365 429.915 112.078 429.915 112.078L429.949 111.986Z" fill="#154747"/>
<path d="M430.961 114.974C430.961 114.974 431.191 114.882 431.491 114.871C431.64 114.859 431.813 114.871 431.985 114.871C432.158 114.882 432.342 114.917 432.515 114.963C432.86 115.055 433.193 115.227 433.423 115.411C433.665 115.583 433.815 115.779 433.815 115.779L433.78 115.928C433.78 115.928 433.561 116.02 433.262 116.055C432.963 116.089 432.572 116.066 432.192 115.963C432.008 115.917 431.824 115.848 431.663 115.767C431.502 115.687 431.364 115.583 431.249 115.48C431.019 115.285 430.904 115.066 430.904 115.066L430.938 114.974H430.961Z" fill="#154747"/>
<path d="M437.335 135.569C437.335 135.569 440.914 128.593 453.075 128.111C453.075 128.111 444.239 129.731 441.719 135.569H437.335Z" fill="#154747"/>
<path d="M433.642 139.879C432.342 141.316 425.934 152.2 422.678 153.291C419.422 154.395 411.575 152.062 409.654 151.993C407.733 151.924 404.672 153.062 403.211 153.199C401.75 153.337 400.519 153.924 399.783 154.107C399.058 154.291 396.952 155.199 396.308 155.153C395.664 155.107 395.307 155.429 395.434 156.199C395.572 156.981 396.573 157.797 397.309 157.797C397.309 157.797 396.078 158.026 394.755 158.302C393.432 158.578 388.68 159.67 387.403 160.406C386.126 161.13 385.021 162.049 384.987 163.049C384.941 164.049 385.712 164.692 386.218 164.646C386.724 164.6 389.6 164.279 391.924 164.187C394.26 164.095 396.446 164.6 398.275 164.371C398.275 164.371 399.23 166.014 399.46 166.382C399.69 166.75 401.29 167.657 401.29 167.657C401.29 167.657 402.889 170.761 403.395 171.082C403.901 171.404 405.086 171.944 405.086 171.944C405.086 171.944 405.949 173.358 406.225 173.726C406.502 174.093 407.295 174.634 407.802 174.772C408.308 174.909 411.541 175.909 412.346 176.116C413.152 176.323 413.853 176.691 414.728 176.484C415.591 176.277 426.187 168.979 429.569 166.83C434.965 164.371 446.471 161.991 450.129 159.348C448.346 146.522 441.995 139.408 440.672 138.546L433.642 139.868V139.879Z" fill="#FFD2BA"/>
<path d="M391.936 164.187C391.936 164.187 392.212 164.175 392.684 164.152C392.925 164.141 393.213 164.129 393.535 164.106C393.869 164.095 394.249 164.106 394.651 164.106C395.065 164.106 395.503 164.118 395.974 164.129C396.435 164.141 396.929 164.164 397.436 164.152C397.689 164.152 397.942 164.152 398.195 164.152C398.436 164.152 398.713 164.106 398.977 164.095C399.506 164.06 400.047 164.014 400.588 163.98C401.669 163.899 402.751 163.83 403.775 163.761C404.281 163.727 404.776 163.692 405.236 163.658C405.731 163.658 406.145 163.681 406.559 163.692C406.973 163.727 407.353 163.773 407.687 163.819C408.02 163.853 408.308 163.922 408.538 163.957C409.01 164.037 409.274 164.118 409.274 164.118V164.187C409.274 164.187 408.987 164.175 408.515 164.152C408.273 164.152 407.986 164.118 407.664 164.118C407.33 164.118 406.973 164.106 406.571 164.095C406.168 164.106 405.731 164.129 405.271 164.141C404.81 164.187 404.316 164.233 403.809 164.279C403.303 164.325 402.774 164.382 402.245 164.428C401.715 164.462 401.175 164.485 400.634 164.52C400.093 164.554 399.552 164.577 399.012 164.612C398.747 164.612 398.482 164.635 398.206 164.635C397.942 164.635 397.677 164.623 397.424 164.612C396.4 164.589 395.445 164.462 394.64 164.405C393.834 164.325 393.156 164.29 392.684 164.267C392.212 164.244 391.936 164.233 391.936 164.233V164.187Z" fill="#ED8879"/>
<path d="M401.301 167.669C401.301 167.669 401.761 167.68 402.452 167.795C402.797 167.853 403.188 167.933 403.602 168.037C404.028 168.14 404.465 168.267 404.902 168.427C405.121 168.508 405.34 168.577 405.558 168.692C405.662 168.738 405.765 168.795 405.869 168.841C406.007 168.91 406.064 168.968 406.156 169.025C406.329 169.152 406.502 169.266 406.663 169.381C406.824 169.508 406.962 169.646 407.088 169.772C407.353 170.013 407.526 170.243 407.664 170.393C407.79 170.554 407.859 170.657 407.859 170.657L407.721 170.772C407.721 170.772 407.641 170.703 407.48 170.577C407.411 170.519 407.307 170.439 407.203 170.358C407.1 170.266 406.962 170.197 406.835 170.094C406.697 170.002 406.571 169.887 406.41 169.784C406.237 169.68 406.064 169.577 405.88 169.473C405.8 169.427 405.685 169.347 405.616 169.324C405.524 169.278 405.42 169.243 405.328 169.197C405.144 169.106 404.925 169.037 404.718 168.956C404.293 168.807 403.867 168.657 403.464 168.519C403.062 168.382 402.693 168.244 402.371 168.129C401.727 167.887 401.301 167.692 401.301 167.692V167.669Z" fill="#ED8879"/>
<path d="M405.109 171.933C405.109 171.933 405.477 171.898 405.961 171.967C406.455 172.036 407.065 172.22 407.64 172.484C408.216 172.749 408.745 173.093 409.125 173.415C409.504 173.726 409.711 174.024 409.711 174.024L409.677 174.105C409.677 174.105 409.32 174.139 408.825 174.047C408.342 173.967 407.721 173.794 407.146 173.53C406.57 173.266 406.041 172.921 405.661 172.599C405.282 172.289 405.075 171.979 405.075 171.979L405.098 171.921L405.109 171.933Z" fill="#ED8879"/>
<path d="M397.32 157.774C397.32 157.774 398.068 157.693 399.184 157.59C399.736 157.544 400.392 157.475 401.094 157.417C401.439 157.383 401.796 157.348 402.164 157.314C402.532 157.291 402.877 157.211 403.234 157.153C403.579 157.073 403.924 156.992 404.246 156.889C404.615 156.785 404.96 156.705 405.293 156.613C405.65 156.544 405.995 156.486 406.317 156.429C406.64 156.36 406.95 156.349 407.226 156.314C407.502 156.291 407.767 156.245 407.997 156.245C408.227 156.245 408.434 156.245 408.595 156.257C408.918 156.257 409.113 156.257 409.113 156.257V156.349C409.113 156.349 408.929 156.372 408.607 156.418C408.446 156.441 408.25 156.463 408.032 156.498C407.813 156.532 407.56 156.601 407.295 156.67C407.031 156.739 406.732 156.785 406.432 156.889C406.133 156.981 405.811 157.073 405.489 157.165C405.167 157.291 404.822 157.406 404.488 157.532C404.304 157.601 404.12 157.67 403.924 157.705L403.349 157.797C402.958 157.831 402.567 157.866 402.198 157.866C401.83 157.866 401.462 157.866 401.117 157.866C400.415 157.866 399.759 157.866 399.207 157.866C398.091 157.866 397.343 157.843 397.343 157.843V157.751L397.32 157.774Z" fill="#ED8879"/>
<path d="M441.558 132.282C441.558 132.282 449.427 133.294 453.373 134.604C456.25 135.558 456.94 139.741 457.826 143.568C458.321 145.706 460.357 156.027 459.264 156.636C458.171 157.256 456.526 156.636 456.526 156.636L441.558 132.271V132.282Z" fill="#154747"/>
<path d="M431.502 142.936C431.502 142.936 433.573 140.707 435.69 140.431C437.818 140.155 442.685 142.35 444.526 148.786C446.378 155.222 447.011 160.969 446.931 160.992C446.861 161.026 443.847 162.106 443.847 162.106C443.847 162.106 447.46 164.796 448.426 165.003C449.381 165.209 452.396 163.29 454.041 162.681C455.686 162.06 459.517 160.555 459.655 159.67C459.793 158.785 455.962 137.627 453.765 136.052C451.579 134.478 443.18 133.041 441.385 133.041C439.59 133.041 433.285 138.086 431.985 138.684C430.685 139.27 430.72 141.672 431.491 142.936H431.502Z" fill="#206A6A"/>
<path d="M354.164 75.9102C351.023 88.989 349.194 99.4934 351.023 118.146C351.84 126.479 356.109 138.086 356.132 145.718C356.155 153.349 352.703 221.881 352.703 223.168C352.703 224.455 351.415 227.075 349.252 227.075H340.047C339.61 227.075 337.608 226.041 338.184 220.444C338.759 214.847 340.485 196.022 340.922 194.01C341.359 191.999 344.235 185.104 344.235 182.656C344.235 180.208 333.823 99.4819 333.628 97.6661C333.432 95.8502 332.719 94.3561 334.398 92.7816C336.078 91.1956 347.261 82.3346 348.653 81.036C350.045 79.7488 352.588 76.1515 354.199 75.9102H354.164Z" fill="#206A6A"/>
<path d="M348.883 130.788C348.205 126.421 347.503 121.893 347.284 118.123C346.26 100.838 347.192 90.9542 349.528 80.082C349.252 80.3923 348.999 80.6567 348.768 80.8865C346.559 91.4484 345.708 101.298 346.709 118.158C346.939 121.962 347.641 126.502 348.32 130.88C349.137 136.133 349.976 141.557 349.988 145.706C349.999 151.154 348.412 190.034 347.468 213.261C347.204 219.651 347.008 224.535 346.916 227.064H347.491C347.595 224.489 347.79 219.49 348.044 213.284C348.987 190.057 350.586 151.165 350.563 145.706C350.563 141.511 349.7 136.064 348.883 130.788Z" fill="#154747"/>
<path d="M353.152 149.05C354.289 149.05 355.211 148.129 355.211 146.993C355.211 145.857 354.289 144.936 353.152 144.936C352.014 144.936 351.092 145.857 351.092 146.993C351.092 148.129 352.014 149.05 353.152 149.05Z" fill="#154747"/>
<path d="M352.91 148.763C354.047 148.763 354.969 147.842 354.969 146.706C354.969 145.57 354.047 144.649 352.91 144.649C351.773 144.649 350.851 145.57 350.851 146.706C350.851 147.842 351.773 148.763 352.91 148.763Z" fill="#ED9258"/>
<path d="M352.565 146.706C352.565 146.959 352.358 147.166 352.116 147.166C351.874 147.166 351.656 146.959 351.656 146.706C351.656 146.453 351.863 146.246 352.116 146.246C352.369 146.246 352.565 146.453 352.565 146.706Z" fill="#154747"/>
<path d="M354.176 146.706C354.176 146.959 353.968 147.166 353.715 147.166C353.462 147.166 353.267 146.959 353.267 146.706C353.267 146.453 353.474 146.246 353.715 146.246C353.957 146.246 354.176 146.453 354.176 146.706Z" fill="#154747"/>
<path d="M351.771 178.759C352.909 178.759 353.831 177.838 353.831 176.702C353.831 175.566 352.909 174.645 351.771 174.645C350.634 174.645 349.712 175.566 349.712 176.702C349.712 177.838 350.634 178.759 351.771 178.759Z" fill="#154747"/>
<path d="M353.601 176.415C353.601 177.553 352.68 178.472 351.541 178.472C350.402 178.472 349.482 177.553 349.482 176.415C349.482 175.277 350.402 174.358 351.541 174.358C352.68 174.358 353.601 175.277 353.601 176.415Z" fill="#ED9258"/>
<path d="M351.185 176.415C351.185 176.668 350.978 176.874 350.736 176.874C350.494 176.874 350.276 176.668 350.276 176.415C350.276 176.162 350.483 175.955 350.736 175.955C350.989 175.955 351.185 176.162 351.185 176.415Z" fill="#154747"/>
<path d="M352.796 176.415C352.796 176.668 352.589 176.874 352.335 176.874C352.082 176.874 351.887 176.668 351.887 176.415C351.887 176.162 352.094 175.955 352.335 175.955C352.577 175.955 352.796 176.162 352.796 176.415Z" fill="#154747"/>
<path d="M350.39 208.48C351.528 208.48 352.45 207.559 352.45 206.423C352.45 205.287 351.528 204.365 350.39 204.365C349.253 204.365 348.331 205.287 348.331 206.423C348.331 207.559 349.253 208.48 350.39 208.48Z" fill="#154747"/>
<path d="M352.22 206.135C352.22 207.273 351.3 208.193 350.161 208.193C349.021 208.193 348.101 207.273 348.101 206.135C348.101 204.998 349.021 204.078 350.161 204.078C351.3 204.078 352.22 204.998 352.22 206.135Z" fill="#ED9258"/>
<path d="M349.815 206.135C349.815 206.388 349.608 206.595 349.366 206.595C349.125 206.595 348.906 206.388 348.906 206.135C348.906 205.882 349.113 205.676 349.366 205.676C349.62 205.676 349.815 205.882 349.815 206.135Z" fill="#154747"/>
<path d="M351.426 206.135C351.426 206.388 351.219 206.595 350.966 206.595C350.713 206.595 350.517 206.388 350.517 206.135C350.517 205.882 350.724 205.676 350.966 205.676C351.207 205.676 351.426 205.882 351.426 206.135Z" fill="#154747"/>
<path d="M359.629 33.582C359.629 33.582 359.399 33.6855 359.181 33.8579C359.089 33.9383 358.778 34.3061 358.64 34.8578C358.548 35.1336 358.525 35.4669 358.525 35.8231C358.525 36.007 358.56 36.1679 358.583 36.3748C358.629 36.6047 358.675 36.8345 358.721 37.0759C358.905 38.0298 359.089 39.1101 359.583 40.041C359.641 40.1215 359.745 40.3054 359.756 40.3168L359.917 40.4777C359.917 40.4777 359.998 40.5352 360.044 40.5582C360.205 40.6731 360.504 40.834 360.769 40.949C361.321 41.1903 361.942 41.3742 362.586 41.5121C363.886 41.7764 365.313 41.9029 366.763 41.7764C368.224 41.65 369.697 41.3282 371.123 40.6961C371.871 40.4203 372.55 40.0755 373.24 39.7192L374.207 39.0871C374.506 38.8573 374.782 38.6044 375.069 38.3516C375.553 37.7999 375.932 37.1908 376.059 36.5242C376.105 36.1794 376.128 35.8576 376.105 35.4439C376.105 35.0416 376.105 34.6509 376.059 34.2946C376.047 33.9268 375.978 33.582 375.898 33.2488C375.875 33.0764 375.806 32.9385 375.76 32.789C375.714 32.6511 375.656 32.4902 375.564 32.3063C375.242 31.5593 374.943 31.0421 374.575 30.8008C374.483 30.7433 374.379 30.7203 374.287 30.6629C374.184 30.6629 374.011 30.6399 373.988 30.6169C373.631 30.6399 373.24 30.6284 372.906 30.6744C372.239 30.7318 371.572 30.8008 370.893 30.9042C369.547 31.0881 368.27 31.2835 367.119 31.5248C365.946 31.7317 364.899 32.019 363.955 32.2259C363.035 32.4787 362.23 32.7086 361.562 32.8925C360.274 33.3407 359.526 33.605 359.526 33.605L359.606 33.5591L359.629 33.582ZM359.008 32.3638C359.008 32.3638 359.768 32.0535 361.102 31.5248C362.46 31.0651 364.404 30.433 366.797 29.9388C367.994 29.6745 369.282 29.4331 370.674 29.2378C371.353 29.1343 372.09 29.0539 372.872 28.9849C373.263 28.9504 373.608 28.9619 373.976 28.9504C374.322 28.9849 374.506 29.0309 374.77 29.0769C375.012 29.1803 375.277 29.2722 375.484 29.4331C376.393 30.0538 376.726 31.0306 376.991 31.6857C377.106 32.0075 377.324 32.5592 377.359 32.9614C377.416 33.3982 377.451 33.8349 377.428 34.2601C377.428 34.6969 377.393 35.0991 377.347 35.4899C377.324 35.8576 377.255 36.3403 377.14 36.7771C376.887 37.6735 376.323 38.4205 375.702 39.0182C374.425 40.1674 372.86 40.8455 371.411 41.4316C369.95 42.0523 368.362 42.4775 366.832 42.6384C365.29 42.7993 363.783 42.7188 362.379 42.4775C361.677 42.3396 360.999 42.1672 360.354 41.9143C360.021 41.7764 359.733 41.6615 359.388 41.4202C359.307 41.3627 359.204 41.2937 359.135 41.2363L358.974 41.0754C358.79 40.857 358.755 40.7651 358.64 40.6042C357.973 39.4204 357.777 38.2826 357.547 37.3287C357.49 37.0874 357.443 36.8575 357.386 36.6391C357.351 36.3978 357.282 36.122 357.282 35.8921C357.259 35.4094 357.282 34.9497 357.397 34.5589C357.593 33.7544 357.938 33.1683 358.421 32.7661C358.79 32.4787 358.928 32.4328 358.939 32.4213L359.02 32.3753L359.008 32.3638Z" fill="#3F4E7A"/>
<path d="M342.487 38.3746L339.173 38.2942L339.944 40.0986L343.258 40.5698L342.487 38.3746Z" fill="#2F3B5C"/>
<path d="M341.44 37.8228C341.44 37.8228 341.417 37.8458 341.359 37.8918C341.325 37.9262 341.152 38.0412 341.209 38.0527C341.209 38.0641 341.209 38.0756 341.198 38.0871C341.175 38.1446 341.152 38.2021 341.129 38.271C341.071 38.3974 341.037 38.6043 341.002 38.8227C340.933 39.2709 340.933 39.8685 341.037 40.5121C341.152 41.2247 341.279 42.0407 341.451 42.8911C341.555 43.3049 341.624 43.7646 341.785 44.1668L341.888 44.4886C341.888 44.4886 341.957 44.661 341.911 44.5921L342.015 44.7415C342.084 44.8334 342.153 44.9598 342.222 45.0403L342.441 45.2472C343.073 45.8448 344.028 46.3735 345.029 46.6378C346.042 46.9481 347.135 46.8332 348.159 46.4424C348.722 46.2241 349.206 45.9827 349.654 45.6724C350.08 45.3391 350.494 44.9598 350.747 44.5001C351.311 43.5807 351.219 42.5004 351.184 41.2936C351.15 40.742 351.104 40.1903 351.035 39.6616C351.012 39.3973 350.931 39.1675 350.885 38.9146C350.816 38.6388 350.759 38.363 350.69 38.0871C350.563 37.57 350.402 37.1102 350.218 36.8229C350.172 36.754 350.126 36.6735 350.091 36.662C350.057 36.616 350.022 36.5816 349.988 36.5816C349.976 36.5816 349.953 36.5701 349.942 36.5471C349.942 36.5471 350.08 36.5701 350.011 36.5471H349.965H349.873L349.493 36.4781C348.699 36.4322 347.675 36.4552 346.847 36.5356C345.996 36.6275 345.202 36.731 344.523 36.8804C343.833 36.9953 343.269 37.2022 342.786 37.3286C342.314 37.4665 341.98 37.6504 341.727 37.7423C341.486 37.8458 341.359 37.8918 341.359 37.8918L341.463 37.8228H341.44ZM340.623 36.731L340.68 36.6965C340.68 36.6965 340.818 36.6275 341.094 36.4896C341.359 36.3747 341.75 36.1334 342.268 35.9495C342.786 35.7656 343.407 35.5242 344.155 35.3633C344.891 35.1565 345.731 35.03 346.651 34.9036C347.595 34.8002 348.515 34.7082 349.769 34.7887L350.149 34.8462H350.241L350.287 34.8691L350.391 34.8921H350.437C350.54 34.9496 350.644 34.9956 350.747 35.0415C350.966 35.1335 351.127 35.2714 351.277 35.4208C351.449 35.5702 351.541 35.7196 351.645 35.8805C352.036 36.5126 352.162 37.1217 352.3 37.6964C352.358 37.9722 352.427 38.2595 352.462 38.5239C352.508 38.8342 352.577 39.1675 352.588 39.4663C352.634 40.0869 352.6 40.7075 352.554 41.3281C352.416 42.4314 352.358 43.8795 351.53 44.9713C350.793 46.0861 349.539 46.7297 348.469 47.155C347.319 47.5917 345.996 47.7871 344.845 47.4538C343.672 47.155 342.659 46.6838 341.762 45.9137C341.52 45.7069 341.313 45.4885 341.186 45.2931L341.071 45.1437C340.968 44.9713 341.002 44.9943 340.956 44.9024L340.807 44.5346C340.588 44.0404 340.496 43.5807 340.37 43.1325C340.151 42.236 339.99 41.443 339.84 40.719C339.691 39.9375 339.656 39.2479 339.714 38.6618C339.748 38.363 339.783 38.0986 339.863 37.8573C339.909 37.7309 339.944 37.6159 339.978 37.5125C340.047 37.3746 340.128 37.2482 340.209 37.1447C340.381 36.8919 340.427 36.9034 340.485 36.8344C340.542 36.7884 340.565 36.7655 340.565 36.7655L340.611 36.7195L340.623 36.731Z" fill="#3F4E7A"/>
<path d="M374.529 29.0425C374.529 29.0425 376.485 29.031 376.91 29.0425C377.336 29.054 377.739 29.5596 377.865 29.9964C377.992 30.4331 378.118 31.2836 378.13 31.433C378.153 31.5709 377.842 31.9961 377.647 32.2145C377.451 32.4214 377.348 32.8351 377.348 32.8351L374.529 29.054V29.0425Z" fill="#3F4E7A"/>
<path d="M376.853 29.2378L381.294 29.3412L382.904 30.8813L377.957 31.5823L376.853 29.2378Z" fill="#3F4E7A"/>
<path d="M340.105 37.3171C340.105 37.3171 339.139 38.0182 338.978 38.2021C338.817 38.386 338.713 38.6503 338.759 38.8802C338.817 39.11 338.943 39.5812 338.989 39.7766C339.035 39.972 339.933 40.0984 339.933 40.0984L340.094 37.3171H340.105Z" fill="#3F4E7A"/>
<path d="M351.392 36.8691C351.392 36.8691 354.441 35.444 357.777 35.3521L358.065 37.3173C358.065 37.3173 353.555 37.5702 351.887 39.0642L351.38 36.8691H351.392Z" fill="#3F4E7A"/>
</svg>
