<svg width="16" height="16" viewBox="0 0 16 16" fill="none" xmlns="http://www.w3.org/2000/svg">
<path d="M8.37316 4.06401C10.4469 4.06401 12.1585 5.77563 12.1585 7.84934C12.1585 9.95595 10.4469 11.6347 8.37316 11.6347C6.26654 11.6347 4.58783 9.95595 4.58783 7.84934C4.58783 5.77563 6.26654 4.06401 8.37316 4.06401ZM8.37316 10.318C9.72271 10.318 10.8089 9.2318 10.8089 7.84934C10.8089 6.49978 9.72271 5.41356 8.37316 5.41356C6.99069 5.41356 5.90447 6.49978 5.90447 7.84934C5.90447 9.2318 7.02361 10.318 8.37316 10.318ZM13.1789 3.93234C13.1789 4.42608 12.7839 4.82107 12.2902 4.82107C11.7964 4.82107 11.4014 4.42608 11.4014 3.93234C11.4014 3.43861 11.7964 3.04361 12.2902 3.04361C12.7839 3.04361 13.1789 3.43861 13.1789 3.93234ZM15.6805 4.82107C15.7463 6.03896 15.7463 9.69263 15.6805 10.9105C15.6147 12.0955 15.3513 13.1159 14.4955 14.0046C13.6397 14.8604 12.5864 15.1238 11.4014 15.1896C10.1835 15.2554 6.52987 15.2554 5.31198 15.1896C4.12701 15.1238 3.10662 14.8604 2.21789 14.0046C1.36207 13.1159 1.09875 12.0955 1.03292 10.9105C0.967084 9.69263 0.967084 6.03896 1.03292 4.82107C1.09875 3.6361 1.36207 2.58279 2.21789 1.72698C3.10662 0.871165 4.12701 0.607838 5.31198 0.542006C6.52987 0.476174 10.1835 0.476174 11.4014 0.542006C12.5864 0.607838 13.6397 0.871165 14.4955 1.72698C15.3513 2.58279 15.6147 3.6361 15.6805 4.82107ZM14.1005 12.1942C14.4955 11.2397 14.3968 8.93556 14.3968 7.84934C14.3968 6.79603 14.4955 4.49191 14.1005 3.50444C13.8372 2.87904 13.3435 2.35238 12.7181 2.12197C11.7306 1.72698 9.42647 1.82573 8.37316 1.82573C7.28694 1.82573 4.98282 1.72698 4.02826 2.12197C3.36994 2.3853 2.87621 2.87904 2.61288 3.50444C2.21789 4.49191 2.31664 6.79603 2.31664 7.84934C2.31664 8.93556 2.21789 11.2397 2.61288 12.1942C2.87621 12.8526 3.36994 13.3463 4.02826 13.6096C4.98282 14.0046 7.28694 13.9059 8.37316 13.9059C9.42647 13.9059 11.7306 14.0046 12.7181 13.6096C13.3435 13.3463 13.8701 12.8526 14.1005 12.1942Z" fill="#F5F5F7"/>
</svg>
