<svg width="15" height="16" viewBox="0 0 15 16" fill="none" xmlns="http://www.w3.org/2000/svg">
<path d="M13.693 0.476174C14.2526 0.476174 14.7463 0.969913 14.7463 1.5624V14.1692C14.7463 14.7617 14.2526 15.2225 13.693 15.2225H1.02039C0.460823 15.2225 0 14.7617 0 14.1692V1.5624C0 0.969913 0.460823 0.476174 1.02039 0.476174H13.693ZM4.44365 13.1159V6.10479H2.2712V13.1159H4.44365ZM3.35742 5.11732C4.04866 5.11732 4.60823 4.55775 4.60823 3.86651C4.60823 3.17528 4.04866 2.58279 3.35742 2.58279C2.63327 2.58279 2.0737 3.17528 2.0737 3.86651C2.0737 4.55775 2.63327 5.11732 3.35742 5.11732ZM12.6397 13.1159V9.26472C12.6397 7.38851 12.2118 5.9073 10.0064 5.9073C8.95313 5.9073 8.22898 6.49978 7.93273 7.05935H7.89982V6.10479H5.82611V13.1159H7.99856V9.65971C7.99856 8.73807 8.16314 7.84934 9.3152 7.84934C10.4343 7.84934 10.4343 8.90265 10.4343 9.69263V13.1159H12.6397Z" fill="#F5F5F7"/>
</svg>
