<svg width="154" height="29" viewBox="0 0 154 29" fill="none" xmlns="http://www.w3.org/2000/svg">
<path fill-rule="evenodd" clip-rule="evenodd" d="M128.956 28.0031L137.125 8.10353L145.048 28.0056L153.291 27.9583L140.898 0.0844527L133.186 0.0629883L120.91 28.0031H128.956Z" fill="#546FFF"/>
<path fill-rule="evenodd" clip-rule="evenodd" d="M0.25 0.0578184L14.6757 25.2489L18.0217 25.2528L32.2283 0.0745796L26.0639 0.0749216L16.457 16.0261L6.42173 0.0571289L0.25 0.0578184Z" fill="#546FFF"/>
<path fill-rule="evenodd" clip-rule="evenodd" d="M68.4102 28.0017L89.6242 27.9671V21.7319L76.3106 21.6942L76.236 0.0722656L68.4127 0.106365L68.4102 28.0017Z" fill="#546FFF"/>
<path fill-rule="evenodd" clip-rule="evenodd" d="M121.396 0.0786979C112.259 0.0737613 113.998 -0.783838 112.308 3.2827L101.803 28.0032L109.536 27.9857L121.396 0.0786979Z" fill="#546FFF"/>
<path fill-rule="evenodd" clip-rule="evenodd" d="M90.1289 0C90.7652 2.43733 92.8693 6.73612 93.9473 9.2452L97.9887 18.3776C98.2588 17.9892 100.828 11.9935 101.839 9.49422C102.116 8.80882 102.104 8.11781 101.804 7.44218L98.4972 0H90.1289Z" fill="#10197A"/>
<path fill-rule="evenodd" clip-rule="evenodd" d="M32.5524 11.0903C31.7421 11.7823 28.4556 18.0326 28.051 18.7869C25.0682 24.3487 25.3389 22.2299 25.3688 27.9925L32.6281 28.0032L32.5524 11.0903Z" fill="#10197A"/>
<path fill-rule="evenodd" clip-rule="evenodd" d="M0.0756567 11.0903C0.885957 11.7823 4.1725 18.0326 4.57708 18.7869C7.55985 24.3487 7.28914 22.2299 7.25929 27.9925L0 28.0032L0.0756567 11.0903Z" fill="#10197A"/>
<path fill-rule="evenodd" clip-rule="evenodd" d="M49.8063 26.1712L39.7326 18.8841C39.6014 18.7892 39.5225 18.6602 39.4978 18.5002C39.473 18.3402 39.5092 18.1934 39.6056 18.0633L49.6773 4.46289C49.7911 4.30928 49.9555 4.2265 50.1468 4.2265C50.3379 4.2265 50.5024 4.30939 50.6161 4.46301L60.6853 18.0634C60.7816 18.1934 60.8178 18.34 60.793 18.5001C60.7683 18.6602 60.6894 18.7891 60.5582 18.884L50.4912 26.171C50.2834 26.3213 50.0143 26.3215 49.8065 26.1711L49.8063 26.1712ZM36.6467 19.2673L49.8072 28.7873C50.0151 28.9377 50.2841 28.9376 50.492 28.7872L63.6438 19.2673C63.775 19.1724 63.8539 19.0436 63.8786 18.8834C63.9033 18.7234 63.8672 18.5768 63.7709 18.4467L50.6164 0.678884C50.5027 0.525274 50.3382 0.442383 50.1471 0.442383C49.956 0.442383 49.7914 0.525162 49.6777 0.678772L36.5197 18.4466C36.4233 18.5767 36.3871 18.7234 36.4119 18.8835C36.4367 19.0436 36.5155 19.1725 36.6467 19.2675V19.2673Z" fill="#546FFF"/>
<path d="M51.005 2.97412H49.1465V26.927H51.005V2.97412Z" fill="#546FFF"/>
</svg>
