<svg width="18" height="18" viewBox="0 0 18 18" fill="none" xmlns="http://www.w3.org/2000/svg">
<path fill-rule="evenodd" clip-rule="evenodd" d="M17.5335 8.98818C17.5335 9.56527 17.4747 10.1416 17.3593 10.7033C17.2468 11.2517 17.0801 11.7901 16.8618 12.3048C16.6485 12.8104 16.3839 13.2976 16.0747 13.752C15.7701 14.2035 15.4192 14.627 15.0338 15.0131C14.6475 15.3976 14.2225 15.7475 13.7712 16.0534C13.3154 16.3604 12.8275 16.6246 12.3216 16.8389C11.8061 17.0561 11.2665 17.2226 10.7186 17.3349C10.1561 17.4506 9.57767 17.5096 8.99975 17.5096C8.42139 17.5096 7.84303 17.4506 7.28133 17.3349C6.73257 17.2226 6.19295 17.0561 5.67792 16.8389C5.17207 16.6246 4.68369 16.3604 4.22784 16.0534C3.77657 15.7475 3.35155 15.3976 2.96611 15.0131C2.58027 14.627 2.2294 14.2035 1.92439 13.752C1.61687 13.2976 1.35184 12.8104 1.13768 12.3048C0.919305 11.7901 0.752236 11.2517 0.63931 10.7033C0.525147 10.1416 0.466797 9.56527 0.466797 8.98818C0.466797 8.41065 0.525114 7.83313 0.639343 7.27261C0.75227 6.7242 0.919338 6.18496 1.13771 5.67111C1.35187 5.16516 1.6169 4.67751 1.92442 4.22313C2.22943 3.77127 2.5803 3.3485 2.96614 2.96195C3.35158 2.57746 3.7766 2.2284 4.22787 1.923C4.68372 1.61466 5.1721 1.35047 5.67795 1.13575C6.19298 0.918096 6.73257 0.751269 7.28137 0.639772C7.84306 0.524941 8.42142 0.466675 8.99978 0.466675C9.57771 0.466675 10.1561 0.524941 10.7186 0.639772C11.2665 0.751302 11.8061 0.918129 12.3216 1.13575C12.8275 1.35044 13.3154 1.61466 13.7713 1.923C14.2225 2.2284 14.6476 2.57746 15.0338 2.96195C15.4193 3.3485 15.7701 3.77127 16.0747 4.22313C16.3839 4.67751 16.6485 5.16519 16.8618 5.67111C17.0801 6.18496 17.2468 6.7242 17.3593 7.27261C17.4747 7.83313 17.5335 8.41065 17.5335 8.98818ZM5.89038 2.40605C3.85817 3.36433 2.34143 5.23422 1.86848 7.48775C2.0606 7.48942 5.09742 7.52771 8.59634 6.59938C7.33505 4.36166 5.98748 2.53549 5.89038 2.40605ZM9.20012 7.71995C5.44786 8.84169 1.84724 8.76097 1.71808 8.75601C1.71597 8.83422 1.71223 8.90993 1.71223 8.98817C1.71223 10.8576 2.41851 12.5619 3.57941 13.8506C3.5769 13.8468 5.5712 10.3138 9.50389 9.04393C9.59888 9.01232 9.69558 8.984 9.7914 8.95655C9.6085 8.54298 9.40887 8.12855 9.20012 7.71995ZM13.8125 3.52659C12.5295 2.39689 10.8448 1.71164 8.99972 1.71164C8.4076 1.71164 7.83298 1.78321 7.28254 1.91552C7.3917 2.062 8.76054 3.87529 10.0068 6.16041C12.7566 5.13103 13.7945 3.55321 13.8125 3.52659ZM10.2882 10.1624C10.2719 10.1677 10.2557 10.1724 10.2398 10.1782C5.94009 11.675 4.53595 14.6914 4.52076 14.7244C5.75793 15.6851 7.30968 16.2647 8.99977 16.2647C10.009 16.2647 10.9703 16.0595 11.8449 15.688C11.737 15.0522 11.3136 12.8237 10.2882 10.1624ZM13.072 15.0231C14.7083 13.9205 15.8705 12.1696 16.1946 10.1415C16.0446 10.0933 14.0058 9.44874 11.6536 9.82531C12.6095 12.4484 12.9978 14.5846 13.072 15.0231ZM10.5678 7.24475C10.7369 7.59178 10.9007 7.94498 11.0519 8.29995C11.1057 8.42729 11.1582 8.55212 11.2095 8.67693C13.7129 8.36235 16.1793 8.89161 16.2847 8.91323C16.2681 7.18815 15.6501 5.60493 14.6276 4.36543C14.6138 4.38494 13.445 6.07136 10.5678 7.24475Z" fill="white"/>
</svg>
