<svg width="101" height="100" viewBox="0 0 101 100" fill="none" xmlns="http://www.w3.org/2000/svg">
<path d="M50.4997 8.33325C39.583 8.33325 30.708 17.2083 30.708 28.1249C30.708 38.8333 39.083 47.4999 49.9997 47.8749C50.333 47.8333 50.6663 47.8333 50.9163 47.8749C50.9997 47.8749 51.0413 47.8749 51.1247 47.8749C51.1663 47.8749 51.1663 47.8749 51.208 47.8749C61.8747 47.4999 70.2497 38.8333 70.2913 28.1249C70.2913 17.2083 61.4163 8.33325 50.4997 8.33325Z" fill="#98ABFF"/>
<path d="M71.667 58.9583C60.042 51.2083 41.0837 51.2083 29.3753 58.9583C24.0837 62.4999 21.167 67.2916 21.167 72.4166C21.167 77.5416 24.0837 82.2916 29.3337 85.7916C35.167 89.7083 42.8337 91.6666 50.5003 91.6666C58.167 91.6666 65.8337 89.7083 71.667 85.7916C76.917 82.2499 79.8337 77.4999 79.8337 72.3333C79.792 67.2083 76.917 62.4583 71.667 58.9583Z" fill="#F5F5F7"/>
</svg>
