<svg width="97" height="96" viewBox="0 0 97 96" fill="none" xmlns="http://www.w3.org/2000/svg">
<path d="M36.5 8C26.02 8 17.5 16.52 17.5 27C17.5 37.28 25.54 45.6 36.02 45.96C36.34 45.92 36.66 45.92 36.9 45.96C36.98 45.96 37.02 45.96 37.1 45.96C37.14 45.96 37.14 45.96 37.18 45.96C47.42 45.6 55.46 37.28 55.5 27C55.5 16.52 46.98 8 36.5 8Z" fill="#98ABFF"/>
<path d="M56.8198 56.6C45.6598 49.16 27.4598 49.16 16.2198 56.6C11.1398 60 8.33984 64.6 8.33984 69.52C8.33984 74.44 11.1398 79 16.1798 82.36C21.7798 86.12 29.1398 88 36.4998 88C43.8598 88 51.2198 86.12 56.8198 82.36C61.8598 78.96 64.6598 74.4 64.6598 69.44C64.6198 64.52 61.8598 59.96 56.8198 56.6Z" fill="#F5F5F7"/>
<path d="M80.4604 29.3599C81.1004 37.1199 75.5804 43.9199 67.9404 44.8399C67.9004 44.8399 67.9004 44.8399 67.8604 44.8399H67.7404C67.5004 44.8399 67.2604 44.8399 67.0604 44.9199C63.1804 45.1199 59.6204 43.8799 56.9404 41.5999C61.0604 37.9199 63.4204 32.3999 62.9404 26.3999C62.6604 23.1599 61.5404 20.1999 59.8604 17.6799C61.3804 16.9199 63.1404 16.4399 64.9404 16.2799C72.7804 15.5999 79.7804 21.4399 80.4604 29.3599Z" fill="#98ABFF"/>
<path d="M88.46 66.3601C88.14 70.2401 85.66 73.6001 81.5 75.8801C77.5 78.0801 72.46 79.1201 67.46 79.0001C70.34 76.4001 72.02 73.1601 72.34 69.7201C72.74 64.7601 70.38 60.0001 65.66 56.2001C62.98 54.0801 59.86 52.4001 56.46 51.1601C65.3 48.6001 76.42 50.3201 83.26 55.8401C86.94 58.8001 88.82 62.5201 88.46 66.3601Z" fill="#F5F5F7"/>
</svg>
