<svg width="17" height="14" viewBox="0 0 17 14" fill="none" xmlns="http://www.w3.org/2000/svg">
<path d="M15.1084 3.42608C15.1084 3.59066 15.1084 3.72233 15.1084 3.88691C15.1084 8.46222 11.6522 13.6958 5.29946 13.6958C3.32451 13.6958 1.51413 13.1363 0 12.1488C0.263327 12.1817 0.526654 12.2146 0.822898 12.2146C2.43578 12.2146 3.91699 11.6551 5.10196 10.7334C3.58783 10.7005 2.30411 9.71302 1.87621 8.33055C2.10662 8.36347 2.30411 8.39638 2.53452 8.39638C2.83077 8.39638 3.15993 8.33055 3.42325 8.26472C1.84329 7.93556 0.658318 6.55309 0.658318 4.87438V4.84147C1.11914 5.10479 1.67871 5.23646 2.23828 5.26937C1.28372 4.64397 0.691234 3.59066 0.691234 2.40569C0.691234 1.74737 0.855813 1.15489 1.15206 0.661147C2.86368 2.73485 5.43112 4.11732 8.29481 4.2819C8.22898 4.01857 8.19606 3.75524 8.19606 3.49191C8.19606 1.58279 9.74311 0.0357448 11.6522 0.0357448C12.6397 0.0357448 13.5284 0.430736 14.1868 1.12197C14.9438 0.95739 15.7009 0.661147 16.3592 0.266156C16.0959 1.08905 15.5692 1.74737 14.8451 2.17528C15.5363 2.10945 16.2275 1.91195 16.82 1.64862C16.3592 2.33986 15.7667 2.93234 15.1084 3.42608Z" fill="#F5F5F7"/>
</svg>
