<svg width="19" height="14" viewBox="0 0 19 14" fill="none" xmlns="http://www.w3.org/2000/svg">
<path d="M18.0708 2.53735C18.4658 3.91982 18.4658 6.88225 18.4658 6.88225C18.4658 6.88225 18.4658 9.81177 18.0708 11.2272C17.8733 12.0171 17.2479 12.6096 16.4909 12.8071C15.0755 13.1692 9.47978 13.1692 9.47978 13.1692C9.47978 13.1692 3.85116 13.1692 2.43578 12.8071C1.67871 12.6096 1.05331 12.0171 0.855813 11.2272C0.460823 9.81177 0.460823 6.88225 0.460823 6.88225C0.460823 6.88225 0.460823 3.91982 0.855813 2.53735C1.05331 1.74737 1.67871 1.12197 2.43578 0.924474C3.85116 0.529483 9.47978 0.529483 9.47978 0.529483C9.47978 0.529483 15.0755 0.529483 16.4909 0.924474C17.2479 1.12197 17.8733 1.74737 18.0708 2.53735ZM7.63649 9.54844L12.3105 6.88225L7.63649 4.21606V9.54844Z" fill="#F5F5F7"/>
</svg>
