<svg width="155" height="29" viewBox="0 0 155 29" fill="none" xmlns="http://www.w3.org/2000/svg">
<path fill-rule="evenodd" clip-rule="evenodd" d="M129.81 28.0031L137.98 8.10353L145.903 28.0056L154.146 27.9583L141.753 0.0844527L134.041 0.0629883L121.765 28.0031H129.81Z" fill="white"/>
<path fill-rule="evenodd" clip-rule="evenodd" d="M1.10352 0.0578184L15.5292 25.2489L18.8752 25.2528L33.0818 0.0745796L26.9174 0.0749216L17.3105 16.0261L7.27525 0.0571289L1.10352 0.0578184Z" fill="white"/>
<path fill-rule="evenodd" clip-rule="evenodd" d="M69.2627 28.0019L90.4768 27.9674V21.7321L77.1632 21.6945L77.0886 0.0725098L69.2652 0.10661L69.2627 28.0019Z" fill="white"/>
<path fill-rule="evenodd" clip-rule="evenodd" d="M122.25 0.0786979C113.112 0.0737613 114.851 -0.783838 113.162 3.2827L102.656 28.0032L110.39 27.9857L122.25 0.0786979Z" fill="white"/>
<path fill-rule="evenodd" clip-rule="evenodd" d="M90.9824 0C91.6187 2.43733 93.7228 6.73612 94.8009 9.2452L98.8423 18.3776C99.1123 17.9892 101.682 11.9935 102.692 9.49422C102.969 8.80882 102.957 8.11781 102.657 7.44218L99.3507 0H90.9824Z" fill="white"/>
<path fill-rule="evenodd" clip-rule="evenodd" d="M33.405 11.0903C32.5947 11.7823 29.3081 18.0326 28.9035 18.7869C25.9208 24.3487 26.1915 22.2299 26.2213 27.9925L33.4806 28.0032L33.405 11.0903Z" fill="white"/>
<path fill-rule="evenodd" clip-rule="evenodd" d="M0.929172 11.0903C1.73947 11.7823 5.02602 18.0326 5.4306 18.7869C8.41337 24.3487 8.14266 22.2299 8.11281 27.9925L0.853516 28.0032L0.929172 11.0903Z" fill="white"/>
<path fill-rule="evenodd" clip-rule="evenodd" d="M50.6588 26.1712L40.5852 18.8841C40.4539 18.7892 40.3751 18.6602 40.3504 18.5002C40.3256 18.3402 40.3617 18.1934 40.4582 18.0633L50.5299 4.46289C50.6436 4.30928 50.808 4.2265 50.9993 4.2265C51.1905 4.2265 51.355 4.30939 51.4686 4.46301L61.5378 18.0634C61.6341 18.1934 61.6703 18.34 61.6455 18.5001C61.6208 18.6602 61.5419 18.7891 61.4107 18.884L51.3437 26.171C51.1359 26.3213 50.8668 26.3215 50.659 26.1711L50.6588 26.1712ZM37.4993 19.2673L50.6597 28.7873C50.8676 28.9377 51.1366 28.9376 51.3445 28.7872L64.4964 19.2673C64.6276 19.1724 64.7064 19.0436 64.7311 18.8834C64.7558 18.7234 64.7198 18.5768 64.6234 18.4467L51.469 0.678884C51.3552 0.525274 51.1907 0.442383 50.9997 0.442383C50.8085 0.442383 50.644 0.525162 50.5302 0.678772L37.3722 18.4466C37.2759 18.5767 37.2396 18.7234 37.2644 18.8835C37.2892 19.0436 37.3681 19.1725 37.4993 19.2675V19.2673Z" fill="white"/>
<path d="M51.8595 2.97412H50.001V26.927H51.8595V2.97412Z" fill="white"/>
</svg>
