<svg width="600" height="508" viewBox="0 0 600 508" fill="none" xmlns="http://www.w3.org/2000/svg">
<path d="M539.88 404.947H500.136V405.201H539.88V404.947Z" fill="#EBEBEB"/>
<path d="M397.464 407.708H387.036V407.962H397.464V407.708Z" fill="#EBEBEB"/>
<path d="M498.936 395.526H475.908V395.78H498.936V395.526Z" fill="#EBEBEB"/>
<path d="M114.78 397.231H62.9521V397.485H114.78V397.231Z" fill="#EBEBEB"/>
<path d="M133.068 397.231H125.472V397.485H133.068V397.231Z" fill="#EBEBEB"/>
<path d="M270.18 401.516H157.764V401.769H270.18V401.516Z" fill="#EBEBEB"/>
<path d="M284.4 343.334H52.7036C50.8863 343.334 49.1435 342.724 47.8585 341.637C46.5735 340.549 45.8516 339.075 45.8516 337.538V61.9819C45.8674 60.4533 46.5963 58.9919 47.8796 57.9157C49.1628 56.8395 50.8966 56.2358 52.7036 56.2358H284.4C286.217 56.2358 287.96 56.8466 289.245 57.9337C290.53 59.0208 291.252 60.4952 291.252 62.0326V337.538C291.252 339.075 290.53 340.549 289.245 341.637C287.96 342.724 286.217 343.334 284.4 343.334ZM52.7036 56.4389C50.9668 56.4416 49.3022 57.0264 48.0741 58.0653C46.8461 59.1043 46.1547 60.5126 46.1516 61.9819V337.538C46.1547 339.007 46.8461 340.415 48.0741 341.454C49.3022 342.493 50.9668 343.078 52.7036 343.081H284.4C286.136 343.078 287.801 342.493 289.029 341.454C290.257 340.415 290.948 339.007 290.952 337.538V61.9819C290.948 60.5126 290.257 59.1043 289.029 58.0653C287.801 57.0264 286.136 56.4416 284.4 56.4389H52.7036Z" fill="#EBEBEB"/>
<path d="M543.972 343.334H312.252C310.436 343.332 308.695 342.72 307.411 341.634C306.127 340.547 305.404 339.074 305.4 337.538V61.9819C305.419 60.4541 306.149 58.9942 307.432 57.9186C308.714 56.843 310.446 56.2384 312.252 56.2358H543.972C545.775 56.2411 547.503 56.8472 548.781 57.9228C550.059 58.9984 550.785 60.4568 550.8 61.9819V337.538C550.8 339.072 550.082 340.543 548.802 341.629C547.522 342.716 545.785 343.329 543.972 343.334ZM312.252 56.4389C310.516 56.4416 308.851 57.0264 307.623 58.0653C306.395 59.1043 305.704 60.5126 305.7 61.9819V337.538C305.704 339.007 306.395 340.415 307.623 341.454C308.851 342.493 310.516 343.078 312.252 343.081H543.972C545.709 343.078 547.374 342.493 548.602 341.454C549.83 340.415 550.521 339.007 550.524 337.538V61.9819C550.521 60.5126 549.83 59.1043 548.602 58.0653C547.374 57.0264 545.709 56.4416 543.972 56.4389H312.252Z" fill="#EBEBEB"/>
<path d="M600 388.612H0V388.866H600V388.612Z" fill="#EBEBEB"/>
<path d="M205.08 365.263H232.884L218.268 264.555C217.917 262.449 216.694 260.518 214.818 259.103C212.941 257.688 210.533 256.883 208.02 256.829H86.7002L104.484 365.263H205.08Z" fill="#F5F5F5"/>
<path d="M116.892 365.263H89.0876L74.4716 264.555C74.292 263.587 74.366 262.597 74.6883 261.656C75.0106 260.714 75.5734 259.845 76.337 259.108C77.1005 258.371 78.046 257.785 79.1068 257.391C80.1676 256.997 81.3176 256.805 82.4756 256.829H92.0756C94.5868 256.883 96.9939 257.689 98.8683 259.104C100.743 260.519 101.963 262.45 102.312 264.555L116.892 365.263Z" fill="#F0F0F0"/>
<path d="M127.2 365.141L122.16 316.411C122.051 315.351 121.514 314.355 120.64 313.59C119.767 312.825 118.608 312.337 117.36 312.208L115.284 311.985C113.616 311.805 112.071 311.148 110.906 310.124C109.74 309.099 109.024 307.767 108.876 306.351L108 297.488C107.916 296.634 108.041 295.775 108.367 294.964C108.693 294.153 109.214 293.408 109.897 292.775C110.58 292.142 111.409 291.635 112.334 291.286C113.259 290.938 114.259 290.754 115.272 290.747H68.8079C67.7868 290.747 66.7769 290.926 65.8422 291.274C64.9076 291.621 64.0687 292.13 63.3791 292.767C62.6894 293.404 62.164 294.155 61.8364 294.973C61.5087 295.791 61.3859 296.658 61.4759 297.518L62.3879 306.401C62.5316 307.819 63.2465 309.153 64.4129 310.178C65.5793 311.204 67.1265 311.86 68.7959 312.036L70.8599 312.259C72.1075 312.39 73.2645 312.878 74.1379 313.643C75.0114 314.408 75.5486 315.403 75.6599 316.462L80.6999 365.192C80.8884 366.898 81.8236 368.483 83.322 369.636C84.8205 370.789 86.7742 371.427 88.7999 371.425H135.24C133.216 371.411 131.271 370.76 129.784 369.598C128.297 368.436 127.376 366.847 127.2 365.141Z" fill="#E6E6E6"/>
<path d="M255.012 304.239C255.402 300.553 257.409 297.123 260.639 294.626C263.868 292.129 268.085 290.745 272.46 290.747H231.996C227.618 290.748 223.399 292.137 220.171 294.641C216.943 297.144 214.942 300.579 214.56 304.27L210.564 342.847H251.028L255.012 304.239Z" fill="#E6E6E6"/>
<path d="M290.4 290.747H272.4C268.02 290.746 263.797 292.134 260.567 294.637C257.337 297.141 255.334 300.578 254.952 304.27L250.968 342.847H154.68L150.684 304.27C150.302 300.572 148.294 297.131 145.056 294.627C141.818 292.123 137.587 290.738 133.2 290.747H115.2C114.194 290.762 113.202 290.952 112.285 291.305C111.369 291.657 110.548 292.165 109.873 292.797C109.198 293.429 108.683 294.171 108.361 294.978C108.039 295.785 107.916 296.639 108 297.488L108.912 306.371C109.06 307.788 109.777 309.119 110.942 310.144C112.108 311.169 113.653 311.826 115.32 312.006L117.396 312.229C118.645 312.358 119.803 312.845 120.677 313.611C121.551 314.376 122.087 315.372 122.196 316.432L127.236 365.161C127.413 366.876 128.343 368.472 129.842 369.635C131.342 370.799 133.302 371.444 135.336 371.445H270.456C272.491 371.444 274.451 370.799 275.95 369.635C277.449 368.472 278.379 366.876 278.556 365.161L283.596 316.432C283.707 315.372 284.245 314.377 285.118 313.613C285.992 312.848 287.149 312.359 288.396 312.229L290.46 312.006C292.13 311.829 293.677 311.174 294.843 310.148C296.01 309.122 296.724 307.789 296.868 306.371L297.78 297.488C297.865 296.627 297.737 295.76 297.404 294.943C297.071 294.125 296.541 293.376 295.847 292.741C295.152 292.107 294.309 291.602 293.372 291.259C292.434 290.916 291.422 290.741 290.4 290.747Z" fill="#F0F0F0"/>
<path d="M430.884 196.059C460.303 196.059 484.152 175.883 484.152 150.994C484.152 126.106 460.303 105.93 430.884 105.93C401.465 105.93 377.616 126.106 377.616 150.994C377.616 175.883 401.465 196.059 430.884 196.059Z" fill="#F5F5F5"/>
<path d="M430.884 189.207C455.829 189.207 476.052 172.099 476.052 150.995C476.052 129.891 455.829 112.783 430.884 112.783C405.938 112.783 385.716 129.891 385.716 150.995C385.716 172.099 405.938 189.207 430.884 189.207Z" fill="#FAFAFA"/>
<path d="M430.884 112.782C430.176 112.782 429.468 112.782 428.772 112.782C440.379 113.235 451.333 117.455 459.357 124.564C467.381 131.673 471.859 141.124 471.859 150.954C471.859 160.783 467.381 170.235 459.357 177.344C451.333 184.453 440.379 188.672 428.772 189.125C429.468 189.125 430.176 189.125 430.884 189.125C442.864 189.125 454.352 185.1 462.823 177.933C471.294 170.767 476.052 161.048 476.052 150.913C476.052 140.779 471.294 131.059 462.823 123.893C454.352 116.727 442.864 112.701 430.884 112.701V112.782Z" fill="#E6E6E6"/>
<path d="M430.908 189.166C432.108 189.115 433.188 189.024 434.304 188.912V153.867H473.82C473.904 152.913 473.964 151.959 473.964 150.994C473.964 150.03 473.904 149.076 473.82 148.121H434.28V113.087C433.164 112.965 432.036 112.874 430.884 112.833H427.488V148.132H385.764V153.878H427.488V189.176L430.908 189.166Z" fill="#F0F0F0"/>
<path d="M427.499 112.823H424.104V148.122H427.499V112.823Z" fill="#E6E6E6"/>
<path d="M427.499 153.868H424.104V189.166H427.499V153.868Z" fill="#E6E6E6"/>
<path d="M339.072 360.562H431.316V333.629H339.072V360.562Z" fill="#EBEBEB"/>
<path d="M339.072 387.506H431.316V360.573H339.072V387.506Z" fill="#EBEBEB"/>
<path d="M434.532 360.562H526.776V333.629H434.532V360.562Z" fill="#EBEBEB"/>
<path d="M434.532 387.506H526.776V360.573H434.532V387.506Z" fill="#EBEBEB"/>
<path d="M491.724 360.562L480.24 333.629H497.904L509.388 360.562H491.724Z" fill="#F0F0F0"/>
<path d="M471.696 333.629H475.572L487.056 360.562H483.168L471.696 333.629Z" fill="#F0F0F0"/>
<path d="M503.196 387.506L491.724 360.562H509.388L520.86 387.506H503.196Z" fill="#F0F0F0"/>
<path d="M483.168 360.562H487.056L498.528 387.506H494.652L483.168 360.562Z" fill="#F0F0F0"/>
<path d="M359.784 360.562L348.312 333.629H365.976L377.448 360.562H359.784Z" fill="#F0F0F0"/>
<path d="M339.768 333.629H343.644L355.116 360.562H351.24L339.768 333.629Z" fill="#F0F0F0"/>
<path d="M371.268 387.506L359.784 360.562H377.448L388.932 387.506H371.268Z" fill="#F0F0F0"/>
<path d="M351.24 360.562H355.116L366.6 387.506H362.712L351.24 360.562Z" fill="#F0F0F0"/>
<path d="M526.776 337.771V335.05H434.532V337.771H526.776Z" fill="#E0E0E0"/>
<path d="M526.776 364.491V361.771H434.532V364.491H526.776Z" fill="#E0E0E0"/>
<path d="M478.296 350.542C477.93 350.542 477.579 350.419 477.32 350.201C477.061 349.982 476.916 349.685 476.916 349.375C476.916 349.065 477.061 348.768 477.32 348.549C477.579 348.331 477.93 348.208 478.296 348.208H483.012C483.378 348.208 483.729 348.331 483.988 348.549C484.247 348.768 484.392 349.065 484.392 349.375C484.392 349.685 484.247 349.982 483.988 350.201C483.729 350.419 483.378 350.542 483.012 350.542H478.296Z" fill="#E0E0E0"/>
<path d="M478.296 350.136C478.104 350.152 477.909 350.133 477.726 350.08C477.542 350.028 477.373 349.945 477.23 349.834C477.087 349.724 476.972 349.589 476.894 349.44C476.816 349.29 476.775 349.128 476.775 348.964C476.775 348.8 476.816 348.638 476.894 348.488C476.972 348.338 477.087 348.204 477.23 348.093C477.373 347.983 477.542 347.899 477.726 347.847C477.909 347.795 478.104 347.776 478.296 347.791H483.013C483.358 347.818 483.679 347.954 483.912 348.171C484.146 348.387 484.275 348.67 484.275 348.964C484.275 349.257 484.146 349.54 483.912 349.757C483.679 349.974 483.358 350.109 483.013 350.136H478.296Z" fill="#F5F5F5"/>
<path d="M478.296 375.415C478.104 375.43 477.909 375.411 477.726 375.359C477.542 375.307 477.373 375.223 477.23 375.113C477.087 375.002 476.972 374.868 476.894 374.718C476.816 374.568 476.775 374.406 476.775 374.242C476.775 374.078 476.816 373.916 476.894 373.766C476.972 373.616 477.087 373.482 477.23 373.372C477.373 373.261 477.542 373.177 477.726 373.125C477.909 373.073 478.104 373.054 478.296 373.07H483.013C483.358 373.097 483.679 373.232 483.912 373.449C484.146 373.666 484.275 373.949 484.275 374.242C484.275 374.536 484.146 374.818 483.912 375.035C483.679 375.252 483.358 375.387 483.013 375.415H478.296Z" fill="#E0E0E0"/>
<path d="M478.296 375.009C478.104 375.024 477.909 375.005 477.726 374.953C477.542 374.901 477.373 374.817 477.23 374.707C477.087 374.596 476.972 374.462 476.894 374.312C476.816 374.162 476.775 374 476.775 373.836C476.775 373.672 476.816 373.51 476.894 373.361C476.972 373.211 477.087 373.076 477.23 372.966C477.373 372.855 477.542 372.772 477.726 372.72C477.909 372.668 478.104 372.649 478.296 372.664H483.013C483.358 372.691 483.679 372.826 483.912 373.043C484.146 373.26 484.275 373.543 484.275 373.836C484.275 374.13 484.146 374.413 483.912 374.629C483.679 374.846 483.358 374.982 483.013 375.009H478.296Z" fill="#F5F5F5"/>
<path d="M432.924 332.421V388.683H528.384V332.421H432.924ZM436.14 361.994H525.168V385.952H436.14V361.994ZM436.14 335.304H525.168V359.263H436.14V335.304Z" fill="#F5F5F5"/>
<path d="M431.316 337.771V335.05H339.072V337.771H431.316Z" fill="#E0E0E0"/>
<path d="M431.304 364.501V361.781H339.06V364.501H431.304Z" fill="#E0E0E0"/>
<path d="M382.8 350.542C382.434 350.542 382.083 350.419 381.824 350.201C381.565 349.982 381.42 349.685 381.42 349.375C381.42 349.065 381.565 348.768 381.824 348.549C382.083 348.331 382.434 348.208 382.8 348.208H387.6C387.966 348.208 388.317 348.331 388.576 348.549C388.835 348.768 388.98 349.065 388.98 349.375C388.98 349.685 388.835 349.982 388.576 350.201C388.317 350.419 387.966 350.542 387.6 350.542H382.8Z" fill="#E0E0E0"/>
<path d="M382.8 350.136C382.455 350.109 382.134 349.974 381.9 349.757C381.667 349.54 381.537 349.257 381.537 348.964C381.537 348.67 381.667 348.387 381.9 348.17C382.134 347.954 382.455 347.818 382.8 347.791H387.6C387.945 347.818 388.266 347.954 388.5 348.17C388.733 348.387 388.863 348.67 388.863 348.964C388.863 349.257 388.733 349.54 388.5 349.757C388.266 349.974 387.945 350.109 387.6 350.136H382.8Z" fill="#F5F5F5"/>
<path d="M382.8 375.415C382.455 375.388 382.134 375.252 381.9 375.036C381.667 374.819 381.537 374.536 381.537 374.242C381.537 373.949 381.667 373.666 381.9 373.449C382.134 373.232 382.455 373.097 382.8 373.07H387.6C387.945 373.097 388.266 373.232 388.5 373.449C388.733 373.666 388.863 373.949 388.863 374.242C388.863 374.536 388.733 374.819 388.5 375.036C388.266 375.252 387.945 375.388 387.6 375.415H382.8Z" fill="#E0E0E0"/>
<path d="M382.8 375.009C382.455 374.981 382.134 374.846 381.9 374.629C381.667 374.412 381.537 374.13 381.537 373.836C381.537 373.543 381.667 373.26 381.9 373.043C382.134 372.826 382.455 372.691 382.8 372.664H387.6C387.945 372.691 388.266 372.826 388.5 373.043C388.733 373.26 388.863 373.543 388.863 373.836C388.863 374.13 388.733 374.412 388.5 374.629C388.266 374.846 387.945 374.981 387.6 375.009H382.8Z" fill="#F5F5F5"/>
<path d="M337.452 332.421V388.683H432.924V332.421H337.452ZM340.68 361.994H429.696V385.952H340.68V361.994ZM340.68 335.304H429.696V359.263H340.68V335.304Z" fill="#F5F5F5"/>
<path d="M474 327.974H459.768L456.468 316.127H450.768L447.48 327.974H433.2C432.621 327.973 432.047 328.068 431.511 328.255C430.975 328.442 430.489 328.716 430.078 329.062C429.668 329.408 429.343 329.819 429.121 330.272C428.898 330.725 428.784 331.21 428.784 331.7V332.421H478.392V331.7C478.392 330.714 477.93 329.768 477.107 329.069C476.283 328.371 475.166 327.977 474 327.974Z" fill="#E0E0E0"/>
<path d="M516.72 253.124H390.54V322.218H516.72V253.124Z" fill="#E0E0E0"/>
<path d="M514.32 255.154H392.94V317.142H514.32V255.154Z" fill="#F5F5F5"/>
<path d="M459.84 317.142H504.492L478.08 255.154H433.428L459.84 317.142Z" fill="#FAFAFA"/>
<path d="M438.228 317.142H448.044L421.632 255.154H411.816L438.228 317.142Z" fill="#FAFAFA"/>
<path d="M265.044 388.734H138.768V370.41H268.644L265.044 388.734Z" fill="#F5F5F5"/>
<path d="M149.028 388.866H92.9879L90.5879 370.41H146.628L149.028 388.866Z" fill="#E0E0E0"/>
<path d="M294.216 430.551C422.715 430.551 526.884 425.405 526.884 419.058C526.884 412.712 422.715 407.566 294.216 407.566C165.717 407.566 61.5479 412.712 61.5479 419.058C61.5479 425.405 165.717 430.551 294.216 430.551Z" fill="#F5F5F5"/>
<path d="M450.216 417.617H444.468L443.208 343.426H451.476L450.216 417.617Z" fill="#263238"/>
<path opacity="0.5" d="M450.216 417.617H444.468L443.208 343.426H451.476L450.216 417.617Z" fill="white"/>
<path d="M399.456 417.617H393.696L392.448 343.426H400.716L399.456 417.617Z" fill="#263238"/>
<path opacity="0.5" d="M399.456 417.617H393.696L392.448 343.426H400.716L399.456 417.617Z" fill="white"/>
<path d="M387.672 417.617H381.924L380.664 343.426H388.932L387.672 417.617Z" fill="#263238"/>
<path opacity="0.5" d="M387.672 417.617H381.924L380.664 343.426H388.932L387.672 417.617Z" fill="white"/>
<path d="M336.912 417.617H331.152L329.904 343.426H338.172L336.912 417.617Z" fill="#263238"/>
<path opacity="0.5" d="M336.912 417.617H331.152L329.904 343.426H338.172L336.912 417.617Z" fill="white"/>
<path d="M422.64 345.131H329.34C328.33 345.131 327.33 344.963 326.397 344.636C325.464 344.309 324.616 343.829 323.901 343.225C323.187 342.621 322.62 341.903 322.234 341.114C321.847 340.324 321.648 339.478 321.648 338.623V329.954C321.652 328.23 322.463 326.577 323.906 325.359C325.348 324.141 327.302 323.456 329.34 323.456H411.948L419.064 266.179C419.548 262.824 421.445 259.73 424.408 257.462C427.37 255.195 431.199 253.907 435.192 253.834H469.86L461.58 275.214L454.02 323.101L448.704 336.481L422.64 345.131Z" fill="#407BFF"/>
<path opacity="0.2" d="M422.64 345.131H329.34C328.33 345.131 327.33 344.963 326.397 344.636C325.464 344.309 324.616 343.829 323.901 343.225C323.187 342.621 322.62 341.903 322.234 341.114C321.847 340.324 321.648 339.478 321.648 338.623V329.954C321.652 328.23 322.463 326.577 323.906 325.359C325.348 324.141 327.302 323.456 329.34 323.456H411.948L419.064 266.179C419.548 262.824 421.445 259.73 424.408 257.462C427.37 255.195 431.199 253.907 435.192 253.834H469.86L461.58 275.214L454.02 323.101L448.704 336.481L422.64 345.131Z" fill="black"/>
<path d="M472.728 253.834H465.804C461.812 253.907 457.985 255.196 455.024 257.463C452.064 259.731 450.17 262.825 449.688 266.179L442.572 323.457H391.668C389.632 323.459 387.681 324.145 386.241 325.363C384.802 326.581 383.991 328.232 383.988 329.954V338.624C383.988 340.348 384.797 342.002 386.237 343.222C387.677 344.442 389.63 345.128 391.668 345.131H453.252C455.59 345.132 457.846 344.4 459.583 343.076C461.321 341.752 462.417 339.931 462.66 337.964L470.724 273.052C473.954 272.997 477.041 271.917 479.374 270.028C481.708 268.138 483.117 265.576 483.324 262.849C483.35 261.664 483.094 260.486 482.572 259.385C482.049 258.285 481.27 257.285 480.282 256.444C479.294 255.603 478.116 254.939 476.818 254.491C475.521 254.042 474.13 253.819 472.728 253.834Z" fill="#407BFF"/>
<path d="M338.904 386.968L342.9 409.058L351.144 408.459L349.992 386.166L338.904 386.968Z" fill="#EBB376"/>
<path d="M351.432 399.82C351.432 399.82 351.828 405.525 353.448 408.368C355.068 411.21 357.312 414.987 351.828 415.403C348.588 415.647 342.924 416.784 336.72 417.291C332.436 417.637 326.568 417.291 326.364 415.373C326.124 413.149 341.316 408.49 341.256 406.348C341.196 404.205 340.512 400.51 340.512 400.51L351.432 399.82Z" fill="#263238"/>
<path opacity="0.1" d="M351.432 399.82C351.432 399.82 351.828 405.525 353.448 408.368C355.068 411.21 357.312 414.987 351.828 415.403C348.588 415.647 342.924 416.784 336.72 417.291C332.436 417.637 326.568 417.291 326.364 415.373C326.124 413.149 341.316 408.49 341.256 406.348C341.196 404.205 340.512 400.51 340.512 400.51L351.432 399.82Z" fill="white"/>
<path d="M392.628 281.884L390.396 297.6C390.396 297.6 327 302.31 323.388 315.721C319.968 328.472 338.676 393.211 338.676 393.211L351.336 392.145C351.336 392.145 353.1 342.086 347.556 324.228C347.556 324.228 395.748 323.924 411.816 324.228C419.016 324.37 437.484 324.167 432.912 306.401C427.704 286.097 422.196 281.884 422.196 281.884L422.004 272.991H393.204L392.628 281.884Z" fill="#407BFF"/>
<path opacity="0.2" d="M392.628 281.884L390.396 297.6C390.396 297.6 327 302.31 323.388 315.721C319.968 328.472 338.676 393.211 338.676 393.211L351.336 392.145C351.336 392.145 353.1 342.086 347.556 324.228C347.556 324.228 395.748 323.924 411.816 324.228C419.016 324.37 437.484 324.167 432.912 306.401C427.704 286.097 422.196 281.884 422.196 281.884L422.004 272.991H393.204L392.628 281.884Z" fill="white"/>
<path d="M337.453 393.485L338.509 396.114C338.608 396.351 338.798 396.553 339.047 396.689C339.297 396.825 339.593 396.887 339.889 396.866L350.941 396.003C351.25 395.98 351.54 395.866 351.759 395.68C351.979 395.494 352.114 395.249 352.141 394.988L352.345 392.267C352.354 392.106 352.322 391.945 352.252 391.795C352.181 391.645 352.074 391.51 351.936 391.398C351.798 391.286 351.634 391.201 351.454 391.148C351.274 391.094 351.083 391.074 350.893 391.089L338.581 392.043C338.386 392.06 338.198 392.113 338.031 392.199C337.864 392.284 337.721 392.4 337.613 392.538C337.505 392.676 337.435 392.833 337.407 392.996C337.379 393.16 337.395 393.327 337.453 393.485Z" fill="#407BFF"/>
<path opacity="0.6" d="M337.453 393.485L338.509 396.114C338.608 396.351 338.798 396.553 339.047 396.689C339.297 396.825 339.593 396.887 339.889 396.866L350.941 396.003C351.25 395.98 351.54 395.866 351.759 395.68C351.979 395.494 352.114 395.249 352.141 394.988L352.345 392.267C352.354 392.106 352.322 391.945 352.252 391.795C352.181 391.645 352.074 391.51 351.936 391.398C351.798 391.286 351.634 391.201 351.454 391.148C351.274 391.094 351.083 391.074 350.893 391.089L338.581 392.043C338.386 392.06 338.198 392.113 338.031 392.199C337.864 392.284 337.721 392.4 337.613 392.538C337.505 392.676 337.435 392.833 337.407 392.996C337.379 393.16 337.395 393.327 337.453 393.485Z" fill="white"/>
<path d="M363.192 386.521L364.956 408.825H373.224L374.328 386.521H363.192Z" fill="#EBB376"/>
<path d="M374.172 402.064C374.172 402.064 373.957 407.779 375.277 410.734C376.597 413.688 378.433 417.617 372.877 417.617C369.637 417.617 363.889 417.677 357.757 417.292C353.461 417.028 347.521 417.617 347.521 415.657C347.521 413.424 363.588 409.8 363.744 407.668C363.9 405.536 363.744 401.942 363.744 401.942L374.172 402.064Z" fill="#263238"/>
<path d="M402.552 281.884L400.524 297.6C400.524 297.6 361.093 302.138 354.769 310.127C348.445 318.117 363.3 396.734 363.3 396.734H374.328C382.2 353.08 378.108 324.167 378.108 324.167H427.56C459.06 324.167 431.028 281.884 431.028 281.884L431.148 272.544L402 273.966L402.552 281.884Z" fill="#407BFF"/>
<path opacity="0.3" d="M402.552 281.884L400.524 297.6C400.524 297.6 361.093 302.138 354.769 310.127C348.445 318.117 363.3 396.734 363.3 396.734H374.328C382.2 353.08 378.108 324.167 378.108 324.167H427.56C459.06 324.167 431.028 281.884 431.028 281.884L431.148 272.544L402 273.966L402.552 281.884Z" fill="white"/>
<path d="M361.284 395.211L362.112 398.084C362.176 398.311 362.33 398.513 362.548 398.655C362.767 398.797 363.037 398.872 363.312 398.865H374.292C374.571 398.871 374.844 398.793 375.063 398.647C375.282 398.501 375.434 398.294 375.492 398.063L376.224 395.18C376.264 395.03 376.264 394.873 376.222 394.723C376.18 394.573 376.098 394.432 375.982 394.313C375.866 394.194 375.72 394.098 375.554 394.034C375.388 393.969 375.207 393.938 375.024 393.942H362.472C362.287 393.938 362.103 393.971 361.935 394.038C361.768 394.105 361.62 394.203 361.505 394.326C361.39 394.449 361.31 394.593 361.272 394.747C361.234 394.9 361.238 395.059 361.284 395.211Z" fill="#407BFF"/>
<path opacity="0.6" d="M361.284 395.211L362.112 398.084C362.176 398.311 362.33 398.513 362.548 398.655C362.767 398.797 363.037 398.872 363.312 398.865H374.292C374.571 398.871 374.844 398.793 375.063 398.647C375.282 398.501 375.434 398.294 375.492 398.063L376.224 395.18C376.264 395.03 376.264 394.873 376.222 394.723C376.18 394.573 376.098 394.432 375.982 394.313C375.866 394.194 375.72 394.098 375.554 394.034C375.388 393.969 375.207 393.938 375.024 393.942H362.472C362.287 393.938 362.103 393.971 361.935 394.038C361.768 394.105 361.62 394.203 361.505 394.326C361.39 394.449 361.31 394.593 361.272 394.747C361.234 394.9 361.238 395.059 361.284 395.211Z" fill="white"/>
<path d="M345.924 272.92L336.996 274.392L328.596 272.311C327.433 272.177 326.248 272.299 325.155 272.663C324.063 273.027 323.099 273.623 322.356 274.392C321.14 275.621 320.477 277.175 320.484 278.778V279.052H337.752L347.124 277.986L345.924 272.92Z" fill="#EBB376"/>
<path d="M394.164 229.236C394.151 228.888 394.015 228.551 393.776 228.268C393.537 227.985 393.204 227.768 392.819 227.644C392.435 227.521 392.016 227.496 391.614 227.573C391.213 227.651 390.848 227.826 390.564 228.079C387.684 230.474 383.544 233.287 381.612 248.383C379.128 267.824 340.812 272.646 340.812 272.646L342.636 279.752C342.636 279.752 370.86 280.564 382.548 270.25C397.668 257.002 395.46 237.114 394.164 229.236Z" fill="#407BFF"/>
<path opacity="0.2" d="M394.164 229.236C394.151 228.888 394.015 228.551 393.776 228.268C393.537 227.985 393.204 227.768 392.819 227.644C392.435 227.521 392.016 227.496 391.614 227.573C391.213 227.651 390.848 227.826 390.564 228.079C387.684 230.474 383.544 233.287 381.612 248.383C379.128 267.824 340.812 272.646 340.812 272.646L342.636 279.752C342.636 279.752 370.86 280.564 382.548 270.25C397.668 257.002 395.46 237.114 394.164 229.236Z" fill="white"/>
<path d="M428.508 197.856C425.04 178.192 405.468 185.278 405.468 185.278C392.82 189.136 397.068 202.424 397.068 209.643C397.068 216.861 395.988 219.358 395.988 219.358C397.452 219.084 398.808 218.85 400.116 218.627L400.572 216.363L401.364 218.394C411.996 216.678 417.732 216.698 420.828 217.246C421.699 215.906 422.326 214.461 422.688 212.962C422.688 212.962 424.2 213.795 422.688 217.734C424.524 218.434 424.44 219.338 424.44 219.338C424.44 219.338 432 217.521 428.508 197.856Z" fill="#263238"/>
<path d="M440.532 226.952L394.8 226.495C393.732 226.481 392.693 226.789 391.868 227.364C391.044 227.938 390.488 228.742 390.3 229.632C384.9 254.89 388.584 253.997 388.584 253.997L390.888 284.91H396C397.496 284.911 398.946 284.474 400.103 283.672C401.261 282.871 402.054 281.755 402.348 280.514L402.864 278.341L404.22 281.387C404.681 282.421 405.5 283.313 406.571 283.945C407.642 284.578 408.914 284.921 410.22 284.93H433.56C430.848 261.195 439.74 238.292 442.836 229.734C442.958 229.42 442.991 229.087 442.934 228.761C442.877 228.435 442.731 228.125 442.507 227.855C442.283 227.585 441.988 227.363 441.646 227.206C441.303 227.049 440.922 226.962 440.532 226.952Z" fill="#407BFF"/>
<path opacity="0.4" d="M440.532 226.952L394.8 226.495C393.732 226.481 392.693 226.789 391.868 227.364C391.044 227.938 390.488 228.742 390.3 229.632C384.9 254.89 388.584 253.997 388.584 253.997L390.888 284.91H396C397.496 284.911 398.946 284.474 400.103 283.672C401.261 282.871 402.054 281.755 402.348 280.514L402.864 278.341L404.22 281.387C404.681 282.421 405.5 283.313 406.571 283.945C407.642 284.578 408.914 284.921 410.22 284.93H433.56C430.848 261.195 439.74 238.292 442.836 229.734C442.958 229.42 442.991 229.087 442.934 228.761C442.877 228.435 442.731 228.125 442.507 227.855C442.283 227.585 441.988 227.363 441.646 227.206C441.303 227.049 440.922 226.962 440.532 226.952Z" fill="white"/>
<path d="M339.6 272.534L341.292 280.026C341.352 280.282 341.518 280.512 341.76 280.674C342.001 280.836 342.304 280.919 342.612 280.91L344.316 280.849C344.494 280.842 344.669 280.803 344.829 280.736C344.988 280.668 345.129 280.573 345.243 280.456C345.356 280.339 345.439 280.203 345.486 280.058C345.533 279.912 345.543 279.759 345.516 279.61L344.112 271.631C344.086 271.473 344.02 271.323 343.918 271.19C343.816 271.057 343.681 270.944 343.522 270.86C343.363 270.776 343.184 270.722 342.998 270.703C342.811 270.683 342.622 270.698 342.444 270.747L340.44 271.296C340.148 271.383 339.903 271.556 339.749 271.783C339.595 272.011 339.542 272.277 339.6 272.534Z" fill="#407BFF"/>
<path opacity="0.6" d="M339.6 272.534L341.292 280.026C341.352 280.282 341.518 280.512 341.76 280.674C342.001 280.836 342.304 280.919 342.612 280.91L344.316 280.849C344.494 280.842 344.669 280.803 344.829 280.736C344.988 280.668 345.129 280.573 345.243 280.456C345.356 280.339 345.439 280.203 345.486 280.058C345.533 279.912 345.543 279.759 345.516 279.61L344.112 271.631C344.086 271.473 344.02 271.323 343.918 271.19C343.816 271.057 343.681 270.944 343.522 270.86C343.363 270.776 343.184 270.722 342.998 270.703C342.811 270.683 342.622 270.698 342.444 270.747L340.44 271.296C340.148 271.383 339.903 271.556 339.749 271.783C339.595 272.011 339.542 272.277 339.6 272.534Z" fill="white"/>
<path d="M418.801 208.17C418.129 213.348 417.913 222.749 422.473 225.835C422.473 225.835 420.733 231.063 409.009 232.038C400.681 228.931 403.777 227.205 403.777 227.205C410.341 225.327 410.977 221.165 409.489 217.297L418.801 208.17Z" fill="#EBB376"/>
<path opacity="0.1" d="M417.769 213.927L415.369 213.399L412.393 214.414L409.465 217.277C409.858 218.26 410.081 219.286 410.125 220.323C416.581 219.49 417.769 213.927 417.769 213.927Z" fill="black"/>
<path d="M423.097 196.729C423.385 205.267 423.733 208.912 419.137 213.622C412.213 220.729 399.757 219.206 396.445 210.912C393.469 203.45 393.481 190.75 402.937 186.608C405.021 185.688 407.349 185.235 409.699 185.291C412.049 185.347 414.343 185.911 416.363 186.928C418.383 187.945 420.062 189.382 421.24 191.103C422.419 192.824 423.058 194.771 423.097 196.76V196.729Z" fill="#EBB376"/>
<path d="M426.193 203.257C425.807 204.877 424.676 206.301 423.049 207.216C420.877 208.414 419.017 206.932 418.969 204.851C418.969 202.993 420.013 200.12 422.497 199.775C423.04 199.71 423.594 199.759 424.11 199.919C424.625 200.079 425.086 200.343 425.452 200.69C425.818 201.036 426.076 201.454 426.206 201.905C426.335 202.356 426.33 202.828 426.193 203.277V203.257Z" fill="#EBB376"/>
<path d="M401.484 201.978C400.932 203.608 400.125 205.169 399.084 206.617C399.525 206.839 400.018 206.976 400.528 207.018C401.038 207.06 401.553 207.006 402.036 206.861L401.484 201.978Z" fill="#D58745"/>
<path d="M408.265 197.095C408.335 197.077 408.398 197.041 408.445 196.993C408.517 196.929 408.558 196.843 408.558 196.755C408.558 196.666 408.517 196.58 408.445 196.516C407.904 196.078 407.247 195.757 406.528 195.58C405.809 195.403 405.051 195.376 404.317 195.501C404.214 195.525 404.126 195.582 404.072 195.659C404.019 195.737 404.003 195.83 404.029 195.917C404.054 196.003 404.119 196.077 404.209 196.123C404.299 196.169 404.407 196.182 404.509 196.161C405.119 196.07 405.746 196.103 406.338 196.256C406.93 196.41 407.471 196.68 407.917 197.044C407.967 197.073 408.024 197.093 408.084 197.102C408.144 197.111 408.206 197.108 408.265 197.095Z" fill="#2E353A"/>
<path d="M394.176 197.856C394.107 197.845 394.041 197.821 393.984 197.785C393.943 197.758 393.908 197.723 393.882 197.684C393.857 197.645 393.841 197.602 393.835 197.557C393.83 197.513 393.835 197.468 393.85 197.425C393.865 197.382 393.89 197.343 393.924 197.308C394.386 196.807 394.984 196.407 395.667 196.142C396.35 195.877 397.098 195.755 397.848 195.785C397.952 195.798 398.046 195.844 398.111 195.914C398.176 195.984 398.206 196.072 398.196 196.161C398.184 196.248 398.132 196.328 398.051 196.383C397.97 196.438 397.867 196.464 397.764 196.455C397.144 196.439 396.528 196.547 395.967 196.772C395.406 196.996 394.915 197.329 394.536 197.745C394.493 197.788 394.437 197.822 394.374 197.841C394.311 197.861 394.242 197.866 394.176 197.856Z" fill="#2E353A"/>
<path d="M407.124 200.394C407.208 201.084 406.825 201.673 406.285 201.724C405.745 201.775 405.265 201.247 405.193 200.546C405.121 199.846 405.493 199.267 406.021 199.216C406.549 199.166 407.052 199.693 407.124 200.394Z" fill="#2E353A"/>
<path d="M397.884 201.105C397.968 201.785 397.584 202.384 397.056 202.424C396.528 202.465 396.036 201.937 395.952 201.247C395.868 200.557 396.252 199.968 396.78 199.927C397.308 199.886 397.824 200.394 397.884 201.105Z" fill="#2E353A"/>
<path d="M397.021 199.937L395.017 199.612C395.017 199.612 396.157 200.831 397.021 199.937Z" fill="#2E353A"/>
<path d="M406.261 199.227L404.257 198.902C404.257 198.902 405.397 200.12 406.261 199.227Z" fill="#2E353A"/>
<path d="M401.532 209.602C402.762 209.732 404.011 209.623 405.184 209.283C406.356 208.944 407.422 208.383 408.3 207.643C408.3 207.643 411.3 212.262 403.212 213.013C403.083 211.756 402.496 210.564 401.532 209.602Z" fill="#263238"/>
<path d="M402.252 209.653L402.84 210.668C402.84 210.668 406.656 210.668 408.684 208.445C408.588 208.154 408.459 207.872 408.3 207.602C407.514 208.278 406.57 208.81 405.53 209.163C404.489 209.516 403.373 209.683 402.252 209.653Z" fill="white"/>
<path d="M403.765 212.942C407.725 212.455 408.757 210.911 408.841 209.673C404.929 210.546 403.981 212.201 403.765 212.942Z" fill="#DE5753"/>
<path d="M405.469 189.938C404.739 191.083 403.7 192.066 402.437 192.807C401.173 193.548 399.72 194.026 398.197 194.202C392.749 195.004 394.693 207.034 394.693 207.034C394.693 207.034 382.921 182.75 408.553 184.476L405.469 189.938Z" fill="#263238"/>
<path d="M409.201 184.943C408.774 184.86 408.332 184.854 407.903 184.925C407.473 184.995 407.066 185.14 406.707 185.352C406.348 185.563 406.045 185.835 405.817 186.151C405.589 186.467 405.442 186.819 405.385 187.186C405.085 189.217 405.589 191.755 409.465 192.81C416.317 194.668 415.681 200.8 415.681 200.8L416.881 196.252C416.881 196.252 417.265 202.749 421.129 201.978C424.993 201.206 425.377 195.074 425.377 195.074L418.993 186.811L409.201 184.943Z" fill="#263238"/>
<path d="M404.856 225.54C404.944 225.51 405.04 225.501 405.134 225.514C405.228 225.527 405.316 225.562 405.388 225.614C405.46 225.667 405.513 225.735 405.542 225.811C405.571 225.888 405.575 225.97 405.552 226.048C405.096 227.723 404.7 231.358 409.92 231.358C415.14 231.358 419.832 227.754 421.836 226.018C422.141 225.753 422.532 225.571 422.958 225.493C423.385 225.415 423.83 225.446 424.236 225.581L425.604 226.038C425.749 226.087 425.879 226.161 425.985 226.257C426.092 226.353 426.172 226.467 426.222 226.591C426.271 226.716 426.287 226.848 426.27 226.979C426.252 227.109 426.201 227.235 426.12 227.347C423.804 230.596 415.5 240.951 408.792 232.555C408.792 232.555 404.892 237.631 402.492 233.094C401.609 231.379 401.42 229.467 401.952 227.652C402.066 227.251 402.293 226.879 402.615 226.57C402.937 226.26 403.344 226.022 403.8 225.875L404.856 225.54Z" fill="#407BFF"/>
<path opacity="0.6" d="M404.856 225.54C404.944 225.51 405.04 225.501 405.134 225.514C405.228 225.527 405.316 225.562 405.388 225.614C405.46 225.667 405.513 225.735 405.542 225.811C405.571 225.888 405.575 225.97 405.552 226.048C405.096 227.723 404.7 231.358 409.92 231.358C415.14 231.358 419.832 227.754 421.836 226.018C422.141 225.753 422.532 225.571 422.958 225.493C423.385 225.415 423.83 225.446 424.236 225.581L425.604 226.038C425.749 226.087 425.879 226.161 425.985 226.257C426.092 226.353 426.172 226.467 426.222 226.591C426.271 226.716 426.287 226.848 426.27 226.979C426.252 227.109 426.201 227.235 426.12 227.347C423.804 230.596 415.5 240.951 408.792 232.555C408.792 232.555 404.892 237.631 402.492 233.094C401.609 231.379 401.42 229.467 401.952 227.652C402.066 227.251 402.293 226.879 402.615 226.57C402.937 226.26 403.344 226.022 403.8 225.875L404.856 225.54Z" fill="white"/>
<path d="M381.373 231.683C381.534 231.577 381.72 231.501 381.918 231.459C382.116 231.417 382.322 231.41 382.524 231.438C382.725 231.466 382.917 231.529 383.089 231.622C383.26 231.716 383.407 231.839 383.52 231.983C383.633 232.126 383.71 232.288 383.746 232.458C383.782 232.628 383.776 232.803 383.729 232.971C383.682 233.139 383.594 233.297 383.472 233.435C383.349 233.573 383.194 233.689 383.017 233.774L361.309 245.956C361.146 246.047 360.965 246.11 360.774 246.141C360.583 246.172 360.386 246.171 360.196 246.138C359.811 246.072 359.473 245.878 359.257 245.601C359.04 245.324 358.963 244.985 359.042 244.659C359.121 244.334 359.349 244.048 359.677 243.865L381.373 231.683Z" fill="#263238"/>
<path opacity="0.6" d="M381.373 231.683C381.534 231.577 381.72 231.501 381.918 231.459C382.116 231.417 382.322 231.41 382.524 231.438C382.725 231.466 382.917 231.529 383.089 231.622C383.26 231.716 383.407 231.839 383.52 231.983C383.633 232.126 383.71 232.288 383.746 232.458C383.782 232.628 383.776 232.803 383.729 232.971C383.682 233.139 383.594 233.297 383.472 233.435C383.349 233.573 383.194 233.689 383.017 233.774L361.309 245.956C361.146 246.047 360.965 246.11 360.774 246.141C360.583 246.172 360.386 246.171 360.196 246.138C359.811 246.072 359.473 245.878 359.257 245.601C359.04 245.324 358.963 244.985 359.042 244.659C359.121 244.334 359.349 244.048 359.677 243.865L381.373 231.683Z" fill="white"/>
<path d="M359.676 243.835C358.989 244.438 358.407 245.122 357.948 245.865C357.905 245.929 357.884 246.002 357.887 246.076C357.89 246.15 357.918 246.221 357.966 246.282C358.015 246.344 358.083 246.392 358.162 246.422C358.242 246.453 358.33 246.464 358.416 246.454C359.406 246.392 360.379 246.211 361.308 245.916C361.471 245.825 361.61 245.708 361.719 245.572C361.828 245.436 361.904 245.283 361.943 245.121C361.982 244.96 361.983 244.794 361.947 244.633C361.91 244.471 361.835 244.317 361.728 244.18C361.621 244.043 361.483 243.924 361.322 243.832C361.161 243.74 360.98 243.676 360.789 243.643C360.599 243.61 360.402 243.609 360.211 243.64C360.02 243.671 359.839 243.734 359.676 243.825V243.835Z" fill="#263238"/>
<path opacity="0.8" d="M359.676 243.835C358.989 244.438 358.407 245.122 357.948 245.865C357.905 245.929 357.884 246.002 357.887 246.076C357.89 246.15 357.918 246.221 357.966 246.282C358.015 246.344 358.083 246.392 358.162 246.422C358.242 246.453 358.33 246.464 358.416 246.454C359.406 246.392 360.379 246.211 361.308 245.916C361.471 245.825 361.61 245.708 361.719 245.572C361.828 245.436 361.904 245.283 361.943 245.121C361.982 244.96 361.983 244.794 361.947 244.633C361.91 244.471 361.835 244.317 361.728 244.18C361.621 244.043 361.483 243.924 361.322 243.832C361.161 243.74 360.98 243.676 360.789 243.643C360.599 243.61 360.402 243.609 360.211 243.64C360.02 243.671 359.839 243.734 359.676 243.825V243.835Z" fill="white"/>
<path d="M389.653 251.946L380.185 246.332L378.001 238.647C377.799 237.905 377.354 237.226 376.717 236.687C376.081 236.149 375.278 235.772 374.401 235.601C373.264 235.383 372.072 235.522 371.047 235.993C370.022 236.464 369.235 237.234 368.833 238.16L368.101 239.825C367.904 240.277 367.803 240.754 367.801 241.236V242.647C367.801 243.662 368.251 244.639 369.061 245.388L370.357 246.586C370.704 246.905 371.109 247.176 371.557 247.388L377.173 250.037L386.041 257.53L389.653 251.946Z" fill="#EBB376"/>
<path d="M438.073 229.185C438.286 228.677 438.652 228.225 439.134 227.874C439.617 227.522 440.2 227.283 440.826 227.181C441.451 227.078 442.097 227.115 442.7 227.289C443.304 227.462 443.843 227.766 444.265 228.17C446.269 230.261 447.421 234.261 444.001 242.149C437.173 257.834 426.301 270.149 412.681 270.149C396.529 270.149 380.185 254.332 380.185 254.332L385.849 248.687C385.849 248.687 402.253 258.098 413.197 258.098C419.449 258.139 429.601 247.865 438.073 229.185Z" fill="#407BFF"/>
<path opacity="0.2" d="M438.073 229.185C438.286 228.677 438.652 228.225 439.134 227.874C439.617 227.522 440.2 227.283 440.826 227.181C441.451 227.078 442.097 227.115 442.7 227.289C443.304 227.462 443.843 227.766 444.265 228.17C446.269 230.261 447.421 234.261 444.001 242.149C437.173 257.834 426.301 270.149 412.681 270.149C396.529 270.149 380.185 254.332 380.185 254.332L385.849 248.687C385.849 248.687 402.253 258.098 413.197 258.098C419.449 258.139 429.601 247.865 438.073 229.185Z" fill="white"/>
<path d="M378.768 253.753L385.152 247.235C385.26 247.126 385.413 247.055 385.581 247.038C385.748 247.021 385.917 247.059 386.052 247.144L388.788 248.829C388.862 248.874 388.924 248.931 388.97 248.997C389.016 249.063 389.046 249.137 389.057 249.213C389.069 249.289 389.061 249.367 389.036 249.44C389.01 249.514 388.966 249.582 388.908 249.641L381.708 256.961C381.642 257.029 381.558 257.084 381.463 257.12C381.367 257.155 381.263 257.171 381.159 257.166C381.055 257.161 380.953 257.136 380.863 257.091C380.773 257.046 380.696 256.984 380.64 256.91L378.696 254.423C378.622 254.319 378.589 254.198 378.602 254.078C378.615 253.957 378.673 253.843 378.768 253.753Z" fill="#407BFF"/>
<path opacity="0.6" d="M378.768 253.753L385.152 247.235C385.26 247.126 385.413 247.055 385.581 247.038C385.748 247.021 385.917 247.059 386.052 247.144L388.788 248.829C388.862 248.874 388.924 248.931 388.97 248.997C389.016 249.063 389.046 249.137 389.057 249.213C389.069 249.289 389.061 249.367 389.036 249.44C389.01 249.514 388.966 249.582 388.908 249.641L381.708 256.961C381.642 257.029 381.558 257.084 381.463 257.12C381.367 257.155 381.263 257.171 381.159 257.166C381.055 257.161 380.953 257.136 380.863 257.091C380.773 257.046 380.696 256.984 380.64 256.91L378.696 254.423C378.622 254.319 378.589 254.198 378.602 254.078C378.615 253.957 378.673 253.843 378.768 253.753Z" fill="white"/>
<path d="M408.24 184.395H405.996V184.466C410.125 184.832 413.947 186.479 416.726 189.088C419.505 191.697 421.043 195.085 421.044 198.597H425.028C425.025 194.831 423.255 191.22 420.108 188.557C416.96 185.894 412.692 184.397 408.24 184.395Z" fill="#263238"/>
<path opacity="0.6" d="M408.24 184.395H405.996V184.466C410.125 184.832 413.947 186.479 416.726 189.088C419.505 191.697 421.043 195.085 421.044 198.597H425.028C425.025 194.831 423.255 191.22 420.108 188.557C416.96 185.894 412.692 184.397 408.24 184.395Z" fill="white"/>
<path d="M423.096 209.683C426.105 209.683 428.544 206.924 428.544 203.521C428.544 200.117 426.105 197.358 423.096 197.358C420.088 197.358 417.648 200.117 417.648 203.521C417.648 206.924 420.088 209.683 423.096 209.683Z" fill="#407BFF"/>
<path d="M429.169 203.521C429.169 206.272 428.185 207.582 425.569 207.582C422.953 207.582 421.969 206.292 421.969 203.521C421.969 200.749 422.965 199.46 425.569 199.46C428.173 199.46 429.169 200.759 429.169 203.521Z" fill="#263238"/>
<path opacity="0.5" d="M429.169 203.521C429.169 206.272 428.185 207.582 425.569 207.582C422.953 207.582 421.969 206.292 421.969 203.521C421.969 200.749 422.965 199.46 425.569 199.46C428.173 199.46 429.169 200.759 429.169 203.521Z" fill="white"/>
<path d="M426.36 207.186C428.149 207.186 429.6 205.545 429.6 203.521C429.6 201.497 428.149 199.856 426.36 199.856C424.571 199.856 423.12 201.497 423.12 203.521C423.12 205.545 424.571 207.186 426.36 207.186Z" fill="#263238"/>
<path opacity="0.7" d="M426.36 207.186C428.149 207.186 429.6 205.545 429.6 203.521C429.6 201.497 428.149 199.856 426.36 199.856C424.571 199.856 423.12 201.497 423.12 203.521C423.12 205.545 424.571 207.186 426.36 207.186Z" fill="white"/>
<path d="M204.096 417.617H198.348L195.828 290.412H206.616L204.096 417.617Z" fill="#263238"/>
<path opacity="0.7" d="M204.096 417.617H198.348L195.828 290.412H206.616L204.096 417.617Z" fill="white"/>
<path d="M267.588 417.617H261.828L259.308 290.412H270.108L267.588 417.617Z" fill="#263238"/>
<path opacity="0.7" d="M267.588 417.617H261.828L259.308 290.412H270.108L267.588 417.617Z" fill="white"/>
<path d="M309.744 288.28H201.216V298.229H309.744V288.28Z" fill="#263238"/>
<path opacity="0.5" d="M309.744 288.28H201.216V298.229H309.744V288.28Z" fill="white"/>
<path d="M373.404 288.28H309.756V298.229H373.404V288.28Z" fill="#263238"/>
<path opacity="0.5" d="M373.404 288.28H309.756V298.229H373.404V288.28Z" fill="white"/>
<path d="M376.116 417.617H370.356L367.836 290.412H378.624L376.116 417.617Z" fill="#263238"/>
<path opacity="0.7" d="M376.116 417.617H370.356L367.836 290.412H378.624L376.116 417.617Z" fill="white"/>
<path d="M382.031 281.885H297.287C295.531 281.885 294.107 283.089 294.107 284.575V287.722C294.107 289.208 295.531 290.412 297.287 290.412H382.031C383.788 290.412 385.211 289.208 385.211 287.722V284.575C385.211 283.089 383.788 281.885 382.031 281.885Z" fill="#263238"/>
<path d="M305.112 281.885H190.068C188.311 281.885 186.888 283.089 186.888 284.575V287.722C186.888 289.208 188.311 290.412 190.068 290.412H305.112C306.868 290.412 308.292 289.208 308.292 287.722V284.575C308.292 283.089 306.868 281.885 305.112 281.885Z" fill="#263238"/>
<path opacity="0.2" d="M305.112 281.885H190.068C188.311 281.885 186.888 283.089 186.888 284.575V287.722C186.888 289.208 188.311 290.412 190.068 290.412H305.112C306.868 290.412 308.292 289.208 308.292 287.722V284.575C308.292 283.089 306.868 281.885 305.112 281.885Z" fill="white"/>
<path d="M312.623 417.617H306.875L304.355 290.412H315.143L312.623 417.617Z" fill="#263238"/>
<path opacity="0.7" d="M312.623 417.617H306.875L304.355 290.412H315.143L312.623 417.617Z" fill="white"/>
<path d="M309.6 281.895C309.154 281.895 308.727 281.745 308.412 281.479C308.097 281.212 307.92 280.85 307.92 280.474C307.92 280.097 308.097 279.735 308.412 279.469C308.727 279.202 309.154 279.052 309.6 279.052H355.38C355.825 279.052 356.253 279.202 356.568 279.469C356.883 279.735 357.06 280.097 357.06 280.474C357.06 280.85 356.883 281.212 356.568 281.479C356.253 281.745 355.825 281.895 355.38 281.895H309.6Z" fill="#407BFF"/>
<path d="M313.536 279.438L307.44 242.748C307.311 242.081 306.911 241.472 306.309 241.027C305.706 240.582 304.939 240.329 304.14 240.312H298.308V281.884H311.052C311.42 281.902 311.788 281.848 312.127 281.726C312.466 281.603 312.768 281.417 313.008 281.18C313.248 280.944 313.421 280.663 313.512 280.361C313.604 280.059 313.612 279.743 313.536 279.438Z" fill="#407BFF"/>
<path d="M308.531 281.885H256.799C256 281.867 255.233 281.612 254.632 281.165C254.031 280.718 253.635 280.107 253.511 279.438L247.415 242.749C247.341 242.444 247.351 242.129 247.443 241.829C247.536 241.528 247.709 241.249 247.949 241.013C248.189 240.778 248.489 240.592 248.828 240.471C249.166 240.349 249.533 240.295 249.899 240.312H301.655C302.454 240.331 303.22 240.585 303.822 241.029C304.424 241.474 304.825 242.082 304.955 242.749L311.051 279.438C311.129 279.746 311.12 280.065 311.027 280.369C310.933 280.674 310.758 280.956 310.513 281.193C310.269 281.431 309.963 281.617 309.619 281.737C309.275 281.857 308.903 281.907 308.531 281.885Z" fill="#407BFF"/>
<path opacity="0.7" d="M308.531 281.885H256.799C256 281.867 255.233 281.612 254.632 281.165C254.031 280.718 253.635 280.107 253.511 279.438L247.415 242.749C247.341 242.444 247.351 242.129 247.443 241.829C247.536 241.528 247.709 241.249 247.949 241.013C248.189 240.778 248.489 240.592 248.828 240.471C249.166 240.349 249.533 240.295 249.899 240.312H301.655C302.454 240.331 303.22 240.585 303.822 241.029C304.424 241.474 304.825 242.082 304.955 242.749L311.051 279.438C311.129 279.746 311.12 280.065 311.027 280.369C310.933 280.674 310.758 280.956 310.513 281.193C310.269 281.431 309.963 281.617 309.619 281.737C309.275 281.857 308.903 281.907 308.531 281.885Z" fill="white"/>
<path opacity="0.7" d="M281.724 260.098C281.783 260.376 281.768 260.661 281.68 260.933C281.592 261.205 281.434 261.457 281.217 261.671C281 261.885 280.729 262.055 280.424 262.17C280.12 262.284 279.789 262.339 279.456 262.332C278.726 262.312 278.026 262.078 277.477 261.671C276.928 261.264 276.563 260.708 276.444 260.098C276.385 259.821 276.4 259.536 276.487 259.264C276.575 258.992 276.733 258.739 276.95 258.526C277.167 258.312 277.438 258.141 277.743 258.027C278.047 257.913 278.378 257.857 278.712 257.865C279.443 257.881 280.145 258.113 280.695 258.521C281.245 258.929 281.609 259.487 281.724 260.098Z" fill="white"/>
<path d="M237.3 260.758H217.308C216.99 260.759 216.677 260.818 216.389 260.932C216.101 261.045 215.847 261.211 215.643 261.418C215.439 261.624 215.292 261.865 215.21 262.125C215.129 262.385 215.116 262.656 215.172 262.921V263.073C214.174 262.863 213.128 262.891 212.148 263.154C208.548 264.068 208.44 266.789 209.52 269.844C210.6 272.9 212.448 275.123 216.06 274.21C216.641 274.059 217.195 273.841 217.704 273.56C218.42 274.99 219.581 276.228 221.064 277.144V279.377H233.472V277.144C235.561 275.863 236.988 273.951 237.456 271.804L239.4 262.921C239.456 262.659 239.443 262.39 239.364 262.132C239.285 261.875 239.14 261.635 238.94 261.429C238.741 261.223 238.491 261.057 238.207 260.941C237.924 260.825 237.615 260.763 237.3 260.758ZM215.592 272.271C213.192 272.87 211.992 271.408 211.296 269.398C210.6 267.388 210.66 265.611 213.024 265.012C213.895 264.769 214.844 264.827 215.664 265.174L217.068 271.59C216.641 271.906 216.137 272.138 215.592 272.271Z" fill="#407BFF"/>
<path opacity="0.5" d="M237.3 260.758H217.308C216.99 260.759 216.677 260.818 216.389 260.932C216.101 261.045 215.847 261.211 215.643 261.418C215.439 261.624 215.292 261.865 215.21 262.125C215.129 262.385 215.116 262.656 215.172 262.921V263.073C214.174 262.863 213.128 262.891 212.148 263.154C208.548 264.068 208.44 266.789 209.52 269.844C210.6 272.9 212.448 275.123 216.06 274.21C216.641 274.059 217.195 273.841 217.704 273.56C218.42 274.99 219.581 276.228 221.064 277.144V279.377H233.472V277.144C235.561 275.863 236.988 273.951 237.456 271.804L239.4 262.921C239.456 262.659 239.443 262.39 239.364 262.132C239.285 261.875 239.14 261.635 238.94 261.429C238.741 261.223 238.491 261.057 238.207 260.941C237.924 260.825 237.615 260.763 237.3 260.758ZM215.592 272.271C213.192 272.87 211.992 271.408 211.296 269.398C210.6 267.388 210.66 265.611 213.024 265.012C213.895 264.769 214.844 264.827 215.664 265.174L217.068 271.59C216.641 271.906 216.137 272.138 215.592 272.271Z" fill="white"/>
<path d="M233.999 282.006H220.571C219.734 282.009 218.909 281.834 218.171 281.499L213.611 279.387C213.435 279.303 213.296 279.171 213.216 279.013C213.137 278.855 213.121 278.679 213.172 278.512C213.222 278.346 213.336 278.198 213.496 278.092C213.656 277.986 213.852 277.927 214.055 277.925H240.455C240.658 277.927 240.855 277.986 241.015 278.092C241.175 278.198 241.288 278.346 241.339 278.512C241.39 278.679 241.374 278.855 241.294 279.013C241.215 279.171 241.076 279.303 240.899 279.387L236.339 281.499C235.619 281.826 234.816 282 233.999 282.006Z" fill="#407BFF"/>
<path opacity="0.4" d="M233.999 282.006H220.571C219.734 282.009 218.909 281.834 218.171 281.499L213.611 279.387C213.435 279.303 213.296 279.171 213.216 279.013C213.137 278.855 213.121 278.679 213.172 278.512C213.222 278.346 213.336 278.198 213.496 278.092C213.656 277.986 213.852 277.927 214.055 277.925H240.455C240.658 277.927 240.855 277.986 241.015 278.092C241.175 278.198 241.288 278.346 241.339 278.512C241.39 278.679 241.374 278.855 241.294 279.013C241.215 279.171 241.076 279.303 240.899 279.387L236.339 281.499C235.619 281.826 234.816 282 233.999 282.006Z" fill="white"/>
<path d="M400.558 162.339C404.122 149.564 394.771 136.764 379.671 133.749C364.571 130.734 349.441 138.646 345.877 151.42C342.313 164.195 351.665 176.995 366.765 180.01C381.865 183.025 396.995 175.113 400.558 162.339Z" fill="#407BFF"/>
<path opacity="0.7" d="M400.558 162.339C404.122 149.564 394.771 136.764 379.671 133.749C364.571 130.734 349.441 138.646 345.877 151.42C342.313 164.195 351.665 176.995 366.765 180.01C381.865 183.025 396.995 175.113 400.558 162.339Z" fill="white"/>
<g opacity="0.8">
<path d="M367.561 164.964C369.081 163.715 371.118 163.016 373.237 163.016C375.356 163.016 377.392 163.715 378.913 164.964C380.437 166.152 382.741 164.223 381.205 163.025C379.065 161.28 376.209 160.306 373.237 160.306C370.265 160.306 367.409 161.28 365.269 163.025C363.733 164.223 366.025 166.152 367.561 164.964Z" fill="#407BFF"/>
<path d="M372.133 168.832C372.425 168.587 372.819 168.45 373.231 168.45C373.642 168.45 374.037 168.587 374.329 168.832C375.865 170.03 378.157 168.091 376.621 166.893C375.71 166.15 374.495 165.735 373.231 165.735C371.966 165.735 370.751 166.15 369.841 166.893C368.305 168.091 370.609 170.03 372.133 168.832Z" fill="#407BFF"/>
<path d="M361.537 159.868C364.671 157.297 368.865 155.859 373.231 155.859C377.597 155.859 381.791 157.297 384.925 159.868C386.461 161.055 388.753 159.127 387.217 157.929C383.462 154.865 378.448 153.153 373.231 153.153C368.014 153.153 363 154.865 359.245 157.929C357.709 159.127 360.013 161.066 361.537 159.868Z" fill="#407BFF"/>
<path d="M356.053 155.218C360.659 151.442 366.822 149.331 373.237 149.331C379.651 149.331 385.814 151.442 390.421 155.218C391.945 156.426 394.237 154.497 392.713 153.279C387.489 149.003 380.505 146.612 373.237 146.612C365.968 146.612 358.984 149.003 353.761 153.279C352.237 154.497 354.529 156.426 356.053 155.218Z" fill="#407BFF"/>
</g>
<path d="M149.52 306.331C165.479 306.331 178.416 295.386 178.416 281.884C178.416 268.383 165.479 257.438 149.52 257.438C133.561 257.438 120.624 268.383 120.624 281.884C120.624 295.386 133.561 306.331 149.52 306.331Z" fill="#407BFF"/>
<path opacity="0.7" d="M149.52 306.331C165.479 306.331 178.416 295.386 178.416 281.884C178.416 268.383 165.479 257.438 149.52 257.438C133.561 257.438 120.624 268.383 120.624 281.884C120.624 295.386 133.561 306.331 149.52 306.331Z" fill="white"/>
<path d="M143.232 274.108V280.412L134.256 274.859V288.91L143.232 283.346V289.661H164.772V274.108H143.232Z" fill="#407BFF"/>
<path d="M491.429 191.092C494.602 179.72 486.276 168.325 472.834 165.641C459.392 162.957 445.923 170 442.75 181.372C439.578 192.744 447.903 204.139 461.345 206.823C474.787 209.507 488.256 202.464 491.429 191.092Z" fill="#407BFF"/>
<path opacity="0.7" d="M491.429 191.092C494.602 179.72 486.276 168.325 472.834 165.641C459.392 162.957 445.923 170 442.75 181.372C439.578 192.744 447.903 204.139 461.345 206.823C474.787 209.507 488.256 202.464 491.429 191.092Z" fill="white"/>
<path d="M474.384 197.349H468V193.288C469.883 193.109 471.622 192.349 472.886 191.155C474.149 189.96 474.849 188.414 474.852 186.811V184.618C474.849 184.526 474.803 184.438 474.725 184.374C474.646 184.309 474.541 184.273 474.432 184.273H473.388C473.328 184.264 473.266 184.267 473.207 184.281C473.148 184.294 473.093 184.318 473.046 184.352C473 184.385 472.962 184.427 472.936 184.474C472.911 184.521 472.897 184.572 472.897 184.623C472.897 184.675 472.911 184.726 472.936 184.773C472.962 184.82 473 184.862 473.046 184.895C473.093 184.928 473.148 184.953 473.207 184.966C473.266 184.98 473.328 184.982 473.388 184.974H474V186.811C474 188.349 473.278 189.823 471.993 190.91C470.708 191.997 468.965 192.608 467.148 192.608C465.331 192.608 463.588 191.997 462.303 190.91C461.018 189.823 460.296 188.349 460.296 186.811V184.974H460.92C460.98 184.982 461.042 184.98 461.101 184.966C461.16 184.953 461.215 184.928 461.262 184.895C461.308 184.862 461.346 184.82 461.372 184.773C461.397 184.726 461.411 184.675 461.411 184.623C461.411 184.572 461.397 184.521 461.372 184.474C461.346 184.427 461.308 184.385 461.262 184.352C461.215 184.318 461.16 184.294 461.101 184.281C461.042 184.267 460.98 184.264 460.92 184.273H459.876C459.821 184.272 459.767 184.28 459.716 184.296C459.665 184.313 459.619 184.338 459.58 184.371C459.541 184.403 459.509 184.441 459.488 184.484C459.467 184.526 459.456 184.572 459.456 184.618V186.811C459.456 188.415 460.155 189.962 461.419 191.157C462.684 192.352 464.424 193.111 466.308 193.288V197.349H459.84C459.617 197.349 459.404 197.424 459.246 197.557C459.088 197.69 459 197.871 459 198.06V198.77H475.2V198.06C475.2 197.875 475.115 197.697 474.963 197.564C474.81 197.431 474.603 197.354 474.384 197.349Z" fill="#407BFF"/>
<path d="M467.112 191.258C468.487 191.258 469.805 190.796 470.777 189.973C471.75 189.151 472.296 188.035 472.296 186.872H461.928C461.926 187.448 462.059 188.019 462.319 188.552C462.579 189.085 462.961 189.569 463.443 189.976C463.924 190.384 464.496 190.707 465.126 190.927C465.756 191.147 466.431 191.259 467.112 191.258Z" fill="#407BFF"/>
<path d="M472.296 178.06C472.296 176.897 471.75 175.781 470.777 174.959C469.805 174.136 468.487 173.674 467.112 173.674C465.737 173.674 464.418 174.136 463.446 174.959C462.474 175.781 461.928 176.897 461.928 178.06V186.039H472.296V178.06Z" fill="#407BFF"/>
</svg>
