<svg width="598" height="622" viewBox="0 0 598 622" fill="none" xmlns="http://www.w3.org/2000/svg">
<path fill-rule="evenodd" clip-rule="evenodd" d="M298.164 131.204C313.118 101.016 349.738 88.6792 379.956 103.649C410.175 118.618 422.549 155.225 407.595 185.412L299.289 404.05C284.335 434.237 247.715 446.574 217.497 431.605C187.278 416.635 174.904 380.029 189.858 349.841L298.164 131.204ZM396.652 179.991L288.346 398.629C276.383 422.779 247.087 432.648 222.912 420.673C198.737 408.697 188.838 379.412 200.801 355.262L309.107 136.624C321.071 112.474 350.366 102.605 374.541 114.58C398.716 126.556 408.615 155.841 396.652 179.991Z" fill="url(#paint0_linear_788_5444)" fill-opacity="0.05"/>
<path fill-rule="evenodd" clip-rule="evenodd" d="M396.202 70.8529C347.853 46.902 289.261 66.6409 265.335 114.941L157.029 333.578C133.102 381.878 152.901 440.449 201.251 464.4C249.601 488.351 308.192 468.612 332.118 420.312L440.425 201.675C464.351 153.375 444.552 94.8039 396.202 70.8529ZM321.175 414.892L429.481 196.254C450.417 153.992 433.093 102.742 390.787 81.7848C348.481 60.8277 297.214 78.0993 276.278 120.362L167.972 338.999C147.036 381.262 164.36 432.511 206.666 453.468C248.972 474.426 300.24 457.154 321.175 414.892Z" fill="url(#paint1_linear_788_5444)" fill-opacity="0.05"/>
<path fill-rule="evenodd" clip-rule="evenodd" d="M232.506 98.6783C265.405 32.2657 345.968 5.12477 412.448 38.0573C478.929 70.9899 506.153 151.525 473.254 217.938L364.948 436.575C332.049 502.988 251.486 530.129 185.005 497.196C118.524 464.263 91.3007 383.728 124.199 317.316L232.506 98.6783ZM462.311 212.517L354.004 431.154C324.097 491.529 250.857 516.203 190.42 486.264C129.983 456.325 105.235 383.112 135.143 322.737L243.449 104.099C273.357 43.7241 346.596 19.0505 407.033 48.9892C467.47 78.9279 492.219 152.142 462.311 212.517Z" fill="url(#paint2_linear_788_5444)" fill-opacity="0.05"/>
<path fill-rule="evenodd" clip-rule="evenodd" d="M428.694 5.26169C344.082 -36.6524 241.548 -2.10942 199.676 82.4157L91.3701 301.053C49.499 385.578 84.1472 488.077 168.759 529.992C253.371 571.906 355.906 537.363 397.777 452.838L506.083 234.2C547.954 149.675 513.306 47.1758 428.694 5.26169ZM386.834 447.417L495.14 228.779C534.02 150.292 501.847 55.1138 423.279 16.1936C344.711 -22.7267 249.5 9.34897 210.62 87.8365L102.313 306.474C63.4329 384.962 95.6062 480.139 174.174 519.06C252.743 557.98 347.953 525.904 386.834 447.417Z" fill="url(#paint3_linear_788_5444)" fill-opacity="0.05"/>
<path fill-rule="evenodd" clip-rule="evenodd" d="M166.847 66.153C217.691 -36.4846 342.197 -78.4297 444.94 -27.5339C547.683 23.3618 589.756 147.825 538.912 250.463L430.606 469.1C379.763 571.738 255.256 613.683 152.513 562.787C49.7701 511.891 7.69729 387.428 58.5408 284.791L166.847 66.153ZM527.969 245.042L419.663 463.679C371.81 560.279 254.628 599.757 157.928 551.855C61.2292 503.953 21.6312 386.811 69.4839 290.211L177.79 71.5739C225.643 -25.0262 342.826 -64.5039 439.525 -16.6021C536.224 31.2998 575.822 148.442 527.969 245.042Z" fill="url(#paint4_linear_788_5444)" fill-opacity="0.05"/>
<path fill-rule="evenodd" clip-rule="evenodd" d="M134.018 49.8904C193.834 -70.8598 340.312 -120.207 461.186 -60.3295C582.06 -0.452205 631.558 145.975 571.742 266.725L463.435 485.363C403.619 606.113 257.141 655.46 136.267 595.583C15.3931 535.705 -34.1044 389.278 25.7115 268.528L134.018 49.8904ZM560.799 261.305L452.492 479.942C395.667 594.655 256.513 641.534 141.682 584.651C26.8521 527.767 -20.1705 388.661 36.6546 273.949L144.961 55.3112C201.786 -59.4014 340.94 -106.281 455.771 -49.3977C570.601 7.4858 617.624 146.592 560.799 261.305Z" fill="url(#paint5_linear_788_5444)" fill-opacity="0.05"/>
<defs>
<linearGradient id="paint0_linear_788_5444" x1="136.267" y1="595.583" x2="461.186" y2="-60.3295" gradientUnits="userSpaceOnUse">
<stop stop-color="#7E95FF"/>
<stop offset="0.5" stop-color="white"/>
<stop offset="1" stop-color="#BFCAFF"/>
</linearGradient>
<linearGradient id="paint1_linear_788_5444" x1="136.267" y1="595.583" x2="461.186" y2="-60.3295" gradientUnits="userSpaceOnUse">
<stop stop-color="#7E95FF"/>
<stop offset="0.5" stop-color="white"/>
<stop offset="1" stop-color="#BFCAFF"/>
</linearGradient>
<linearGradient id="paint2_linear_788_5444" x1="136.267" y1="595.583" x2="461.186" y2="-60.3295" gradientUnits="userSpaceOnUse">
<stop stop-color="#7E95FF"/>
<stop offset="0.5" stop-color="white"/>
<stop offset="1" stop-color="#BFCAFF"/>
</linearGradient>
<linearGradient id="paint3_linear_788_5444" x1="136.267" y1="595.583" x2="461.186" y2="-60.3295" gradientUnits="userSpaceOnUse">
<stop stop-color="#7E95FF"/>
<stop offset="0.5" stop-color="white"/>
<stop offset="1" stop-color="#BFCAFF"/>
</linearGradient>
<linearGradient id="paint4_linear_788_5444" x1="136.267" y1="595.583" x2="461.186" y2="-60.3295" gradientUnits="userSpaceOnUse">
<stop stop-color="#7E95FF"/>
<stop offset="0.5" stop-color="white"/>
<stop offset="1" stop-color="#BFCAFF"/>
</linearGradient>
<linearGradient id="paint5_linear_788_5444" x1="136.267" y1="595.583" x2="461.186" y2="-60.3295" gradientUnits="userSpaceOnUse">
<stop stop-color="#7E95FF"/>
<stop offset="0.5" stop-color="white"/>
<stop offset="1" stop-color="#BFCAFF"/>
</linearGradient>
</defs>
</svg>
