<svg width="31" height="31" viewBox="0 0 31 31" fill="none" xmlns="http://www.w3.org/2000/svg">
<path d="M15.792 0.761719C7.51074 0.761719 0.792605 7.48047 0.79336 15.7617C0.794116 24.0492 7.51348 30.7617 15.7947 30.7617C24.0822 30.7617 30.7941 24.0492 30.7934 15.7617C30.7926 7.47422 24.0795 0.761719 15.792 0.761719ZM15.7923 4.51172C22.0048 4.51172 27.0428 9.54922 27.0434 15.7617C27.0439 21.9742 22.0069 27.0117 15.7944 27.0117C9.58189 27.0117 4.54393 21.9742 4.54336 15.7617C4.54279 9.54922 9.57983 4.51172 15.7923 4.51172ZM21.4989 8.52422C21.0927 8.52422 20.7177 8.67422 20.449 9.03672C17.1994 13.418 16.137 15.068 13.825 19.6492C13.2999 18.9555 9.72455 15.1242 7.95568 13.768C7.06812 13.0867 5.37458 15.468 5.98089 16.0867C8.70615 18.893 13.5505 25.1367 14.338 25.0742C15.6754 24.968 19.0309 16.5242 23.6366 10.468C24.1366 9.81797 22.6989 8.51172 21.4989 8.52422Z" fill="#546FFF"/>
</svg>
